<svg width="28" height="28" viewBox="0 0 28 28" fill="none" xmlns="http://www.w3.org/2000/svg">
<path d="M13.5625 21H9.80656L7.875 19.0684V16.625C7.875 16.509 7.82891 16.3977 7.74686 16.3156C7.66481 16.2336 7.55353 16.1875 7.4375 16.1875C7.32147 16.1875 7.21019 16.2336 7.12814 16.3156C7.04609 16.3977 7 16.509 7 16.625V19.25C7.00049 19.3658 7.0469 19.4768 7.12906 19.5584L9.31656 21.7459C9.39823 21.8281 9.50916 21.8745 9.625 21.875H13.5625C13.6785 21.875 13.7898 21.8289 13.8719 21.7469C13.9539 21.6648 14 21.5535 14 21.4375C14 21.3215 13.9539 21.2102 13.8719 21.1281C13.7898 21.0461 13.6785 21 13.5625 21Z" fill="#143881"/>
<path d="M13.125 7H18.1934L20.125 8.93156V11.375C20.125 11.491 20.1711 11.6023 20.2531 11.6844C20.3352 11.7664 20.4465 11.8125 20.5625 11.8125C20.6785 11.8125 20.7898 11.7664 20.8719 11.6844C20.9539 11.6023 21 11.491 21 11.375V8.75C20.9995 8.63416 20.9531 8.52323 20.8709 8.44156L18.6834 6.25406C18.6018 6.1719 18.4908 6.12549 18.375 6.125H13.125C13.009 6.125 12.8977 6.17109 12.8156 6.25314C12.7336 6.33519 12.6875 6.44647 12.6875 6.5625C12.6875 6.67853 12.7336 6.78981 12.8156 6.87186C12.8977 6.95391 13.009 7 13.125 7Z" fill="#143881"/>
<path d="M22.1554 19.4688C22.7598 19.0384 23.2119 18.4271 23.4462 17.7231C23.6806 17.0191 23.6851 16.2588 23.4592 15.552C23.2333 14.8453 22.7887 14.2286 22.1894 13.791C21.5902 13.3534 20.8674 13.1176 20.1254 13.1176C19.3834 13.1176 18.6606 13.3534 18.0614 13.791C17.4621 14.2286 17.0174 14.8453 16.7915 15.552C16.5656 16.2588 16.5702 17.0191 16.8046 17.7231C17.0389 18.4271 17.4909 19.0384 18.0954 19.4688C17.1809 19.6408 16.3565 20.13 15.7674 20.8504C15.1783 21.5707 14.8624 22.4758 14.8754 23.4063V24.2813C14.8754 24.5714 14.9906 24.8496 15.1957 25.0547C15.4009 25.2598 15.6791 25.375 15.9691 25.375H24.2816C24.5717 25.375 24.8499 25.2598 25.055 25.0547C25.2601 24.8496 25.3754 24.5714 25.3754 24.2813V23.4063C25.3883 22.4758 25.0724 21.5707 24.4834 20.8504C23.8943 20.13 23.0699 19.6408 22.1554 19.4688ZM17.5004 16.625C17.5004 16.1058 17.6543 15.5983 17.9428 15.1667C18.2312 14.735 18.6412 14.3985 19.1208 14.1998C19.6005 14.0012 20.1283 13.9492 20.6375 14.0505C21.1467 14.1517 21.6144 14.4018 21.9815 14.7689C22.3487 15.136 22.5987 15.6037 22.6999 16.1129C22.8012 16.6221 22.7492 17.1499 22.5506 17.6296C22.3519 18.1092 22.0154 18.5192 21.5838 18.8076C21.1521 19.0961 20.6446 19.25 20.1254 19.25C19.4292 19.25 18.7615 18.9735 18.2692 18.4812C17.7769 17.9889 17.5004 17.3212 17.5004 16.625ZM24.5004 24.2813C24.5004 24.3393 24.4773 24.3949 24.4363 24.436C24.3953 24.477 24.3396 24.5 24.2816 24.5H15.9691C15.9111 24.5 15.8555 24.477 15.8145 24.436C15.7734 24.3949 15.7504 24.3393 15.7504 24.2813V23.4063C15.7504 21.6081 17.1723 20.2519 19.0557 20.2519H21.1951C23.0785 20.2519 24.5004 21.6081 24.5004 23.4063V24.2813Z" fill="#143881"/>
<path d="M13.1254 13.7813V12.9063C13.1383 11.9758 12.8224 11.0707 12.2334 10.3504C11.6443 9.63005 10.8199 9.14077 9.90538 8.96877C10.5098 8.53842 10.9619 7.9271 11.1962 7.22309C11.4306 6.51908 11.4351 5.7588 11.2092 5.05203C10.9833 4.34526 10.5387 3.72857 9.93941 3.291C9.34017 2.85342 8.61738 2.61761 7.87538 2.61761C7.13339 2.61761 6.41059 2.85342 5.81135 3.291C5.21211 3.72857 4.76744 4.34526 4.54154 5.05203C4.31563 5.7588 4.32019 6.51908 4.55455 7.22309C4.78891 7.9271 5.24094 8.53842 5.84538 8.96877C4.9309 9.14077 4.10647 9.63005 3.5174 10.3504C2.92834 11.0707 2.61244 11.9758 2.62538 12.9063V13.7813C2.62538 14.0714 2.74062 14.3496 2.94573 14.5547C3.15085 14.7598 3.42905 14.875 3.71913 14.875H12.0316C12.3217 14.875 12.5999 14.7598 12.805 14.5547C13.0101 14.3496 13.1254 14.0714 13.1254 13.7813ZM5.25038 6.12502C5.25038 5.60585 5.40434 5.09833 5.69278 4.66665C5.98121 4.23497 6.39118 3.89852 6.87084 3.69984C7.35049 3.50116 7.87829 3.44918 8.38749 3.55046C8.89669 3.65175 9.36443 3.90175 9.73154 4.26887C10.0987 4.63598 10.3487 5.10371 10.4499 5.61291C10.5512 6.12211 10.4992 6.64991 10.3006 7.12957C10.1019 7.60922 9.76543 8.01919 9.33375 8.30763C8.90208 8.59607 8.39456 8.75002 7.87538 8.75002C7.17919 8.75002 6.51151 8.47346 6.01923 7.98118C5.52694 7.48889 5.25038 6.82122 5.25038 6.12502ZM3.50038 13.7813V12.9063C3.50038 11.1081 4.92226 9.7519 6.8057 9.7519H8.94507C10.8285 9.74315 12.2504 11.0994 12.2504 12.9063V13.7813C12.2504 13.8393 12.2273 13.8949 12.1863 13.936C12.1453 13.977 12.0896 14 12.0316 14H3.71913C3.66112 14 3.60548 13.977 3.56445 13.936C3.52343 13.8949 3.50038 13.8393 3.50038 13.7813Z" fill="#143881"/>
</svg>
