<svg width="80" height="80" viewBox="0 0 80 80" fill="none" xmlns="http://www.w3.org/2000/svg">
<path d="M74.2755 51.2958C69.2475 71.4641 48.8203 83.7381 28.6496 78.7087C8.48745 73.6807 -3.78656 53.2523 1.24368 33.0856C6.26951 12.9152 26.6967 0.640241 46.8611 5.66828C67.0303 10.6963 79.3036 31.127 74.275 51.2962L74.2753 51.2958H74.2755Z" fill="#F7931A"/>
<path d="M54.4234 36.7954C55.1727 31.7854 51.3584 29.0923 46.1427 27.2958L47.8347 20.5093L43.7036 19.4799L42.0564 26.0877C40.9704 25.8169 39.8551 25.5616 38.7465 25.3086L40.4056 18.6572L36.2771 17.6278L34.5841 24.4121C33.6854 24.2075 32.8027 24.0052 31.9463 23.7921L31.951 23.7708L26.2541 22.3482L25.1552 26.7605C25.1552 26.7605 28.2201 27.4631 28.1555 27.5063C29.8284 27.9238 30.1309 29.0312 30.0807 29.909L28.1533 37.6404C28.2685 37.6697 28.4179 37.712 28.5828 37.7782C28.445 37.744 28.2983 37.7066 28.1462 37.6702L25.4446 48.5008C25.2402 49.0091 24.7213 49.7718 23.5517 49.4822C23.5931 49.5421 20.5491 48.7328 20.5491 48.7328L18.498 53.4617L23.8741 54.8019C24.8742 55.0527 25.8542 55.3151 26.8194 55.5618L25.1099 62.4262L29.2363 63.4555L30.9292 56.6641C32.0565 56.9701 33.1505 57.2524 34.2214 57.5185L32.5342 64.2779L36.6655 65.3073L38.3748 58.4558C45.4193 59.789 50.7162 59.2515 52.9457 52.8798C54.7423 47.7498 52.8563 44.7909 49.1502 42.8613C51.8495 42.2388 53.8827 40.4634 54.4248 36.796L54.4235 36.795L54.4234 36.7954ZM44.9847 50.0309C43.708 55.1609 35.0707 52.3878 32.2703 51.6924L34.5389 42.5983C37.339 43.2974 46.319 44.6808 44.9849 50.0309H44.9847ZM46.2623 36.7211C45.0977 41.3873 37.9087 39.0166 35.5767 38.4353L37.6334 30.1876C39.9655 30.7689 47.4755 31.8538 46.2627 36.7211H46.2623Z" fill="white"/>
</svg>
