<svg width="100" height="101" viewBox="0 0 100 101" fill="none" xmlns="http://www.w3.org/2000/svg">
<g clip-path="url(#clip0_2088_51064)">
<path d="M59.5019 60.9526C57.8066 67.7651 46.3379 64.0835 42.6191 63.1596L45.6308 51.0835C49.3496 52.0113 61.2754 53.8491 59.5019 60.9526Z" fill="#FDAD00"/>
<path d="M61.1993 43.2789C59.6524 49.4742 50.1055 46.3258 47.0098 45.5544L49.7403 34.6013C52.8379 35.3727 62.8106 36.8141 61.1993 43.2789Z" fill="#FDAD00"/>
<path d="M62.0871 1.99616C35.3081 -4.68168 8.1774 11.6211 1.50362 38.4099C-5.17792 65.1929 11.1227 92.3235 37.9017 99.0032C64.6886 105.683 91.8193 89.3802 98.497 62.5953C105.175 35.8083 88.874 8.67375 62.0871 1.99616ZM39.7084 34.2321C39.7768 33.0661 39.3744 31.5955 37.1517 31.0408C37.2377 30.9842 33.1674 30.0505 33.1674 30.0505L34.6282 24.1913L42.1927 26.0799L42.1868 26.1093C43.3236 26.3906 44.4954 26.66 45.6907 26.9315L47.9388 17.9219L53.4211 19.289L51.218 28.123C52.6887 28.4588 54.171 28.7967 55.6125 29.1561L57.8 20.3827L63.2863 21.7498L61.0401 30.7615C67.9658 33.1483 73.0322 36.7243 72.0362 43.3766C71.3155 48.2477 68.6163 50.6051 65.0323 51.4313C69.9541 53.9938 72.458 57.9233 70.0713 64.7358C67.1104 73.1967 60.0773 73.9096 50.7218 72.1401L48.4525 81.2376L42.9662 79.8705L45.2065 70.896C43.7846 70.5425 42.3315 70.1675 40.8354 69.7612L38.5874 78.7786L33.1069 77.4115L35.3784 68.2964C34.0972 67.9682 32.7944 67.6206 31.4663 67.2867L24.3277 65.5074L27.0503 59.2282C27.0503 59.2282 31.0933 60.3023 31.0386 60.2243C32.5913 60.607 33.2808 59.5953 33.5523 58.9195L39.7084 34.2321Z" fill="#FDAD00"/>
</g>
<defs>
<clipPath id="clip0_2088_51064">
<rect width="100" height="100" fill="white" transform="translate(0 0.5)"/>
</clipPath>
</defs>
</svg>
