<svg width="28" height="28" viewBox="0 0 28 28" fill="none" xmlns="http://www.w3.org/2000/svg">
<g clip-path="url(#clip0_2013_4682)">
<path d="M11.0833 9.33333H1.75C0.785167 9.33333 0 8.54817 0 7.58333V1.75C0 0.785167 0.785167 0 1.75 0H11.0833C12.0482 0 12.8333 0.785167 12.8333 1.75V7.58333C12.8333 8.54817 12.0482 9.33333 11.0833 9.33333ZM1.75 1.16667C1.42917 1.16667 1.16667 1.428 1.16667 1.75V7.58333C1.16667 7.90533 1.42917 8.16667 1.75 8.16667H11.0833C11.4042 8.16667 11.6667 7.90533 11.6667 7.58333V1.75C11.6667 1.428 11.4042 1.16667 11.0833 1.16667H1.75Z" fill="#27AAE1"/>
<path d="M11.0833 27.9998H1.75C0.785167 27.9998 0 27.2147 0 26.2498V13.4165C0 12.4517 0.785167 11.6665 1.75 11.6665H11.0833C12.0482 11.6665 12.8333 12.4517 12.8333 13.4165V26.2498C12.8333 27.2147 12.0482 27.9998 11.0833 27.9998ZM1.75 12.8332C1.42917 12.8332 1.16667 13.0945 1.16667 13.4165V26.2498C1.16667 26.5718 1.42917 26.8332 1.75 26.8332H11.0833C11.4042 26.8332 11.6667 26.5718 11.6667 26.2498V13.4165C11.6667 13.0945 11.4042 12.8332 11.0833 12.8332H1.75Z" fill="#27AAE1"/>
<path d="M26.2501 27.9998H16.9167C15.9519 27.9998 15.1667 27.2147 15.1667 26.2498V20.4165C15.1667 19.4517 15.9519 18.6665 16.9167 18.6665H26.2501C27.2149 18.6665 28.0001 19.4517 28.0001 20.4165V26.2498C28.0001 27.2147 27.2149 27.9998 26.2501 27.9998ZM16.9167 19.8332C16.5959 19.8332 16.3334 20.0945 16.3334 20.4165V26.2498C16.3334 26.5718 16.5959 26.8332 16.9167 26.8332H26.2501C26.5709 26.8332 26.8334 26.5718 26.8334 26.2498V20.4165C26.8334 20.0945 26.5709 19.8332 26.2501 19.8332H16.9167Z" fill="#27AAE1"/>
<path d="M26.2501 16.3333H16.9167C15.9519 16.3333 15.1667 15.5482 15.1667 14.5833V1.75C15.1667 0.785167 15.9519 0 16.9167 0H26.2501C27.2149 0 28.0001 0.785167 28.0001 1.75V14.5833C28.0001 15.5482 27.2149 16.3333 26.2501 16.3333ZM16.9167 1.16667C16.5959 1.16667 16.3334 1.428 16.3334 1.75V14.5833C16.3334 14.9053 16.5959 15.1667 16.9167 15.1667H26.2501C26.5709 15.1667 26.8334 14.9053 26.8334 14.5833V1.75C26.8334 1.428 26.5709 1.16667 26.2501 1.16667H16.9167Z" fill="#27AAE1"/>
</g>
<defs>
<clipPath id="clip0_2013_4682">
<rect width="28" height="28" fill="white"/>
</clipPath>
</defs>
</svg>
