<svg width="52" height="53" viewBox="0 0 52 53" fill="none" xmlns="http://www.w3.org/2000/svg">
<g clip-path="url(#clip0_2372_2254)">
<path d="M23.7676 4.83325H19.4342C8.60091 4.83325 4.26758 9.16658 4.26758 19.9999V32.9999C4.26758 43.8332 8.60091 48.1666 19.4342 48.1666H32.4342C43.2676 48.1666 47.6009 43.8332 47.6009 32.9999V28.6666" stroke="#143881" stroke-width="2" stroke-linecap="round" stroke-linejoin="round"/>
<path d="M47.4065 8.21324C44.7415 14.8649 38.0465 23.9216 32.4565 28.4066L29.0331 31.1366C28.5998 31.4616 28.1665 31.7216 27.6681 31.9166C27.6681 31.5916 27.6465 31.2666 27.6031 30.9199C27.4081 29.4682 26.7581 28.1032 25.5881 26.9549C24.3965 25.7632 22.9665 25.0916 21.4931 24.8966C21.1465 24.8749 20.7998 24.8532 20.4531 24.8749C20.6481 24.3332 20.9298 23.8349 21.2981 23.4232L24.0281 19.9999C28.5131 14.4099 37.5915 7.67157 44.2215 5.00657C45.2398 4.61657 46.2365 4.91991 46.8648 5.54824C47.5148 6.19824 47.8181 7.19491 47.4065 8.21324Z" stroke="#143881" stroke-width="2" stroke-linecap="round" stroke-linejoin="round"/>
<path d="M27.6909 31.8949C27.6909 33.8015 26.9542 35.6215 25.5892 37.0082C24.5275 38.0699 23.0975 38.8065 21.3859 39.0232L17.1175 39.4782C14.7992 39.7382 12.8059 37.7665 13.0659 35.4049L13.5209 31.1365C13.9325 27.3449 17.0959 24.9182 20.4759 24.8532C20.8225 24.8315 21.1692 24.8532 21.5159 24.8749C22.9892 25.0699 24.4192 25.7415 25.6109 26.9332C26.7809 28.1032 27.4309 29.4465 27.6259 30.8982C27.6692 31.2449 27.6909 31.5915 27.6909 31.8949Z" stroke="#143881" stroke-width="2" stroke-linecap="round" stroke-linejoin="round"/>
<path d="M34.2761 26.4568C34.2761 21.9285 30.6145 18.2451 26.0645 18.2451" stroke="#143881" stroke-width="2" stroke-linecap="round" stroke-linejoin="round"/>
</g>
<defs>
<clipPath id="clip0_2372_2254">
<rect width="52" height="52" fill="white" transform="translate(0 0.5)"/>
</clipPath>
</defs>
</svg>
