<svg width="28" height="28" viewBox="0 0 28 28" fill="none" xmlns="http://www.w3.org/2000/svg">
<g clip-path="url(#clip0_2434_1998)">
<path d="M12.7983 2.33301H10.465C4.63167 2.33301 2.29834 4.66634 2.29834 10.4997V17.4997C2.29834 23.333 4.63167 25.6663 10.465 25.6663H17.465C23.2983 25.6663 25.6317 23.333 25.6317 17.4997V15.1663" stroke="#143881" stroke-width="2" stroke-linecap="round" stroke-linejoin="round"/>
<path d="M25.5265 4.15326C24.0915 7.73493 20.4865 12.6116 17.4765 15.0266L15.6332 16.4966C15.3999 16.6716 15.1665 16.8116 14.8982 16.9166C14.8982 16.7416 14.8865 16.5666 14.8632 16.3799C14.7582 15.5983 14.4082 14.8633 13.7782 14.2449C13.1365 13.6033 12.3665 13.2416 11.5732 13.1366C11.3865 13.1249 11.1999 13.1133 11.0132 13.1249C11.1182 12.8333 11.2699 12.5649 11.4682 12.3433L12.9382 10.4999C15.3532 7.48993 20.2415 3.8616 23.8115 2.4266C24.3599 2.2166 24.8965 2.37993 25.2348 2.71826C25.5848 3.06826 25.7482 3.60493 25.5265 4.15326Z" stroke="#143881" stroke-width="2" stroke-linecap="round" stroke-linejoin="round"/>
<path d="M14.9098 16.9049C14.9098 17.9316 14.5131 18.9116 13.7781 19.6582C13.2065 20.2299 12.4365 20.6266 11.5148 20.7432L9.21645 20.9882C7.96812 21.1282 6.89478 20.0666 7.03478 18.7949L7.27978 16.4966C7.50145 14.4549 9.20478 13.1482 11.0248 13.1132C11.2114 13.1016 11.3981 13.1132 11.5848 13.1249C12.3781 13.2299 13.1481 13.5916 13.7898 14.2332C14.4198 14.8632 14.7698 15.5866 14.8748 16.3682C14.8981 16.5549 14.9098 16.7416 14.9098 16.9049Z" stroke="#143881" stroke-width="2" stroke-linecap="round" stroke-linejoin="round"/>
<path d="M18.4568 13.9764C18.4568 11.538 16.4852 9.55469 14.0352 9.55469" stroke="#143881" stroke-width="2" stroke-linecap="round" stroke-linejoin="round"/>
</g>
<defs>
<clipPath id="clip0_2434_1998">
<rect width="28" height="28" fill="white"/>
</clipPath>
</defs>
</svg>
