<svg width="28" height="29" viewBox="0 0 28 29" fill="none" xmlns="http://www.w3.org/2000/svg">
<path d="M2.33325 15.6318H22.1666" stroke="#143881" stroke-width="2" stroke-miterlimit="10" stroke-linecap="round" stroke-linejoin="round"/>
<path d="M22.1666 12.9132V21.2549C22.1316 24.5799 21.2216 25.4199 17.7566 25.4199H6.74329C3.21995 25.4199 2.33325 24.5449 2.33325 21.0682V12.9132C2.33325 9.76319 3.06825 8.74819 5.83325 8.58486C6.11325 8.57319 6.41662 8.56152 6.74329 8.56152H17.7566C21.2799 8.56152 22.1666 9.43652 22.1666 12.9132Z" stroke="#143881" stroke-width="2" stroke-linecap="round" stroke-linejoin="round"/>
<path d="M25.6666 8.77159V16.9266C25.6666 20.0766 24.9316 21.0916 22.1666 21.2549V12.9133C22.1666 9.43659 21.2799 8.56159 17.7566 8.56159H6.74329C6.41662 8.56159 6.11325 8.57326 5.83325 8.58492C5.86825 5.25992 6.77829 4.41992 10.2433 4.41992H21.2566C24.7799 4.41992 25.6666 5.29492 25.6666 8.77159Z" stroke="#143881" stroke-width="2" stroke-linecap="round" stroke-linejoin="round"/>
<path d="M6.125 21.6982H8.13163" stroke="#143881" stroke-width="2" stroke-miterlimit="10" stroke-linecap="round" stroke-linejoin="round"/>
<path d="M10.6284 21.6982H14.6418" stroke="#143881" stroke-width="2" stroke-miterlimit="10" stroke-linecap="round" stroke-linejoin="round"/>
</svg>
