<svg width="52" height="52" viewBox="0 0 52 52" fill="none" xmlns="http://www.w3.org/2000/svg">
<path d="M4.33301 27.3218H41.1663" stroke="#143881" stroke-width="2" stroke-miterlimit="10" stroke-linecap="round" stroke-linejoin="round"/>
<path d="M41.1663 22.2733V37.765C41.1013 43.94 39.4113 45.5 32.9763 45.5H12.5231C5.97974 45.5 4.33301 43.875 4.33301 37.4183V22.2733C4.33301 16.4233 5.69801 14.5383 10.833 14.235C11.353 14.2133 11.9164 14.1917 12.5231 14.1917H32.9763C39.5196 14.1917 41.1663 15.8166 41.1663 22.2733Z" stroke="#143881" stroke-width="2" stroke-linecap="round" stroke-linejoin="round"/>
<path d="M47.6663 14.5817V29.7267C47.6663 35.5767 46.3013 37.4617 41.1663 37.765V22.2733C41.1663 15.8167 39.5196 14.1917 32.9763 14.1917H12.5231C11.9164 14.1917 11.353 14.2133 10.833 14.235C10.898 8.06 12.5881 6.5 19.0231 6.5H39.4763C46.0196 6.5 47.6663 8.125 47.6663 14.5817Z" stroke="#143881" stroke-width="2" stroke-linecap="round" stroke-linejoin="round"/>
<path d="M11.375 38.5884H15.1016" stroke="#143881" stroke-width="2" stroke-miterlimit="10" stroke-linecap="round" stroke-linejoin="round"/>
<path d="M19.7383 38.5884H27.1916" stroke="#143881" stroke-width="2" stroke-miterlimit="10" stroke-linecap="round" stroke-linejoin="round"/>
</svg>
