<svg width="28" height="29" viewBox="0 0 28 29" fill="none" xmlns="http://www.w3.org/2000/svg">
<path d="M2.33325 12.5869H25.6666" stroke="#143881" stroke-width="2" stroke-miterlimit="10" stroke-linecap="round" stroke-linejoin="round"/>
<path d="M13.4729 24.8363H7.51126C3.36959 24.8363 2.31958 23.8097 2.31958 19.7147V10.1247C2.31958 6.41465 3.18295 5.22465 6.43795 5.03799C6.76461 5.02632 7.12626 5.01465 7.51126 5.01465H20.4729C24.6146 5.01465 25.6646 6.04131 25.6646 10.1363V15.2813" stroke="#143881" stroke-width="2" stroke-linecap="round" stroke-linejoin="round"/>
<path d="M7 19.5869H11.6667" stroke="#143881" stroke-width="2" stroke-miterlimit="10" stroke-linecap="round" stroke-linejoin="round"/>
<path d="M25.6666 21.9196C25.6666 22.7946 25.4216 23.6229 24.9899 24.3229C24.1849 25.6763 22.7033 26.5863 20.9999 26.5863C19.2966 26.5863 17.8149 25.6763 17.0099 24.3229C16.5783 23.6229 16.3333 22.7946 16.3333 21.9196C16.3333 19.3413 18.4216 17.2529 20.9999 17.2529C23.5783 17.2529 25.6666 19.3413 25.6666 21.9196Z" stroke="#143881" stroke-width="2" stroke-miterlimit="10" stroke-linecap="round" stroke-linejoin="round"/>
<path d="M19.1816 21.9197L20.3366 23.0747L22.8216 20.7764" stroke="#143881" stroke-width="2" stroke-linecap="round" stroke-linejoin="round"/>
</svg>
