<svg width="52" height="52" viewBox="0 0 52 52" fill="none" xmlns="http://www.w3.org/2000/svg">
<path d="M4.33301 21.6667H47.6663" stroke="#143881" stroke-width="2" stroke-miterlimit="10" stroke-linecap="round" stroke-linejoin="round"/>
<path d="M25.0209 44.4162H13.9493C6.25764 44.4162 4.30762 42.5095 4.30762 34.9045V17.0945C4.30762 10.2045 5.91101 7.9945 11.956 7.64783C12.5627 7.62617 13.2343 7.60449 13.9493 7.60449H38.0209C45.7126 7.60449 47.6626 9.51116 47.6626 17.1162V26.6712" stroke="#143881" stroke-width="2" stroke-linecap="round" stroke-linejoin="round"/>
<path d="M13 34.6667H21.6667" stroke="#143881" stroke-width="2" stroke-miterlimit="10" stroke-linecap="round" stroke-linejoin="round"/>
<path d="M47.6663 38.9999C47.6663 40.6249 47.2113 42.1632 46.4096 43.4632C44.9146 45.9766 42.163 47.6666 38.9997 47.6666C35.8363 47.6666 33.0847 45.9766 31.5897 43.4632C30.788 42.1632 30.333 40.6249 30.333 38.9999C30.333 34.2116 34.2113 30.3333 38.9997 30.3333C43.788 30.3333 47.6663 34.2116 47.6663 38.9999Z" stroke="#143881" stroke-width="2" stroke-miterlimit="10" stroke-linecap="round" stroke-linejoin="round"/>
<path d="M35.623 38.9991L37.768 41.1441L42.383 36.8757" stroke="#143881" stroke-width="2" stroke-linecap="round" stroke-linejoin="round"/>
</svg>
