<svg width="28" height="28" viewBox="0 0 28 28" fill="none" xmlns="http://www.w3.org/2000/svg">
<path d="M2.33301 19.9033H13.9997" stroke="#143881" stroke-width="1.5" stroke-miterlimit="10" stroke-linecap="round" stroke-linejoin="round"/>
<path d="M4.92297 15.75H11.4097C13.4864 15.75 13.9997 16.2633 13.9997 18.3167V23.1117C13.9997 25.165 13.4864 25.6783 11.4097 25.6783H4.92297C2.84631 25.6783 2.33301 25.165 2.33301 23.1117V18.3167C2.33301 16.2633 2.84631 15.75 4.92297 15.75Z" stroke="#143881" stroke-width="1.5" stroke-linecap="round" stroke-linejoin="round"/>
<path d="M25.6667 17.5C25.6667 22.015 22.015 25.6667 17.5 25.6667L18.725 23.625" stroke="#143881" stroke-width="1.5" stroke-linecap="round" stroke-linejoin="round"/>
<path d="M2.33301 10.5C2.33301 5.98498 5.98467 2.33331 10.4997 2.33331L9.27469 4.37498" stroke="#143881" stroke-width="1.5" stroke-linecap="round" stroke-linejoin="round"/>
<path d="M21.583 12.8333C24.4825 12.8333 26.833 10.4828 26.833 7.58331C26.833 4.68382 24.4825 2.33331 21.583 2.33331C18.6835 2.33331 16.333 4.68382 16.333 7.58331C16.333 10.4828 18.6835 12.8333 21.583 12.8333Z" stroke="#143881" stroke-width="1.5" stroke-linecap="round" stroke-linejoin="round"/>
</svg>
