<svg width="20" height="20" viewBox="0 0 20 20" fill="none" xmlns="http://www.w3.org/2000/svg">
<g clip-path="url(#clip0_2372_1988)">
<path d="M0.976501 20.0001C0.783329 20.0002 0.594485 19.9429 0.433856 19.8356C0.273228 19.7283 0.148032 19.5758 0.0741029 19.3973C0.000174186 19.2188 -0.0191653 19.0225 0.0185306 18.833C0.0562266 18.6435 0.149264 18.4695 0.285876 18.3329L18.3327 0.286066C18.5159 0.102901 18.7643 0 19.0234 0C19.2824 0 19.5308 0.102901 19.714 0.286066C19.8972 0.469231 20.0001 0.717657 20.0001 0.976691C20.0001 1.23573 19.8972 1.48415 19.714 1.66732L1.66713 19.7142C1.57652 19.805 1.46886 19.877 1.35034 19.9261C1.23182 19.9751 1.10478 20.0003 0.976501 20.0001Z" fill="#121212"/>
<path d="M19.0233 20.0001C18.895 20.0003 18.768 19.9751 18.6495 19.9261C18.531 19.877 18.4233 19.805 18.3327 19.7142L0.285822 1.66732C0.102657 1.48415 -0.000244141 1.23573 -0.000244141 0.976691C-0.000244141 0.717657 0.102657 0.469231 0.285822 0.286066C0.468987 0.102901 0.717412 0 0.976447 0C1.23548 0 1.48391 0.102901 1.66707 0.286066L19.7139 18.3329C19.8506 18.4695 19.9436 18.6435 19.9813 18.833C20.019 19.0225 19.9996 19.2188 19.9257 19.3973C19.8518 19.5758 19.7266 19.7283 19.566 19.8356C19.4053 19.9429 19.2165 20.0002 19.0233 20.0001Z" fill="#121212"/>
</g>
<defs>
<clipPath id="clip0_2372_1988">
<rect width="20" height="20" fill="white"/>
</clipPath>
</defs>
</svg>
