<svg width="52" height="52" viewBox="0 0 52 52" fill="none" xmlns="http://www.w3.org/2000/svg">
<path d="M28.4375 21.9375H5.6875C3.4125 21.9375 1.625 20.15 1.625 17.875C1.625 15.6 3.4125 13.8125 5.6875 13.8125C6.09375 13.8125 6.5 13.8938 6.825 13.975C7.39375 12.8375 8.6125 12.1062 9.9125 12.1875C10.6438 9.34375 13.1625 7.3125 16.1687 7.3125C18.9312 7.3125 21.2875 9.01875 22.2625 11.5375C22.6687 11.4562 23.075 11.375 23.4812 11.375C25.2687 11.375 26.8937 12.35 27.7062 13.8938C27.95 13.8938 28.1125 13.8125 28.3563 13.8125C30.6313 13.8125 32.4188 15.6 32.4188 17.875C32.4188 20.15 30.7125 21.9375 28.4375 21.9375ZM5.6875 15.4375C4.30625 15.4375 3.25 16.4937 3.25 17.875C3.25 19.2563 4.30625 20.3125 5.6875 20.3125H28.4375C29.8188 20.3125 30.875 19.2563 30.875 17.875C30.875 16.4937 29.8188 15.4375 28.4375 15.4375C28.1938 15.4375 27.95 15.5188 27.625 15.6L26.8937 15.8438L26.65 15.1125C26 13.4063 23.9688 12.5125 22.1812 13.325L21.2063 13.8125L20.9625 12.8375C20.5562 10.5625 18.525 8.9375 16.25 8.9375C13.7312 8.9375 11.7 10.8062 11.375 13.2437L11.2937 14.3L10.3187 13.8938C9.2625 13.4875 8.2875 14.2188 8.125 15.1938L7.9625 16.4125L6.90625 15.7625C6.5 15.5187 6.09375 15.4375 5.6875 15.4375Z" fill="#143881"/>
<path d="M47.9375 45.5H13.8125C12.4312 45.5 11.375 44.4438 11.375 43.0625V21.125H13V43.0625C13 43.55 13.325 43.875 13.8125 43.875H47.9375C48.425 43.875 48.75 43.55 48.75 43.0625V20.3125C48.75 19.825 48.425 19.5 47.9375 19.5H31.6875V17.875H47.9375C49.3187 17.875 50.375 18.9312 50.375 20.3125V43.0625C50.375 44.4438 49.3187 45.5 47.9375 45.5Z" fill="#143881"/>
<path d="M12.1875 24.375H49.5625V26H12.1875V24.375Z" fill="#143881"/>
<path d="M12.1875 30.875H49.5625V32.5H12.1875V30.875Z" fill="#143881"/>
<path d="M14.625 35.75H29.25V37.375H14.625V35.75Z" fill="#143881"/>
<path d="M14.625 39H26V40.625H14.625V39Z" fill="#143881"/>
<path d="M27.625 39H34.125V40.625H27.625V39Z" fill="#143881"/>
</svg>
