<svg width="28" height="28" viewBox="0 0 28 28" fill="none" xmlns="http://www.w3.org/2000/svg">
<path d="M9.3335 13.3004C9.3335 14.1987 10.0335 14.9337 10.8852 14.9337H12.6352C13.3818 14.9337 13.9885 14.2921 13.9885 13.5104C13.9885 12.6587 13.6152 12.3554 13.0668 12.1571L10.2668 11.1771C9.70683 10.9787 9.3335 10.6754 9.3335 9.82372C9.3335 9.04206 9.94016 8.40039 10.6868 8.40039H12.4368C13.3002 8.41206 14.0002 9.13539 14.0002 10.0337" stroke="#143881" stroke-width="2" stroke-linecap="round" stroke-linejoin="round"/>
<path d="M11.6665 14.9912V15.8545" stroke="#143881" stroke-width="2" stroke-linecap="round" stroke-linejoin="round"/>
<path d="M11.6665 7.47852V8.38852" stroke="#143881" stroke-width="2" stroke-linecap="round" stroke-linejoin="round"/>
<path d="M11.6552 20.9763C16.8034 20.9763 20.9768 16.8029 20.9768 11.6547C20.9768 6.50646 16.8034 2.33301 11.6552 2.33301C6.50695 2.33301 2.3335 6.50646 2.3335 11.6547C2.3335 16.8029 6.50695 20.9763 11.6552 20.9763Z" stroke="#143881" stroke-width="2" stroke-linecap="round" stroke-linejoin="round"/>
<path d="M15.1436 23.1937C16.1936 24.6753 17.9086 25.6437 19.8686 25.6437C23.0536 25.6437 25.6436 23.0537 25.6436 19.8687C25.6436 17.932 24.6869 16.217 23.2286 15.167" stroke="#143881" stroke-width="2" stroke-linecap="round" stroke-linejoin="round"/>
</svg>
