<svg width="53" height="52" viewBox="0 0 53 52" fill="none" xmlns="http://www.w3.org/2000/svg">
<path d="M18 24.7001C18 26.3684 19.3 27.7334 20.8817 27.7334H24.1317C25.5183 27.7334 26.645 26.5418 26.645 25.0901C26.645 23.5084 25.9517 22.9451 24.9333 22.5768L19.7333 20.7568C18.6933 20.3884 18 19.8251 18 18.2434C18 16.7918 19.1267 15.6001 20.5133 15.6001H23.7633C25.3667 15.6218 26.6667 16.9651 26.6667 18.6334" stroke="#143881" stroke-width="2" stroke-linecap="round" stroke-linejoin="round"/>
<path d="M22.332 27.8416V29.4449" stroke="#143881" stroke-width="2" stroke-linecap="round" stroke-linejoin="round"/>
<path d="M22.332 13.8884V15.5784" stroke="#143881" stroke-width="2" stroke-linecap="round" stroke-linejoin="round"/>
<path d="M22.3117 38.9566C31.8726 38.9566 39.6233 31.2059 39.6233 21.6449C39.6233 12.0839 31.8726 4.33325 22.3117 4.33325C12.7507 4.33325 5 12.0839 5 21.6449C5 31.2059 12.7507 38.9566 22.3117 38.9566Z" stroke="#143881" stroke-width="2" stroke-linecap="round" stroke-linejoin="round"/>
<path d="M28.7891 43.0734C30.7391 45.8251 33.9241 47.6234 37.5641 47.6234C43.4791 47.6234 48.2891 42.8134 48.2891 36.8984C48.2891 33.3017 46.5124 30.1167 43.8041 28.1667" stroke="#143881" stroke-width="2" stroke-linecap="round" stroke-linejoin="round"/>
</svg>
