<svg width="52" height="52" viewBox="0 0 52 52" fill="none" xmlns="http://www.w3.org/2000/svg">
<path fill-rule="evenodd" clip-rule="evenodd" d="M36.9695 13.8311H35.686V16.3862H37.8572C39.5245 16.3862 39.5245 13.8311 37.8572 13.8311H36.9695ZM15.2938 40.4249C6.05739 40.4249 -0.636033 31.6323 1.72706 22.7797C4.18611 13.6272 14.766 9.56077 22.707 14.5269C22.5151 9.35685 25.154 4.51072 29.7123 1.88373C36.4057 -1.99078 44.9944 0.312332 48.8689 7.00576C52.7194 13.6752 50.4283 22.2759 43.7709 26.1504C52.5035 31.6923 52.4915 44.7912 43.2671 50.1172C34.1746 55.3592 22.683 49.0376 22.2392 38.5776C20.116 39.7891 17.7169 40.4249 15.2938 40.4249ZM24.1824 15.5825C27.2412 18.0895 29.1245 21.904 29.2805 25.8025C33.2629 23.5234 38.229 23.3675 42.3314 25.3467C48.8449 22.1199 51.304 13.9991 47.6694 7.70149C44.1787 1.66781 36.4417 -0.407391 30.408 3.08327C25.9697 5.63828 23.5467 10.5204 24.1824 15.5825ZM24.1104 37.2941L23.6186 37.678C23.3787 47.4902 34.0666 53.8237 42.5714 48.9176C48.605 45.427 50.6802 37.69 47.2016 31.6563C43.555 25.3467 35.2662 23.4634 29.2565 27.4459C28.9686 31.3444 27.1093 34.871 24.1104 37.2941ZM15.2579 13.7592C5.61356 13.7592 -0.528074 24.3031 4.33006 32.7239C8.30053 39.6092 17.525 41.0607 23.4387 36.0466C28.0209 32.1841 29.3164 25.4547 26.2216 20.0807C23.9665 16.1822 19.7681 13.7592 15.2579 13.7592ZM15.2938 37.3781C11.3713 37.3781 7.72475 35.2789 5.7695 31.8962C1.52314 24.519 6.96904 15.4385 15.2579 15.4385C19.1803 15.4385 22.8269 17.5377 24.7822 20.9204C29.0286 28.2856 23.5707 37.3781 15.2938 37.3781ZM15.2579 16.818C8.02464 16.818 3.25047 24.7589 6.96904 31.2005C9.62002 35.7827 15.5337 37.3301 20.068 34.7031C24.6502 32.0641 26.2216 26.1864 23.5827 21.6161C21.8673 18.6533 18.6885 16.818 15.2579 16.818ZM42.2115 23.4035C41.5877 23.4035 37.3414 21.1123 31.3797 23.0676C30.9958 23.1875 30.588 22.9596 30.492 22.5758C29.7603 19.6729 28.1649 16.9739 25.9817 14.9347C25.8378 14.8028 25.7658 14.6348 25.7538 14.4549C25.5139 8.24128 30.552 3.04728 36.7056 3.04728C40.6281 3.04728 44.2747 5.15847 46.2299 8.54117C49.1808 13.6632 47.5854 20.1527 42.5833 23.3075C42.4634 23.3675 42.3434 23.4035 42.2115 23.4035ZM36.2498 20.9084C38.265 20.9084 40.2323 21.2563 42.1275 21.94C46.2779 19.1211 47.5614 13.6032 45.0304 9.2249C42.3914 4.66666 36.4657 3.09526 31.9314 5.72225C28.9206 7.46158 27.0973 10.6524 27.1333 14.119C29.2325 16.1462 30.8039 18.7372 31.6436 21.5322C33.131 21.1123 34.6784 20.9084 36.2498 20.9084ZM36.2738 48.9416C30.552 48.9416 25.7538 44.4793 25.31 38.8415C25.298 38.6136 25.382 38.4097 25.5499 38.2657C28.3568 35.8307 30.2161 32.46 30.7799 28.7654C30.8159 28.5495 30.9478 28.3695 31.1397 28.2616C36.2978 25.5506 42.8233 27.4099 45.7501 32.484C50.0085 39.8491 44.5506 48.9416 36.2738 48.9416ZM26.7254 39.0694C27.5051 45.9068 35.1342 49.6853 41.0479 46.2787C45.6302 43.6277 47.2016 37.7619 44.5626 33.1797C42.0555 28.8494 36.5617 27.182 32.0874 29.3292C31.4396 33.0837 29.5444 36.5144 26.7254 39.0694ZM15.2698 34.4992C15.0419 34.4992 14.826 34.3792 14.6941 34.1873L9.33213 26.0424L9.22417 25.6586L9.39211 25.2148L14.7421 18.5693C14.994 18.2454 15.5457 18.2454 15.8096 18.5693L21.1836 25.2387C21.3635 25.4787 21.3755 25.8145 21.1956 26.0664L15.8576 34.1873C15.7257 34.3792 15.5098 34.4992 15.2698 34.4992ZM11.9591 27.5179L15.2698 32.5559L18.5926 27.5179C18.0288 27.8058 15.9176 28.9813 15.4978 29.1133C15.3178 29.1732 15.1259 29.1612 14.958 29.0773L11.9591 27.5179ZM10.9875 25.4427L15.2698 27.6738L19.5642 25.4427L15.2698 20.1047L10.9875 25.4427ZM36.2618 43.6996C35.3981 43.6996 35.578 42.6321 35.578 42.0563C34.9903 42.0563 33.8747 42.2362 33.8747 41.3605C33.8747 40.9767 34.1866 40.6648 34.5704 40.6648H37.2694V38.6616H34.5704C34.1866 38.6616 33.8747 38.3497 33.8747 37.9778C33.8747 33.6355 33.5028 33.8874 35.578 33.8874C35.578 33.3116 35.3981 32.244 36.2618 32.244C37.1254 32.244 36.9575 33.3116 36.9575 33.8874C37.5333 33.8874 38.6489 33.7075 38.6489 34.5831C38.6489 34.967 38.349 35.2789 37.9651 35.2789H35.2662V37.2821H37.9651C38.349 37.2821 38.6489 37.594 38.6489 37.9778C38.6489 42.3082 39.0327 42.0563 36.9575 42.0563C36.9575 42.6321 37.1254 43.6996 36.2618 43.6996ZM34.9903 17.7656C34.2466 17.7656 32.9271 18.0055 32.9271 17.0819C32.9271 16.3022 33.7667 16.3862 34.3065 16.3862V9.89665C33.7667 9.89665 32.9271 9.96862 32.9271 9.20091C32.9271 8.27727 34.2466 8.50518 34.9903 8.50518H35.2901C35.2901 7.97738 35.2062 7.13771 35.9739 7.13771C36.7536 7.13771 36.6696 7.97738 36.6696 8.50518H36.9695C39.1767 8.50518 40.3642 11.0482 39.1047 12.7515C41.4678 14.0231 40.6521 17.7656 37.8572 17.7656H36.6696C36.6696 18.3294 36.8136 19.325 35.9739 19.325C35.1462 19.325 35.2901 18.3294 35.2901 17.7656H34.9903ZM35.686 12.4517H36.9935C38.6369 12.4277 38.6249 9.89665 36.9695 9.89665H35.686V12.4517Z" fill="#143881"/>
</svg>
