<svg width="52" height="52" viewBox="0 0 52 52" fill="none" xmlns="http://www.w3.org/2000/svg">
<g clip-path="url(#clip0_2224_3844)">
<path fill-rule="evenodd" clip-rule="evenodd" d="M37.2654 48.5379C31.0494 48.5379 25.9922 43.4806 25.9922 37.2641C25.9922 31.0484 31.0494 25.9912 37.2654 25.9912C43.4813 25.9912 48.5392 31.0484 48.5392 37.2641C48.5392 43.4806 43.4819 48.5379 37.2654 48.5379ZM37.2654 27.2103C31.7209 27.2103 27.2109 31.7203 27.2109 37.2644C27.2109 42.8088 31.7209 47.3188 37.2654 47.3188C42.8098 47.3188 47.3198 42.8088 47.3198 37.2644C47.3198 31.7209 42.8098 27.2103 37.2654 27.2103Z" fill="#27AAE1"/>
<path fill-rule="evenodd" clip-rule="evenodd" d="M39.2731 43.9839C39.2372 43.9839 39.2012 43.9806 39.1647 43.9742C35.9118 43.391 33.5508 40.5696 33.5508 37.2652C33.5508 34.0285 35.8545 31.2171 39.0285 30.5813C39.8167 30.4262 40.0534 31.619 39.268 31.7762C33.2635 32.9789 33.321 41.6908 39.3792 42.7752C40.1062 42.9053 40.0065 43.9839 39.2728 43.9839H39.2731Z" fill="#27AAE1"/>
<path fill-rule="evenodd" clip-rule="evenodd" d="M36.6605 37.874H31.6621C30.8599 37.874 30.8602 36.6553 31.6621 36.6553H36.6608C37.4631 36.6553 37.4631 37.874 36.6602 37.874H36.6605Z" fill="#27AAE1"/>
<path fill-rule="evenodd" clip-rule="evenodd" d="M14.736 25.995C8.52769 25.995 3.47656 20.9439 3.47656 14.7355C3.47656 8.5272 8.52769 3.47607 14.736 3.47607C20.9444 3.47607 25.9955 8.5272 25.9955 14.7355C25.9958 20.9439 20.9447 25.995 14.736 25.995ZM14.736 4.69483C9.19983 4.69483 4.69501 9.19904 4.69501 14.7358C4.69501 20.272 9.19923 24.7766 14.736 24.7766C20.2728 24.7766 24.777 20.2723 24.777 14.7358C24.777 9.19904 20.2728 4.69483 14.736 4.69483Z" fill="#27AAE1"/>
<path fill-rule="evenodd" clip-rule="evenodd" d="M14.7356 23.5059C9.89959 23.5059 5.96484 19.5718 5.96484 14.7351C5.96484 9.8985 9.89959 5.96436 14.7356 5.96436C19.5716 5.96436 23.5061 9.89911 23.5061 14.7351C23.5061 19.5711 19.5719 23.5059 14.7356 23.5059ZM14.7356 7.18372C10.5714 7.18372 7.1836 10.5719 7.1836 14.7357C7.1836 18.8999 10.5714 22.2877 14.7356 22.2877C18.8995 22.2877 22.2876 18.9002 22.2876 14.7357C22.2876 10.5712 18.8998 7.18372 14.7356 7.18372Z" fill="#27AAE1"/>
<path fill-rule="evenodd" clip-rule="evenodd" d="M14.6946 15.3451H12.5898C12.2535 15.3451 11.9805 15.0721 11.9805 14.7357V10.3589C11.9805 10.0225 12.2535 9.74951 12.5898 9.74951H14.6946C16.2376 9.74951 17.4923 11.0048 17.4923 12.5472C17.4923 14.0898 16.237 15.3451 14.6946 15.3451ZM13.1992 14.1264H14.6946C16.7729 14.1264 16.7726 10.9686 14.6946 10.9686H13.1992V14.1264Z" fill="#27AAE1"/>
<path fill-rule="evenodd" clip-rule="evenodd" d="M14.6946 19.7213H12.5898C12.2535 19.7213 11.9805 19.4483 11.9805 19.1119V14.7354C11.9805 14.399 12.2535 14.126 12.5898 14.126H14.6946C16.2376 14.126 17.4923 15.3813 17.4923 16.9236C17.4923 18.466 16.237 19.721 14.6946 19.721V19.7213ZM13.1992 18.5025H14.6946C16.7729 18.5025 16.7723 15.3444 14.6946 15.3447H13.1992V18.5025Z" fill="#27AAE1"/>
<path fill-rule="evenodd" clip-rule="evenodd" d="M14.3358 20.6866C13.5677 20.6866 13.7265 19.7554 13.7265 19.1119C13.7265 18.3097 14.9452 18.3097 14.9452 19.1119C14.9452 19.7545 15.104 20.6866 14.3358 20.6866Z" fill="#27AAE1"/>
<path fill-rule="evenodd" clip-rule="evenodd" d="M14.3358 10.9683C13.5677 10.9683 13.7265 10.0372 13.7265 9.39368C13.7265 8.59143 14.9452 8.59143 14.9452 9.39368C14.9452 10.0363 15.104 10.9683 14.3358 10.9683Z" fill="#27AAE1"/>
<path fill-rule="evenodd" clip-rule="evenodd" d="M14.7363 7.18365C14.4 7.18365 14.127 6.91064 14.127 6.57427V4.08557C14.127 3.28333 15.3457 3.28333 15.3457 4.08557V6.57427C15.3457 6.91064 15.0733 7.18365 14.7363 7.18365Z" fill="#27AAE1"/>
<path fill-rule="evenodd" clip-rule="evenodd" d="M20.5064 9.5742C19.9699 9.5742 19.6899 8.91943 20.0759 8.53399L21.8358 6.77411C22.4028 6.20648 23.2651 7.06875 22.6974 7.63577C22.1179 8.21468 20.9662 9.57451 20.5064 9.57451V9.5742Z" fill="#27AAE1"/>
<path fill-rule="evenodd" clip-rule="evenodd" d="M25.3876 15.3452H22.8986C22.0963 15.3452 22.0963 14.1265 22.8986 14.1265H25.3876C26.1898 14.1265 26.1898 15.3452 25.3876 15.3452Z" fill="#27AAE1"/>
<path fill-rule="evenodd" clip-rule="evenodd" d="M22.2671 22.8757C21.8083 22.8757 20.6541 21.5147 20.0764 20.937C19.5085 20.3694 20.3717 19.508 20.9381 20.0753L22.698 21.8352C23.084 22.2213 22.804 22.8754 22.2671 22.8754V22.8757Z" fill="#27AAE1"/>
<path fill-rule="evenodd" clip-rule="evenodd" d="M14.7363 25.9952C14.4 25.9952 14.127 25.7222 14.127 25.3858V22.8971C14.127 22.0948 15.3457 22.0948 15.3457 22.8971V25.3858C15.3457 25.7222 15.0733 25.9952 14.7363 25.9952Z" fill="#27AAE1"/>
<path fill-rule="evenodd" clip-rule="evenodd" d="M7.2058 22.876C6.66894 22.876 6.38923 22.2212 6.77497 21.8358L8.53485 20.0759C9.10188 19.5082 9.96415 20.3705 9.39651 20.9375C8.81608 21.5174 7.66557 22.8763 7.2058 22.8763V22.876Z" fill="#27AAE1"/>
<path fill-rule="evenodd" clip-rule="evenodd" d="M6.57476 15.3452H4.08606C3.28381 15.3452 3.28381 14.1265 4.08606 14.1265H6.57476C7.3767 14.1265 7.37731 15.3452 6.57476 15.3452Z" fill="#27AAE1"/>
<path fill-rule="evenodd" clip-rule="evenodd" d="M8.9663 9.57449C8.50714 9.57449 7.35358 8.21375 6.77559 7.63576C6.20765 7.06782 7.07114 6.20677 7.63725 6.7741L9.39713 8.53398C9.78317 8.92002 9.50316 9.57419 8.9663 9.57419V9.57449Z" fill="#27AAE1"/>
<path fill-rule="evenodd" clip-rule="evenodd" d="M48.5288 26.6096C48.1924 26.6096 47.9194 26.3363 47.9194 26.0002C47.9194 13.9135 38.0865 4.08057 26.0001 4.08057C25.1979 4.08057 25.1979 2.86182 26.0001 2.86182C38.758 2.86182 49.1388 13.2413 49.1388 25.9999C49.1388 26.3363 48.8652 26.6093 48.5288 26.6093V26.6096Z" fill="#27AAE1"/>
<path fill-rule="evenodd" clip-rule="evenodd" d="M48.5292 26.6096C48.3473 26.6096 48.1748 26.5282 48.059 26.3878L45.1971 22.9186C44.6886 22.3019 45.6288 21.5268 46.1374 22.1429L48.5289 25.0426L50.9198 22.1429C51.4286 21.5262 52.3682 22.3022 51.86 22.918L48.9987 26.3875C48.8835 26.5279 48.7114 26.6093 48.5295 26.6093L48.5292 26.6096Z" fill="#27AAE1"/>
<path fill-rule="evenodd" clip-rule="evenodd" d="M26.0013 49.1382C13.2434 49.1382 2.86328 38.7587 2.86328 26.0001C2.86328 25.1979 4.08204 25.1979 4.08204 26.0001C4.08204 38.0868 13.9149 47.9191 26.0013 47.9191C26.8036 47.9191 26.803 49.1385 26.0013 49.1385V49.1382Z" fill="#27AAE1"/>
<path fill-rule="evenodd" clip-rule="evenodd" d="M6.33386 30.0791C6.15836 30.0791 5.98408 30.0033 5.86342 29.8573L3.47192 26.9576L1.08073 29.8573C0.572201 30.474 -0.368068 29.6983 0.140457 29.0822L3.00179 25.613C3.23305 25.3315 3.71019 25.3315 3.94206 25.613L6.80339 29.0825C7.13489 29.4844 6.83355 30.0791 6.33386 30.0791Z" fill="#27AAE1"/>
</g>
<defs>
<clipPath id="clip0_2224_3844">
<rect width="52" height="52" fill="white"/>
</clipPath>
</defs>
</svg>
