<svg width="52" height="53" viewBox="0 0 52 53" fill="none" xmlns="http://www.w3.org/2000/svg">
<g clip-path="url(#clip0_2372_2266)">
<path d="M47.0639 23.0123C47.0644 23.0072 47.0674 23.003 47.0678 22.9979C47.0683 22.9913 47.0671 22.9848 47.0675 22.9783C47.0676 22.9729 47.069 22.9678 47.0692 22.9625C47.0693 22.9584 47.067 22.9546 47.0671 22.9505C47.1121 22.1375 46.8879 21.3258 46.4097 20.5846L39.503 10.2978C38.7555 9.19274 37.5204 8.53458 36.196 8.53458L21.9749 8.52645L22.9105 8.19626C23.4976 7.99495 23.8666 7.4581 23.8666 6.8542C23.8666 6.23353 23.4976 5.71344 22.9105 5.51213L21.4845 5.0089C20.7631 4.75721 20.1928 4.18678 19.9411 3.46545L19.4379 2.03952C19.2366 1.45238 18.7165 1.08325 18.0958 1.08325C17.4918 1.08325 16.955 1.45238 16.7536 2.03952L16.2504 3.46545C15.9988 4.18679 15.4452 4.75721 14.7238 5.0089L13.281 5.51213C12.7107 5.71344 12.3415 6.23353 12.3415 6.8542C12.3415 7.4581 12.7107 7.99495 13.281 8.19626L14.2509 8.53459H10.8608C9.53634 8.53459 8.30126 9.19275 7.55373 10.2978L0.65523 20.5927C0.177098 21.3259 -0.0394823 22.1374 0.00589579 22.9502C0.00594454 22.9542 0.00376704 22.9577 0.00386454 22.9617C0.00401079 22.967 0.00535141 22.9721 0.00549766 22.9774C0.00594454 22.9842 0.00475016 22.991 0.00519704 22.9979C0.00559516 23.0031 0.00866641 23.0074 0.00916204 23.0126C0.0398095 23.8204 0.316051 24.5927 0.821361 25.2536L20.4037 50.3849C21.1606 51.3596 22.3025 51.9166 23.5369 51.9166C24.7722 51.9166 25.9124 51.358 26.6677 50.3865L46.2566 25.2479C46.7558 24.5931 47.0327 23.8212 47.0639 23.0123ZM23.5877 50.1941C23.5531 50.1948 23.5191 50.1946 23.4845 50.1939L14.8614 23.78H32.1969L23.5877 50.1941ZM17.523 12.4749C17.7017 12.5529 17.8914 12.6084 18.0958 12.6084C18.7165 12.6084 19.2366 12.2393 19.4379 11.6689L19.9411 10.2262C19.9423 10.2228 19.9446 10.2199 19.9458 10.2165H28.8993L32.2384 22.1024H14.8184L17.523 12.4749ZM36.196 10.2165C36.9598 10.2165 37.6748 10.5984 38.1055 11.2322L45.0121 21.5028C45.1336 21.6972 45.2309 21.8998 45.2958 22.1024H33.9854L30.6463 10.2165L36.196 10.2165ZM15.2773 6.58584C16.4853 6.16643 17.4079 5.22697 17.8274 4.01907L18.0958 3.28091L18.3642 4.01907C18.7836 5.22698 19.723 6.16643 20.9308 6.58584L21.669 6.8542L20.9308 7.10588C19.723 7.54196 18.7836 8.46476 18.3642 9.67256L18.0958 10.4275L17.8274 9.67256C17.4079 8.46476 16.4853 7.54196 15.2773 7.10588L14.5225 6.8542L15.2773 6.58584ZM8.94321 11.2403C9.38197 10.5984 10.097 10.2165 10.8608 10.2165H16.2458C16.2469 10.2199 16.2492 10.2228 16.2504 10.2262L16.3376 10.4761L13.0715 22.1024H1.77719C1.84211 21.8999 1.93129 21.7054 2.05284 21.519L8.94321 11.2403ZM2.15004 24.2289C2.04187 24.0872 1.95097 23.9372 1.87971 23.78H13.0974L21.242 48.7303L2.15004 24.2289ZM44.928 24.2232L25.8284 48.7342L33.961 23.78H45.1933C45.1229 23.9356 45.0345 24.0839 44.928 24.2232ZM12.0061 42.9896L10.5633 42.4864C9.84195 42.2348 9.28843 41.6644 9.03674 40.943L8.53347 39.5171C8.33216 38.9467 7.79531 38.5608 7.19141 38.5608C6.5706 38.5608 6.05055 38.9467 5.84925 39.5171L5.34602 40.9598C5.07762 41.6644 4.524 42.2348 3.80266 42.4864L2.37663 42.9896C1.78949 43.1909 1.42047 43.7111 1.42047 44.3318C1.42047 44.9525 1.7895 45.4725 2.37663 45.6738L3.80265 46.1771C4.524 46.4288 5.07761 46.9823 5.34601 47.7205L5.84924 49.1465C6.05055 49.7168 6.57059 50.1028 7.1914 50.1028C7.79531 50.1028 8.33216 49.7168 8.53346 49.1465L9.03674 47.7205C9.28842 46.9823 9.84194 46.4288 10.5633 46.1771L11.9893 45.6738C12.5764 45.4725 12.9456 44.9525 12.9456 44.3318C12.9456 43.7111 12.5765 43.1909 12.0061 42.9896ZM10.0098 44.6002C8.80187 45.0196 7.87918 45.9422 7.443 47.1502L7.19141 47.9051L6.92296 47.1502C6.50355 45.959 5.56409 45.0196 4.35628 44.6002L3.61812 44.3318L4.35628 44.0633C5.56409 43.6439 6.50355 42.7045 6.92296 41.5134L7.19141 40.7585L7.443 41.5134C7.87918 42.7045 8.80188 43.6439 10.0098 44.0633L10.7646 44.3318L10.0098 44.6002ZM51.0438 32.6053L49.6179 32.102C48.8965 31.8337 48.3429 31.28 48.0912 30.5587L47.5711 29.1328C47.3698 28.5456 46.8498 28.1765 46.2291 28.1765C45.6252 28.1765 45.1051 28.5456 44.887 29.1328L44.4006 30.5587C44.1321 31.28 43.5784 31.8337 42.8571 32.102L41.4312 32.6053C40.844 32.8067 40.4749 33.3268 40.4749 33.9475C40.4749 34.5514 40.844 35.0882 41.4312 35.2895L42.8571 35.7928C43.5784 36.0445 44.1321 36.598 44.4006 37.3194L44.887 38.7454C45.1051 39.3325 45.6252 39.7016 46.2291 39.7016C46.8498 39.7016 47.3698 39.3325 47.5711 38.7621L48.0912 37.3194C48.3429 36.598 48.8965 36.0445 49.6179 35.7928L51.0438 35.2895C51.631 35.0882 52 34.5514 52 33.9475C52 33.3268 51.631 32.8067 51.0438 32.6053ZM49.0642 34.1991C47.8564 34.6184 46.9169 35.5579 46.4975 36.7658L46.2291 37.5208L45.9775 36.7658C45.5581 35.5579 44.6187 34.6184 43.4107 34.1991L42.6725 33.9475L43.4107 33.679C44.6187 33.2596 45.5581 32.3201 45.9775 31.1123L46.2291 30.3742L46.4975 31.1123C46.9169 32.3201 47.8564 33.2596 49.0642 33.679L49.8024 33.9475L49.0642 34.1991Z" fill="#143881"/>
</g>
<defs>
<clipPath id="clip0_2372_2266">
<rect width="52" height="52" fill="white" transform="translate(0 0.5)"/>
</clipPath>
</defs>
</svg>
