<svg width="28" height="28" viewBox="0 0 28 28" fill="none" xmlns="http://www.w3.org/2000/svg">
<path d="M19.8333 26.5417C18.5066 26.5417 17.2096 26.1482 16.1064 25.4111C15.0032 24.674 14.1434 23.6263 13.6356 22.4005C13.1279 21.1747 12.9951 19.8259 13.2539 18.5246C13.5127 17.2233 14.1517 16.028 15.0898 15.0898C16.028 14.1517 17.2233 13.5127 18.5246 13.2539C19.8259 12.9951 21.1747 13.1279 22.4005 13.6356C23.6263 14.1434 24.674 15.0032 25.4111 16.1064C26.1482 17.2096 26.5417 18.5066 26.5417 19.8333C26.5395 21.6118 25.832 23.3169 24.5745 24.5745C23.3169 25.832 21.6118 26.5395 19.8333 26.5417ZM19.8333 14.875C18.8527 14.875 17.894 15.1658 17.0786 15.7106C16.2632 16.2555 15.6277 17.0298 15.2524 17.9359C14.8771 18.8419 14.779 19.8388 14.9703 20.8007C15.1616 21.7625 15.6338 22.646 16.3273 23.3394C17.0207 24.0328 17.9042 24.5051 18.866 24.6964C19.8278 24.8877 20.8248 24.7895 21.7308 24.4142C22.6368 24.039 23.4112 23.4034 23.956 22.588C24.5009 21.7726 24.7917 20.814 24.7917 19.8333C24.7901 18.5188 24.2672 17.2585 23.3377 16.329C22.4082 15.3994 21.1479 14.8765 19.8333 14.875Z" fill="#27AAE1"/>
<path d="M18.6666 26.5418H4.66659C3.81587 26.5412 3.00018 26.203 2.39863 25.6014C1.79709 24.9999 1.45887 24.1842 1.45825 23.3335V4.66683C1.45887 3.81612 1.79709 3.00042 2.39863 2.39888C3.00018 1.79733 3.81587 1.45911 4.66659 1.4585H18.6666C19.5173 1.45911 20.333 1.79733 20.9345 2.39888C21.5361 3.00042 21.8743 3.81612 21.8749 4.66683V14.1168C21.8749 14.3489 21.7827 14.5715 21.6186 14.7355C21.4545 14.8996 21.232 14.9918 20.9999 14.9918C20.7679 14.9918 20.5453 14.8996 20.3812 14.7355C20.2171 14.5715 20.1249 14.3489 20.1249 14.1168V4.66683C20.1243 4.28024 19.9705 3.90967 19.6971 3.63631C19.4237 3.36296 19.0532 3.20911 18.6666 3.2085H4.66659C4.28 3.20911 3.90943 3.36296 3.63607 3.63631C3.36271 3.90967 3.20887 4.28024 3.20825 4.66683V23.3335C3.20887 23.7201 3.36271 24.0907 3.63607 24.364C3.90943 24.6374 4.28 24.7912 4.66659 24.7918H18.6666C18.7563 24.7945 18.846 24.7863 18.9338 24.7673C19.0623 24.7394 19.1955 24.7403 19.3237 24.7699C19.4519 24.7996 19.5719 24.8572 19.6752 24.9387C19.7785 25.0203 19.8624 25.1237 19.921 25.2415C19.9796 25.3593 20.0114 25.4886 20.0141 25.6202C20.0153 25.831 19.9399 26.0351 19.8019 26.1945C19.6639 26.354 19.4727 26.4579 19.2639 26.487C19.0672 26.5256 18.867 26.544 18.6666 26.5418Z" fill="#27AAE1"/>
<path d="M15.1667 9.04199H7C6.76794 9.04199 6.54538 8.94981 6.38128 8.78571C6.21719 8.62162 6.125 8.39906 6.125 8.16699C6.125 7.93493 6.21719 7.71237 6.38128 7.54827C6.54538 7.38418 6.76794 7.29199 7 7.29199H15.1667C15.3987 7.29199 15.6213 7.38418 15.7854 7.54827C15.9495 7.71237 16.0417 7.93493 16.0417 8.16699C16.0417 8.39906 15.9495 8.62162 15.7854 8.78571C15.6213 8.94981 15.3987 9.04199 15.1667 9.04199Z" fill="#27AAE1"/>
<path d="M12.8333 13.7085H7C6.76794 13.7085 6.54538 13.6163 6.38128 13.4522C6.21719 13.2881 6.125 13.0656 6.125 12.8335C6.125 12.6014 6.21719 12.3789 6.38128 12.2148C6.54538 12.0507 6.76794 11.9585 7 11.9585H12.8333C13.0654 11.9585 13.288 12.0507 13.4521 12.2148C13.6161 12.3789 13.7083 12.6014 13.7083 12.8335C13.7083 13.0656 13.6161 13.2881 13.4521 13.4522C13.288 13.6163 13.0654 13.7085 12.8333 13.7085Z" fill="#27AAE1"/>
<path d="M19.25 21.8752C19.1351 21.8755 19.0213 21.8529 18.9151 21.8089C18.809 21.7648 18.7126 21.7001 18.6317 21.6185L17.465 20.4518C17.379 20.3717 17.3101 20.2751 17.2623 20.1678C17.2144 20.0605 17.1887 19.9446 17.1867 19.8271C17.1846 19.7096 17.2062 19.5929 17.2502 19.484C17.2942 19.375 17.3597 19.2761 17.4428 19.193C17.5259 19.1099 17.6249 19.0444 17.7338 19.0004C17.8428 18.9564 17.9595 18.9348 18.077 18.9368C18.1944 18.9389 18.3103 18.9646 18.4176 19.0124C18.525 19.0603 18.6216 19.1292 18.7017 19.2152L19.25 19.7623L20.965 18.0485C21.0451 17.9625 21.1417 17.8936 21.2491 17.8458C21.3564 17.7979 21.4723 17.7722 21.5897 17.7702C21.7072 17.7681 21.8239 17.7897 21.9329 17.8337C22.0418 17.8777 22.1408 17.9432 22.2239 18.0263C22.307 18.1094 22.3725 18.2084 22.4165 18.3173C22.4605 18.4263 22.4821 18.543 22.48 18.6605C22.478 18.7779 22.4523 18.8938 22.4044 19.0011C22.3566 19.1085 22.2877 19.2051 22.2017 19.2852L19.8684 21.6185C19.7874 21.7001 19.6911 21.7648 19.5849 21.8089C19.4788 21.8529 19.3649 21.8755 19.25 21.8752Z" fill="#27AAE1"/>
</svg>
