<svg width="28" height="29" viewBox="0 0 28 29" fill="none" xmlns="http://www.w3.org/2000/svg">
<path d="M2.9165 15.6569V13.6386C2.9165 11.2236 4.88816 9.25195 7.30316 9.25195H20.6965C23.1115 9.25195 25.0832 11.2236 25.0832 13.6386V15.3186H22.7265C22.0732 15.3186 21.4782 15.5753 21.0465 16.0186C20.5565 16.4969 20.2765 17.1853 20.3465 17.9203C20.4515 19.1803 21.6065 20.1019 22.8665 20.1019H25.0832V21.4903C25.0832 23.9053 23.1115 25.877 20.6965 25.877H14.3032" stroke="#143881" stroke-width="1.5" stroke-linecap="round" stroke-linejoin="round"/>
<path d="M2.9165 14.6885V9.35687C2.9165 7.96854 3.76817 6.73182 5.06317 6.24182L14.3265 2.74182C15.7732 2.19349 17.3248 3.26685 17.3248 4.81852V9.25184" stroke="#143881" stroke-width="1.5" stroke-linecap="round" stroke-linejoin="round"/>
<path d="M26.3184 16.5083V18.9117C26.3184 19.5534 25.8051 20.0783 25.1518 20.1017H22.8651C21.6051 20.1017 20.4501 19.18 20.3451 17.92C20.2751 17.185 20.5551 16.4967 21.0451 16.0183C21.4768 15.575 22.0718 15.3184 22.7251 15.3184H25.1518C25.8051 15.3417 26.3184 15.8666 26.3184 16.5083Z" stroke="#143881" stroke-width="1.5" stroke-linecap="round" stroke-linejoin="round"/>
<path d="M8.1665 14.21H16.3332" stroke="#143881" stroke-width="1.5" stroke-linecap="round" stroke-linejoin="round"/>
<path d="M3.5 19.46H9.73C10.4767 19.46 11.0833 20.0666 11.0833 20.8133V22.3066" stroke="#143881" stroke-width="1.5" stroke-miterlimit="10" stroke-linecap="round" stroke-linejoin="round"/>
<path d="M4.92333 18.0361L3.5 19.4594L4.92333 20.8827" stroke="#143881" stroke-width="1.5" stroke-miterlimit="10" stroke-linecap="round" stroke-linejoin="round"/>
<path d="M11.0833 25.6201H4.85334C4.10667 25.6201 3.5 25.0134 3.5 24.2667V22.7734" stroke="#143881" stroke-width="1.5" stroke-miterlimit="10" stroke-linecap="round" stroke-linejoin="round"/>
<path d="M9.66162 27.043L11.085 25.6197L9.66162 24.1963" stroke="#143881" stroke-width="1.5" stroke-miterlimit="10" stroke-linecap="round" stroke-linejoin="round"/>
</svg>
