<svg width="52" height="52" viewBox="0 0 52 52" fill="none" xmlns="http://www.w3.org/2000/svg">
<path d="M5.41602 28.6865V24.9382C5.41602 20.4532 9.07767 16.7915 13.5627 16.7915H38.436C42.921 16.7915 46.5827 20.4532 46.5827 24.9382V28.0582H42.206C40.9927 28.0582 39.8877 28.5348 39.086 29.3581C38.176 30.2465 37.656 31.5248 37.786 32.8898C37.981 35.2298 40.126 36.9415 42.466 36.9415H46.5827V39.5198C46.5827 44.0048 42.921 47.6665 38.436 47.6665H26.5627" stroke="#143881" stroke-width="1.5" stroke-linecap="round" stroke-linejoin="round"/>
<path d="M5.41602 26.8883V16.9868C5.41602 14.4084 6.99767 12.1117 9.40267 11.2017L26.606 4.70168C29.2927 3.68334 32.1744 5.67674 32.1744 8.55841V16.7917" stroke="#143881" stroke-width="1.5" stroke-linecap="round" stroke-linejoin="round"/>
<path d="M48.8768 30.2685V34.732C48.8768 35.9236 47.9234 36.8985 46.7101 36.9419H42.4634C40.1234 36.9419 37.9784 35.2302 37.7834 32.8902C37.6534 31.5252 38.1734 30.2469 39.0834 29.3585C39.8851 28.5352 40.9901 28.0586 42.2034 28.0586H46.7101C47.9234 28.1019 48.8768 29.0768 48.8768 30.2685Z" stroke="#143881" stroke-width="1.5" stroke-linecap="round" stroke-linejoin="round"/>
<path d="M15.166 26H30.3327" stroke="#143881" stroke-width="1.5" stroke-linecap="round" stroke-linejoin="round"/>
<path d="M6.5 35.75H18.07C19.4567 35.75 20.5833 36.8766 20.5833 38.2633V41.0367" stroke="#143881" stroke-width="1.5" stroke-miterlimit="10" stroke-linecap="round" stroke-linejoin="round"/>
<path d="M9.14334 33.1069L6.5 35.7502L9.14334 38.3935" stroke="#143881" stroke-width="1.5" stroke-miterlimit="10" stroke-linecap="round" stroke-linejoin="round"/>
<path d="M20.5833 47.1905H9.01334C7.62667 47.1905 6.5 46.0637 6.5 44.6771V41.9038" stroke="#143881" stroke-width="1.5" stroke-miterlimit="10" stroke-linecap="round" stroke-linejoin="round"/>
<path d="M17.9434 49.834L20.5867 47.1908L17.9434 44.5474" stroke="#143881" stroke-width="1.5" stroke-miterlimit="10" stroke-linecap="round" stroke-linejoin="round"/>
</svg>
