<svg width="52" height="52" viewBox="0 0 52 52" fill="none" xmlns="http://www.w3.org/2000/svg">
<g clip-path="url(#clip0_2224_3321)">
<path d="M51.7367 21.2002C51.3925 20.387 50.7523 19.7567 49.9339 19.4252L49.0198 19.0549V14.2256C49.0198 12.4028 47.537 10.92 45.7143 10.92H28.9386L19.3172 7.02233C18.9264 6.86389 18.4816 7.0525 18.3234 7.44311C18.165 7.83372 18.3534 8.27876 18.7441 8.437L24.8733 10.92H8.91898L10.5 7.01705C10.8684 6.10776 11.9079 5.66759 12.817 6.03596L15.9153 7.29107C16.3063 7.44961 16.7511 7.2609 16.9092 6.87029C17.0675 6.47968 16.879 6.03474 16.4884 5.8764L13.3901 4.62129C11.7011 3.93697 9.76966 4.75454 9.08523 6.44383L7.27204 10.9199H6.28576C4.46312 10.9199 2.98031 12.4027 2.98031 14.2254V21.5143L0.243709 28.2699C-0.0878922 29.0882 -0.0808844 29.9867 0.263412 30.7998C0.607608 31.6129 1.24786 32.2432 2.06625 32.5747L2.98041 32.945V37.7744C2.98041 39.5972 4.46322 41.08 6.28587 41.08H9.54267C9.96416 41.08 10.3058 40.7383 10.3058 40.3169C10.3058 39.8954 9.96416 39.5537 9.54267 39.5537H6.28587C5.30487 39.5537 4.50669 38.7556 4.50669 37.7745V24.1347H14.536C12.7741 25.5266 10.4234 27.9345 9.43227 31.4039C9.32248 31.7883 9.5382 32.203 9.91571 32.3343C10.3244 32.4765 10.7813 32.2388 10.9001 31.8232C11.9295 28.2194 14.7125 25.8454 16.2811 24.7499V39.5536H12.5954C12.174 39.5536 11.8323 39.8953 11.8323 40.3168C11.8323 40.7382 12.174 41.0799 12.5954 41.0799H23.0617L30.6448 44.1519C30.7388 44.1899 30.8357 44.2079 30.9311 44.2079C31.2328 44.2079 31.5185 44.0278 31.6387 43.7311C31.797 43.3405 31.6086 42.8954 31.2179 42.7372L27.1269 41.0799H43.0812L41.5001 44.9828C41.1318 45.8921 40.0919 46.3323 39.1831 45.9639L34.0541 43.8862C33.6632 43.7278 33.2184 43.9163 33.0602 44.3069C32.9018 44.6975 33.0902 45.1426 33.481 45.3008L38.6101 47.3786C39.0153 47.5428 39.4343 47.6205 39.847 47.6205C41.154 47.6205 42.3947 46.84 42.9149 45.5561L44.7281 41.08H45.7144C47.5371 41.08 49.0199 39.5972 49.0199 37.7744V30.4856L51.7565 23.7301C52.0879 22.9117 52.0809 22.0133 51.7367 21.2002ZM2.63937 31.1601C2.19889 30.9816 1.85429 30.6423 1.66894 30.2048C1.48369 29.7672 1.47993 29.2836 1.65837 28.8431L2.98031 25.5798V31.2983L2.63937 31.1601ZM9.49087 19.7708C9.36006 19.4631 9.26612 18.9715 9.95542 18.2564C10.2728 17.9271 10.6749 17.7168 11.1391 17.7868C12.0619 17.9259 13.2802 18.9925 14.5698 20.79C15.0178 21.4146 15.4079 22.0348 15.7089 22.5425C12.7841 22.2566 10.0489 21.0838 9.49087 19.7708ZM16.281 20.5678C15.0695 18.7481 13.2515 16.5622 11.3674 16.2776C10.4395 16.1375 9.57131 16.4555 8.85651 17.197C8.30747 17.7664 7.4774 18.9357 8.08606 20.3677C8.46448 21.2582 9.31923 22.0132 10.4309 22.6081H4.50669V14.2254C4.50669 13.2444 5.30487 12.4463 6.28587 12.4463H16.2811V20.5678H16.281ZM47.4934 37.7744C47.4934 38.7555 46.6953 39.5536 45.7143 39.5536H17.8074V24.7499C19.3761 25.8454 22.1591 28.2193 23.1885 31.8232C23.3074 32.2396 23.7638 32.4753 24.1728 32.3343C24.5507 32.2041 24.7659 31.7876 24.6563 31.4039C23.6651 27.9345 21.3145 25.5266 19.5526 24.1347H47.4934V37.7744ZM18.3792 22.5424C18.6773 22.0397 19.0633 21.4259 19.5077 20.8054C20.8012 18.9987 22.0234 17.9267 22.9489 17.7869C23.4134 17.7166 23.8157 17.9272 24.1331 18.2565C24.8224 18.9717 24.7284 19.4633 24.5976 19.7709C24.0396 21.0838 21.304 22.2566 18.3792 22.5424ZM47.4934 22.6082H23.6575C24.7691 22.0132 25.624 21.2582 26.0024 20.3678C26.6111 18.9358 25.781 17.7665 25.2319 17.1971C24.517 16.4554 23.6481 16.1377 22.7209 16.2777C20.8369 16.5623 19.0189 18.7482 17.8073 20.5679V12.4465H45.7142C46.6951 12.4465 47.4933 13.2446 47.4933 14.2257V22.6082H47.4934ZM50.3418 23.157L49.0198 26.4203V20.7018L49.3609 20.8399C49.8012 21.0184 50.1459 21.3577 50.3311 21.7953C50.5164 22.2328 50.5202 22.7165 50.3418 23.157Z" fill="#143881"/>
<path d="M39.0163 35.7425V36.4745C39.0163 36.896 39.3579 37.2377 39.7794 37.2377C40.201 37.2377 40.5426 36.896 40.5426 36.4745V35.7634C41.1178 35.6414 41.512 35.3799 41.7645 35.1422C42.2625 34.6735 42.5599 33.9661 42.5599 33.2498C42.5599 32.6632 42.3772 32.1322 42.0315 31.7141C41.568 31.1537 40.8403 30.8151 39.8685 30.7078C38.9625 30.6079 38.8273 30.141 38.8273 29.8715C38.8273 29.7126 38.8732 28.9194 39.7793 28.9194C40.3629 28.9194 40.6154 29.2675 40.6777 29.3712C40.7922 29.6493 41.0655 29.8453 41.3849 29.8453C41.96 29.8453 42.2917 29.2471 42.0716 28.7434C41.8899 28.3486 41.3897 27.7405 40.5425 27.4986V26.7522C40.5425 26.3307 40.2008 25.989 39.7793 25.989C39.3578 25.989 39.0162 26.3307 39.0162 26.7522V27.4966C38.4966 27.6459 38.0632 27.9533 37.759 28.398C37.3339 29.0192 37.3009 29.683 37.3009 29.8716C37.3009 30.8352 37.9296 32.0296 39.7011 32.2251C41.0335 32.3721 41.0335 33.0098 41.0335 33.2499C41.0335 33.4841 40.9507 33.8122 40.7184 34.0307C40.4973 34.2387 40.1546 34.3304 39.7002 34.3025C38.7372 34.2438 38.5188 33.6439 38.4971 33.5757L38.4968 33.5758C38.4141 33.2428 38.114 32.9956 37.7554 32.9956C37.2306 32.9956 36.856 33.5347 37.0394 34.027C37.1173 34.2713 37.5546 35.4106 39.0163 35.7425Z" fill="#143881"/>
</g>
<defs>
<clipPath id="clip0_2224_3321">
<rect width="52" height="52" fill="white"/>
</clipPath>
</defs>
</svg>
