<svg width="28" height="28" viewBox="0 0 28 28" fill="none" xmlns="http://www.w3.org/2000/svg">
<g clip-path="url(#clip0_2013_4718)">
<path d="M27.643 24.4601L25.2662 22.5934C25.1335 22.4893 24.974 22.4249 24.8062 22.4075C24.6384 22.3902 24.4692 22.4207 24.318 22.4954C24.1615 22.5722 24.0299 22.6916 23.9383 22.8399C23.8467 22.9881 23.7987 23.1592 23.8 23.3335H20.181C22.1549 22.0279 23.6642 20.1303 24.4922 17.9132C25.3202 15.6962 25.4242 13.2737 24.7894 10.9939C24.1545 8.71397 22.8135 6.69394 20.9588 5.22388C19.1041 3.75382 16.8312 2.90939 14.4666 2.81185V2.33352C14.4666 1.96221 14.3191 1.60612 14.0566 1.34357C13.794 1.08102 13.4379 0.933517 13.0666 0.933517H4.19995C4.20146 0.758877 4.15359 0.587365 4.06186 0.438748C3.97013 0.290131 3.83827 0.170457 3.68149 0.0935168C3.52998 0.0186442 3.36035 -0.0117577 3.19227 0.005835C3.02419 0.0234277 2.86454 0.0882945 2.73182 0.192917L0.35742 2.05958C0.246017 2.14822 0.156044 2.26084 0.0942023 2.38907C0.0323608 2.5173 0.000244141 2.65782 0.000244141 2.80018C0.000244141 2.94254 0.0323608 3.08307 0.0942023 3.2113C0.156044 3.33953 0.246017 3.45215 0.35742 3.54078L2.73415 5.40745C2.86695 5.51142 3.0264 5.57578 3.19416 5.59312C3.36192 5.61045 3.53117 5.58007 3.68242 5.50545C3.83885 5.42853 3.9704 5.30902 4.06195 5.16068C4.1535 5.01233 4.20133 4.84117 4.19995 4.66685H7.81802C5.84407 5.97251 4.33471 7.8702 3.50675 10.0873C2.67878 12.3045 2.57481 14.727 3.20977 17.0069C3.84473 19.2869 5.18594 21.3069 7.04077 22.7769C8.8956 24.2469 11.1686 25.0912 13.5333 25.1885V25.6668C13.5333 26.0382 13.6808 26.3942 13.9433 26.6568C14.2059 26.9193 14.562 27.0668 14.9333 27.0668H23.8C23.7985 27.2416 23.8465 27.4132 23.9384 27.5618C24.0303 27.7104 24.1624 27.83 24.3194 27.9068C24.4709 27.9818 24.6406 28.0121 24.8087 27.9943C24.9769 27.9766 25.1365 27.9114 25.269 27.8065L27.6434 25.9398C27.7548 25.8512 27.8448 25.7386 27.9066 25.6104C27.9685 25.4821 28.0006 25.3416 28.0006 25.1992C28.0006 25.0569 27.9685 24.9164 27.9066 24.7881C27.8448 24.6599 27.7548 24.5473 27.6434 24.4586L27.643 24.4601ZM3.73329 3.73352C3.60952 3.73352 3.49082 3.78268 3.4033 3.8702C3.31579 3.95772 3.26662 4.07642 3.26662 4.20018L3.30769 4.67385L0.933287 2.79318L3.26662 0.933517V1.40018C3.26662 1.52395 3.31579 1.64265 3.4033 1.73017C3.49082 1.81768 3.60952 1.86685 3.73329 1.86685H13.0666C13.1904 1.86685 13.3091 1.91602 13.3966 2.00353C13.4841 2.09105 13.5333 2.20975 13.5333 2.33352V2.81185C12.1536 2.86823 10.7965 3.18077 9.53115 3.73352H3.73329ZM3.73329 14.0002C3.73329 11.9696 4.33542 9.98467 5.46353 8.29633C6.59165 6.60798 8.19508 5.29208 10.0711 4.51502C11.9471 3.73796 14.0113 3.53465 16.0029 3.93079C17.9944 4.32693 19.8238 5.30473 21.2596 6.74055C22.6954 8.17637 23.6732 10.0057 24.0694 11.9973C24.4655 13.9888 24.2622 16.0531 23.4851 17.9291C22.7081 19.8051 21.3922 21.4085 19.7038 22.5366C18.0155 23.6647 16.0305 24.2668 14 24.2668C11.278 24.2638 8.66844 23.1811 6.74374 21.2564C4.81903 19.3317 3.73638 16.7221 3.73329 14.0002ZM24.7333 27.0668V26.6002C24.7333 26.4764 24.6841 26.3577 24.5966 26.2702C24.5091 26.1827 24.3904 26.1335 24.2666 26.1335H14.9333C14.8095 26.1335 14.6908 26.0844 14.6033 25.9968C14.5158 25.9093 14.4666 25.7906 14.4666 25.6668V25.1885C15.8463 25.1321 17.2034 24.8196 18.4688 24.2668H24.2666C24.3904 24.2668 24.5091 24.2177 24.5966 24.1302C24.6841 24.0426 24.7333 23.924 24.7333 23.8002L24.6922 23.3265L27.0666 25.2072L24.7333 27.0668Z" fill="#27AAE1"/>
<path d="M13.5897 16.2174C13.7131 16.2936 13.8553 16.334 14.0004 16.334C14.1454 16.334 14.2876 16.2936 14.411 16.2174L18.0846 13.9466C18.2612 13.8369 18.3872 13.6618 18.435 13.4596C18.4829 13.2573 18.4487 13.0443 18.3399 12.8672L14.6663 6.90645C14.5963 6.79267 14.4982 6.69872 14.3816 6.63356C14.2649 6.56839 14.1335 6.53418 13.9999 6.53418C13.8663 6.53418 13.7349 6.56839 13.6183 6.63356C13.5016 6.69872 13.4036 6.79267 13.3335 6.90645L9.65992 12.8662C9.55117 13.0434 9.51698 13.2564 9.56481 13.4586C9.61265 13.6609 9.73862 13.836 9.91518 13.9456L13.5897 16.2174ZM14.4666 12.5573L16.9828 13.5298L14.4666 15.0848V12.5573ZM13.5332 15.0848L11.0179 13.5303L13.5332 12.5573V15.0848ZM17.0524 12.5564L14.4666 11.5568V8.36058L17.0524 12.5564ZM13.5332 8.36058V11.5568L10.947 12.5573L13.5332 8.36058Z" fill="#27AAE1"/>
<path d="M14.7836 21.0712L18.06 16.6346C18.1572 16.5012 18.2051 16.3382 18.1955 16.1735C18.1859 16.0087 18.1194 15.8524 18.0073 15.7312C17.8953 15.61 17.7447 15.5315 17.5812 15.509C17.4177 15.4865 17.2514 15.5215 17.1108 15.6079L14.7112 17.0947C14.4971 17.2227 14.2523 17.2902 14.0028 17.2902C13.7534 17.2902 13.5086 17.2227 13.2944 17.0947L10.892 15.6061C10.7514 15.5196 10.5852 15.4847 10.4217 15.5071C10.2582 15.5296 10.1076 15.6081 9.99551 15.7293C9.88347 15.8505 9.81697 16.0068 9.80736 16.1716C9.79775 16.3364 9.84563 16.4994 9.94283 16.6327L13.2179 21.0693C13.3085 21.1919 13.4266 21.2915 13.5627 21.3601C13.6987 21.4287 13.849 21.4645 14.0014 21.4645C14.1538 21.4645 14.3041 21.4287 14.4402 21.3601C14.5763 21.2915 14.6944 21.1919 14.785 21.0693L14.7836 21.0712ZM15.198 17.8881L16.6264 17.0014L14.4667 19.9288V18.169C14.7249 18.1185 14.9724 18.0235 15.198 17.8881ZM11.3736 17.0014L12.8044 17.8881C13.0293 18.0231 13.276 18.1178 13.5334 18.1681V19.9279L11.3736 17.0014Z" fill="#27AAE1"/>
<path d="M23.3334 13.9998C23.3334 12.1539 22.786 10.3494 21.7605 8.81452C20.7349 7.27966 19.2772 6.08338 17.5718 5.37697C15.8664 4.67055 13.9897 4.48572 12.1792 4.84585C10.3688 5.20597 8.70571 6.09489 7.40042 7.40018C6.09513 8.70547 5.20622 10.3685 4.84609 12.179C4.48596 13.9895 4.67079 15.8661 5.37721 17.5716C6.08363 19.277 7.2799 20.7347 8.81476 21.7602C10.3496 22.7858 12.1541 23.3332 14.0001 23.3332C16.4746 23.3303 18.8469 22.3461 20.5966 20.5964C22.3463 18.8466 23.3306 16.4743 23.3334 13.9998ZM5.60009 13.9998C5.60009 12.3385 6.09274 10.7144 7.01574 9.33305C7.93875 7.95168 9.25065 6.87503 10.7855 6.23925C12.3204 5.60348 14.0094 5.43713 15.6388 5.76125C17.2683 6.08536 18.765 6.88538 19.9398 8.06014C21.1145 9.23491 21.9146 10.7316 22.2387 12.3611C22.5628 13.9905 22.3965 15.6795 21.7607 17.2144C21.1249 18.7493 20.0482 20.0612 18.6669 20.9842C17.2855 21.9072 15.6614 22.3998 14.0001 22.3998C11.7731 22.3972 9.638 21.5114 8.06325 19.9367C6.48851 18.3619 5.60268 16.2269 5.60009 13.9998Z" fill="#27AAE1"/>
</g>
<defs>
<clipPath id="clip0_2013_4718">
<rect width="28" height="28" fill="white"/>
</clipPath>
</defs>
</svg>
