<svg width="21" height="21" viewBox="0 0 21 21" fill="none" xmlns="http://www.w3.org/2000/svg">
<g clip-path="url(#clip0_2025_314)">
<path d="M20.3335 10.8364C20.3335 5.31357 15.8563 0.836426 10.3335 0.836426C4.81064 0.836426 0.333496 5.31357 0.333496 10.8364C0.333496 15.8276 3.99033 19.9647 8.771 20.7149V13.7271H6.23193V10.8364H8.771V8.6333C8.771 6.12705 10.264 4.74268 12.5481 4.74268C13.6419 4.74268 14.7866 4.93799 14.7866 4.93799V7.39893H13.5257C12.2835 7.39893 11.896 8.16982 11.896 8.96143V10.8364H14.6694L14.2261 13.7271H11.896V20.7149C16.6767 19.9647 20.3335 15.8276 20.3335 10.8364Z" fill="#FFFEFF"/>
</g>
<defs>
<clipPath id="clip0_2025_314">
<rect width="20" height="20" fill="white" transform="translate(0.333496 0.836426)"/>
</clipPath>
</defs>
</svg>
