<svg width="40" height="28" viewBox="0 0 40 28" fill="none" xmlns="http://www.w3.org/2000/svg">
<path d="M4.29992 0L9.66658 9.33333C7.09992 9.33333 4.9027 10.2472 3.07492 12.075C1.24714 13.9028 0.333252 16.1 0.333252 18.6667C0.333252 21.2333 1.24714 23.4306 3.07492 25.2583C4.9027 27.0861 7.09992 28 9.66658 28C12.2333 28 14.4305 27.0861 16.2583 25.2583C18.086 23.4306 18.9999 21.2333 18.9999 18.6667C18.9999 17.7722 18.893 16.9458 18.6791 16.1875C18.4652 15.4292 18.1444 14.7 17.7166 14L9.66658 0H4.29992ZM25.2999 0L30.6666 9.33333C28.0999 9.33333 25.9027 10.2472 24.0749 12.075C22.2471 13.9028 21.3333 16.1 21.3333 18.6667C21.3333 21.2333 22.2471 23.4306 24.0749 25.2583C25.9027 27.0861 28.0999 28 30.6666 28C33.2332 28 35.4305 27.0861 37.2583 25.2583C39.086 23.4306 39.9999 21.2333 39.9999 18.6667C39.9999 17.7722 39.893 16.9458 39.6791 16.1875C39.4652 15.4292 39.1444 14.7 38.7166 14L30.6666 0H25.2999ZM9.66658 15.1667C10.6388 15.1667 11.4652 15.5069 12.1458 16.1875C12.8263 16.8681 13.1666 17.6944 13.1666 18.6667C13.1666 19.6389 12.8263 20.4653 12.1458 21.1458C11.4652 21.8264 10.6388 22.1667 9.66658 22.1667C8.69436 22.1667 7.86797 21.8264 7.18742 21.1458C6.50686 20.4653 6.16658 19.6389 6.16658 18.6667C6.16658 17.6944 6.50686 16.8681 7.18742 16.1875C7.86797 15.5069 8.69436 15.1667 9.66658 15.1667ZM30.6666 15.1667C31.6388 15.1667 32.4652 15.5069 33.1458 16.1875C33.8263 16.8681 34.1666 17.6944 34.1666 18.6667C34.1666 19.6389 33.8263 20.4653 33.1458 21.1458C32.4652 21.8264 31.6388 22.1667 30.6666 22.1667C29.6944 22.1667 28.868 21.8264 28.1874 21.1458C27.5069 20.4653 27.1666 19.6389 27.1666 18.6667C27.1666 17.6944 27.5069 16.8681 28.1874 16.1875C28.868 15.5069 29.6944 15.1667 30.6666 15.1667Z" fill="#333333"/>
</svg>
