<svg width="53" height="52" viewBox="0 0 53 52" fill="none" xmlns="http://www.w3.org/2000/svg">
<g clip-path="url(#clip0_2224_3303)">
<path d="M40.0632 30.7109H21.2924L31.6634 24.9312C32.7475 24.3246 33.1391 22.949 32.5357 21.8635L30.9899 19.092C30.3822 18.0063 29.0052 17.6169 27.9218 18.2229L23.6078 20.6267C24.1151 19.6087 24.4308 18.6104 24.5476 17.6409C24.7422 16.0266 24.3759 14.5696 23.4882 13.4273C22.0455 11.5708 19.5265 10.9537 17.3621 11.9264C16.9784 12.0988 16.8071 12.5497 16.9796 12.9335C17.152 13.3171 17.6029 13.4884 17.9867 13.316C19.5078 12.6322 21.2755 13.0625 22.2853 14.3621C23.7354 16.2282 23.1792 19.1471 20.8031 22.1896L19.8832 22.7022L19.2174 21.5095C19.0465 21.2023 18.8246 20.9343 18.5636 20.713C18.7253 19.7443 19.1764 18.4906 19.6751 17.6717C19.8938 17.3123 19.78 16.8437 19.4206 16.625C19.0613 16.4061 18.5927 16.5202 18.3739 16.8794C17.8373 17.7606 17.3722 18.9818 17.1383 20.0623C16.5003 19.9604 15.8525 20.0727 15.2826 20.3905L15.0192 20.5374C14.9147 18.3395 15.2555 16.5 16.0233 15.1733C16.234 14.8092 16.1097 14.3433 15.7456 14.1325C15.3817 13.922 14.9155 14.0461 14.7048 14.4102C13.6859 16.1707 13.2976 18.5066 13.547 21.3581L12.6271 21.8709C8.74053 18.9817 4.93753 18.391 2.38597 20.3052C0.538752 21.6908 -0.157154 24.1428 0.693736 26.268C1.56189 28.4362 3.73269 29.7565 6.7233 30.0353L2.30665 32.4963C1.22318 33.1005 0.832471 34.4752 1.43616 35.5613L2.98163 38.3351C3.39347 39.073 4.16311 39.4895 4.9554 39.4895C5.32651 39.4895 5.7026 39.3981 6.04923 39.2057C6.04953 39.2056 6.04984 39.2054 6.05014 39.2052L11.0274 36.4314V48.8383C11.0274 50.3298 12.2412 51.5433 13.7331 51.5433H39.2064C40.6984 51.5433 41.9123 50.3298 41.9123 48.8383V32.5594C41.9122 31.5401 41.0827 30.7109 40.0632 30.7109ZM14.6783 32.6529L12.421 28.6046L19.2947 24.7743L21.5518 28.8222L18.1148 30.7377C17.9921 30.7706 17.8818 30.8332 17.7919 30.9177L14.6783 32.6529ZM28.6647 19.5531C28.777 19.4903 28.899 19.4604 29.0195 19.4604C29.2763 19.4604 29.526 19.5958 29.6602 19.8352L31.2047 22.6045C31.4006 22.9567 31.2726 23.4041 30.9208 23.6009L22.8826 28.0805L20.6256 24.0326L28.6647 19.5531ZM16.0245 21.7214C16.2288 21.6074 16.4547 21.5495 16.6842 21.5495C16.8109 21.5495 16.9386 21.5672 17.0643 21.6029C17.4178 21.7032 17.7097 21.9331 17.8867 22.2514L18.5522 23.4435L11.6789 27.2735L11.0125 26.0778C10.8813 25.8427 10.8246 25.5789 10.845 25.3146C10.8457 25.3072 10.8466 25.3 10.8471 25.2927C10.8551 25.2084 10.8701 25.1241 10.8939 25.0407C10.9941 24.6883 11.2242 24.397 11.5424 24.2201L16.0245 21.7214ZM2.10799 25.7019C1.51274 24.2151 2.00288 22.4972 3.30013 21.5241C5.16838 20.1228 8.05438 20.5686 11.1554 22.6916L10.8015 22.8888C10.2413 23.2003 9.81049 23.6793 9.55923 24.2596C8.55335 23.9429 7.65006 23.769 6.35605 23.6273C5.93751 23.5818 5.56173 23.8834 5.51592 24.3016C5.47012 24.7198 5.77206 25.0959 6.1902 25.1417C7.6136 25.2975 8.45098 25.4914 9.34097 25.7897C9.38749 26.1473 9.50134 26.496 9.68192 26.8197L10.3484 28.0154L9.51678 28.4788C5.73662 28.8921 2.97199 27.8599 2.10799 25.7019ZM5.30863 37.8746C4.96099 38.067 4.50467 37.9383 4.3121 37.5934L2.76734 34.8208C2.57153 34.4686 2.69777 34.0228 3.04846 33.8273L10.094 29.9013C10.1163 29.8903 10.1379 29.8783 10.1589 29.8652L11.0903 29.3462L13.3476 33.3945L11.4309 34.4627C11.4269 34.4648 11.4229 34.4672 11.4188 34.4694L5.30863 37.8746ZM12.5509 48.8384V35.5825L18.5588 32.2343H22.0711V38.9801C22.0711 39.4008 22.4122 39.7418 22.8328 39.7418C23.2535 39.7418 23.5946 39.4008 23.5946 38.9801V32.2343H29.3449V50.0199H23.5946V42.589C23.5946 42.1684 23.2535 41.8273 22.8328 41.8273C22.4122 41.8273 22.0711 42.1684 22.0711 42.589V50.0199H13.7331C13.0812 50.0199 12.5509 49.4899 12.5509 48.8384ZM40.3887 48.8384C40.3887 49.4899 39.8584 50.0199 39.2064 50.0199H30.8685V32.2343H40.0632C40.2396 32.2343 40.3887 32.3832 40.3887 32.5594V48.8384Z" fill="#143881"/>
<path d="M37.2694 13.6454C37.2796 13.7391 38.2462 23.0529 34.9851 26.5881C34.6998 26.8973 34.7193 27.3792 35.0284 27.6644C35.1749 27.7995 35.36 27.8662 35.5448 27.8662C35.75 27.8662 35.9547 27.7837 36.1049 27.6209C39.8303 23.5824 38.8285 13.8918 38.784 13.4812C38.7387 13.063 38.3631 12.7611 37.9447 12.8059C37.5265 12.8514 37.2241 13.2272 37.2694 13.6454Z" fill="#143881"/>
<path d="M44.2379 12.5133C42.9492 14.4865 42.5398 16.2475 42.523 16.3215C42.4299 16.7312 42.6864 17.1381 43.0959 17.2319C43.1531 17.2449 43.21 17.2512 43.2663 17.2512C43.6131 17.2512 43.9269 17.0123 44.0082 16.6601C44.0119 16.6443 44.3889 15.0507 45.543 13.301C47.0617 10.9987 49.1492 9.5168 51.7475 8.89656C52.1567 8.79896 52.4093 8.38804 52.3116 7.97884C52.214 7.56965 51.8031 7.31716 51.3938 7.41476C48.4285 8.12255 45.954 9.88558 44.2379 12.5133Z" fill="#143881"/>
<path d="M28.6135 8.32887C28.6162 8.34736 28.6196 8.39164 28.6128 8.48101L28.4334 10.6973C28.408 10.9323 28.3576 11.4584 28.787 11.7833C29.2237 12.1138 29.7367 11.9066 29.9635 11.8151L31.9992 10.9667C32.0395 10.9537 32.139 10.9532 32.1757 10.9646L34.2276 11.8182C34.3567 11.8704 34.588 11.9638 34.8456 11.9638C35.0243 11.9638 35.2158 11.9188 35.3943 11.7836C35.8225 11.4595 35.7725 10.9333 35.747 10.6977L35.5709 8.48457C35.564 8.39539 35.5665 8.3501 35.5688 8.32999L37.0477 6.54787C37.2185 6.35389 37.5558 5.96114 37.3969 5.45191C37.2358 4.93526 36.7109 4.80496 36.4866 4.7493L34.2383 4.19162L33.0558 2.21775C32.947 2.03423 32.6581 1.54693 32.0939 1.54541C32.0929 1.54541 32.092 1.54541 32.0912 1.54541C31.5285 1.54541 31.2369 2.03108 31.127 2.2142C31.1269 2.2144 31.1268 2.21461 31.1267 2.21481L29.9533 4.17364L29.9427 4.19172L27.6926 4.74971C27.469 4.80557 26.9451 4.93648 26.7845 5.45303C26.626 5.96216 26.9747 6.36841 27.1331 6.54828L28.6135 8.32887ZM30.3819 5.65229C30.8898 5.52676 31.0731 5.27519 31.2305 5.00646L32.0901 3.57057L32.9577 5.01864C33.1144 5.28179 33.2966 5.52829 33.7977 5.65209L35.4677 6.06626L34.3922 7.3622C34.0387 7.78003 34.0245 8.24325 34.0519 8.60289L34.1748 10.1462L32.7647 9.5596C32.3641 9.3904 31.8234 9.38989 31.419 9.55818L30.0064 10.1468L30.1316 8.60035C30.1564 8.27464 30.1485 7.79242 29.7952 7.36738L28.7133 6.06616L30.3819 5.65229Z" fill="#143881"/>
<path d="M51.9423 24.0599C52.1028 23.8793 52.4521 23.4743 52.2945 22.9649C52.1341 22.4466 51.6074 22.3158 51.3824 22.2599L49.1371 21.703L47.9523 19.7247C47.8424 19.5417 47.5508 19.0559 46.9881 19.0559C46.9871 19.0559 46.9862 19.0559 46.9854 19.0559C46.4232 19.0574 46.1343 19.5414 46.0246 19.7263L44.849 21.684L44.8379 21.703L42.5924 22.2599C42.3676 22.3157 41.8409 22.4465 41.6805 22.9648C41.523 23.4742 41.8722 23.8792 42.0327 24.0597L43.5105 25.8405C43.5128 25.8605 43.5153 25.905 43.5087 25.9914L43.3292 28.2074C43.3053 28.4417 43.2564 28.9722 43.687 29.2956C44.1228 29.6231 44.6335 29.4168 44.8593 29.3255L46.8952 28.477C46.9367 28.4637 47.0384 28.4637 47.0743 28.4749L49.1234 29.3285C49.2524 29.3806 49.4836 29.4741 49.7412 29.4741C49.9193 29.4741 50.11 29.4294 50.2882 29.2955C50.7188 28.9721 50.6699 28.4417 50.646 28.2073L50.4668 25.995C50.46 25.9059 50.4624 25.8606 50.4647 25.8404L51.9423 24.0599ZM49.2881 24.8727C48.9345 25.2904 48.9203 25.7538 48.9477 26.1145L49.0727 27.6572L47.66 27.0686C47.2577 26.901 46.7171 26.9011 46.3149 27.0686L44.9022 27.6572L45.0275 26.1107C45.0547 25.7538 45.0405 25.2904 44.6916 24.8783L43.6116 23.5767L45.2828 23.1622C45.7868 23.0362 45.9692 22.7854 46.1261 22.5176L46.9887 21.0804L47.8183 22.4655L47.8491 22.5176C48.0059 22.7855 48.1884 23.0363 48.6937 23.1625L50.3637 23.5767L49.2881 24.8727Z" fill="#143881"/>
<path d="M44.2092 8.07282C46.3104 8.07282 48.0199 6.36514 48.0199 4.26615C48.0199 2.16554 46.3104 0.456543 44.2092 0.456543C42.1079 0.456543 40.3984 2.16554 40.3984 4.26615C40.3984 6.36514 42.1079 8.07282 44.2092 8.07282ZM44.2092 1.97998C45.4704 1.97998 46.4965 3.00556 46.4965 4.26615C46.4965 5.52512 45.4704 6.54938 44.2092 6.54938C42.948 6.54938 41.922 5.52512 41.922 4.26615C41.9219 3.00556 42.948 1.97998 44.2092 1.97998Z" fill="#143881"/>
</g>
<defs>
<clipPath id="clip0_2224_3303">
<rect width="52" height="52" fill="white" transform="translate(0.333984)"/>
</clipPath>
</defs>
</svg>
