<svg width="24" height="18" viewBox="0 0 24 18" fill="none" xmlns="http://www.w3.org/2000/svg">
<path d="M6 1.79961C6 1.13689 6.53728 0.599609 7.2 0.599609H22.8C23.4627 0.599609 24 1.13689 24 1.79961C24 2.46233 23.4627 2.99961 22.8 2.99961H7.2C6.53728 2.99961 6 2.46228 6 1.79961ZM22.8 7.79961H1.2C0.537281 7.79961 0 8.33694 0 8.99961C0 9.66233 0.537281 10.1996 1.2 10.1996H22.8C23.4627 10.1996 24 9.66233 24 8.99961C24 8.33694 23.4627 7.79961 22.8 7.79961ZM22.8 14.9996H12C11.3373 14.9996 10.8 15.5369 10.8 16.1996C10.8 16.8623 11.3373 17.3996 12 17.3996H22.8C23.4627 17.3996 24 16.8623 24 16.1996C24 15.5369 23.4627 14.9996 22.8 14.9996Z" fill="black"/>
</svg>
