<svg width="53" height="52" viewBox="0 0 53 52" fill="none" xmlns="http://www.w3.org/2000/svg">
<path d="M42.8565 22.2146H37.9961C37.7806 22.2146 37.5739 22.129 37.4216 21.9766C37.2692 21.8243 37.1836 21.6176 37.1836 21.4021V11.2458C37.1836 11.0304 37.2692 10.8237 37.4216 10.6713C37.5739 10.519 37.7806 10.4333 37.9961 10.4333H40.7513C41.4012 10.4339 42.0384 10.6131 42.5932 10.9515C43.148 11.2899 43.599 11.7744 43.8969 12.352C44.1948 12.9296 44.3281 13.578 44.2821 14.2262C44.2362 14.8745 44.0128 15.4976 43.6365 16.0274C44.3782 16.2174 45.025 16.6715 45.4557 17.3046C45.8863 17.9377 46.0711 18.7061 45.9753 19.4657C45.8796 20.2254 45.5099 20.924 44.9357 21.4304C44.3614 21.9368 43.6221 22.2162 42.8565 22.2162V22.2146ZM38.8086 20.5896H42.8565C43.2536 20.5836 43.6326 20.4223 43.9123 20.1404C44.1919 19.8584 44.3501 19.4781 44.3529 19.081C44.3556 18.6838 44.2028 18.3014 43.927 18.0155C43.6513 17.7297 43.2746 17.5632 42.8776 17.5517L38.8086 17.5045V20.5896ZM38.8086 15.8771L40.7302 15.8893H40.7497C41.0045 15.8945 41.2579 15.8489 41.4949 15.755C41.7318 15.6611 41.9477 15.5208 42.1298 15.3424C42.3119 15.164 42.4566 14.9511 42.5553 14.7161C42.6541 14.4811 42.705 14.2287 42.705 13.9738C42.705 13.7189 42.6541 13.4665 42.5553 13.2315C42.4566 12.9965 42.3119 12.7836 42.1298 12.6052C41.9477 12.4268 41.7318 12.2866 41.4949 12.1927C41.2579 12.0988 41.0045 12.0531 40.7497 12.0583H38.8086V15.8771Z" fill="#143881"/>
<path d="M37.9968 12.0566H36.6367C36.4212 12.0566 36.2146 11.971 36.0622 11.8187C35.9098 11.6663 35.8242 11.4596 35.8242 11.2441C35.8242 11.0287 35.9098 10.822 36.0622 10.6696C36.2146 10.5172 36.4212 10.4316 36.6367 10.4316H37.9968C38.2123 10.4316 38.419 10.5172 38.5714 10.6696C38.7237 10.822 38.8093 11.0287 38.8093 11.2441C38.8093 11.4596 38.7237 11.6663 38.5714 11.8187C38.419 11.971 38.2123 12.0566 37.9968 12.0566Z" fill="#143881"/>
<path d="M37.9973 22.2146H36.3008C36.0853 22.2146 35.8786 22.129 35.7263 21.9766C35.5739 21.8243 35.4883 21.6176 35.4883 21.4021C35.4883 21.1866 35.5739 20.9799 35.7263 20.8276C35.8786 20.6752 36.0853 20.5896 36.3008 20.5896H37.9973C38.2128 20.5896 38.4194 20.6752 38.5718 20.8276C38.7242 20.9799 38.8098 21.1866 38.8098 21.4021C38.8098 21.6176 38.7242 21.8243 38.5718 21.9766C38.4194 22.129 38.2128 22.2146 37.9973 22.2146Z" fill="#143881"/>
<path d="M38.5586 12.0567C38.3431 12.0567 38.1364 11.9711 37.9841 11.8188C37.8317 11.6664 37.7461 11.4597 37.7461 11.2442V9.8313C37.7461 9.61581 37.8317 9.40915 37.9841 9.25677C38.1364 9.1044 38.3431 9.0188 38.5586 9.0188C38.7741 9.0188 38.9807 9.1044 39.1331 9.25677C39.2855 9.40915 39.3711 9.61581 39.3711 9.8313V11.2467C39.3704 11.4617 39.2846 11.6678 39.1323 11.8196C38.98 11.9715 38.7737 12.0567 38.5586 12.0567Z" fill="#143881"/>
<path d="M40.7441 12.0566C40.5287 12.0566 40.322 11.971 40.1696 11.8186C40.0172 11.6663 39.9316 11.4596 39.9316 11.2441V9.18848C39.9316 8.97299 40.0172 8.76633 40.1696 8.61395C40.322 8.46158 40.5287 8.37598 40.7441 8.37598C40.9596 8.37598 41.1663 8.46158 41.3187 8.61395C41.471 8.76633 41.5566 8.97299 41.5566 9.18848V11.2441C41.5566 11.4596 41.471 11.6663 41.3187 11.8186C41.1663 11.971 40.9596 12.0566 40.7441 12.0566Z" fill="#143881"/>
<path d="M38.5586 23.5292C38.3431 23.5292 38.1364 23.4436 37.9841 23.2912C37.8317 23.1389 37.7461 22.9322 37.7461 22.7167V21.4021C37.7461 21.1866 37.8317 20.9799 37.9841 20.8276C38.1364 20.6752 38.3431 20.5896 38.5586 20.5896C38.7741 20.5896 38.9807 20.6752 39.1331 20.8276C39.2855 20.9799 39.3711 21.1866 39.3711 21.4021V22.7167C39.3711 22.9322 39.2855 23.1389 39.1331 23.2912C38.9807 23.4436 38.7741 23.5292 38.5586 23.5292Z" fill="#143881"/>
<path d="M40.7441 24.124C40.5287 24.124 40.322 24.0384 40.1696 23.886C40.0172 23.7336 39.9316 23.527 39.9316 23.3115V21.4021C39.9316 21.1866 40.0172 20.9799 40.1696 20.8276C40.322 20.6752 40.5287 20.5896 40.7441 20.5896C40.9596 20.5896 41.1663 20.6752 41.3187 20.8276C41.471 20.9799 41.5566 21.1866 41.5566 21.4021V23.3115C41.5566 23.527 41.471 23.7336 41.3187 23.886C41.1663 24.0384 40.9596 24.124 40.7441 24.124Z" fill="#143881"/>
<path d="M40.7433 27.3593C38.5461 27.3591 36.3983 26.7074 34.5715 25.4866C32.7447 24.2658 31.3209 22.5307 30.4802 20.5007C29.6395 18.4708 29.4196 16.2371 29.8483 14.0821C30.2771 11.9272 31.3352 9.94777 32.8889 8.39418C34.4426 6.8406 36.4221 5.78262 38.5771 5.35403C40.732 4.92544 42.9657 5.14549 44.9956 5.98635C47.0255 6.82722 48.7605 8.25112 49.9812 10.078C51.2019 11.9049 51.8534 14.0528 51.8534 16.2499C51.8502 19.1955 50.6786 22.0194 48.5957 24.1021C46.5128 26.1849 43.6888 27.3562 40.7433 27.3593ZM40.7433 6.76563C38.8675 6.76579 37.0339 7.32217 35.4743 8.36442C33.9147 9.40667 32.6992 10.888 31.9815 12.621C31.2638 14.3541 31.0761 16.261 31.4421 18.1007C31.8082 19.9405 32.7115 21.6303 34.0379 22.9567C35.3644 24.283 37.0543 25.1862 38.8941 25.5521C40.7338 25.918 42.6408 25.7301 44.3738 25.0122C46.1067 24.2944 47.5879 23.0787 48.6301 21.5191C49.6722 19.9594 50.2284 18.1257 50.2284 16.2499C50.2256 13.7353 49.2254 11.3244 47.4471 9.54632C45.6689 7.76825 43.258 6.76821 40.7433 6.76563Z" fill="#143881"/>
<path d="M30.3959 46.7741C28.7381 46.7744 27.0901 46.5201 25.5095 46.0201L15.3435 43.0951C14.6924 42.9096 14.0185 42.8167 13.3415 42.8188H10.4336C10.2181 42.8188 10.0114 42.7332 9.85907 42.5808C9.7067 42.4285 9.62109 42.2218 9.62109 42.0063C9.62109 41.7908 9.7067 41.5842 9.85907 41.4318C10.0114 41.2794 10.2181 41.1938 10.4336 41.1938H13.3415C14.1697 41.1937 14.9938 41.31 15.7896 41.5391L25.9759 44.469C29.3757 45.5489 33.0533 45.3466 36.3142 43.9002L49.449 38.0567C49.756 37.9193 49.9985 37.6692 50.1264 37.3582C50.2543 37.0471 50.2579 36.6988 50.1364 36.3852C50.015 36.0716 49.7777 35.8166 49.4736 35.6728C49.1696 35.5291 48.8219 35.5076 48.5025 35.6127L34.5169 39.5883C34.3096 39.6472 34.0874 39.6214 33.8991 39.5165C33.7109 39.4116 33.572 39.2362 33.5131 39.0289C33.4541 38.8216 33.48 38.5994 33.5849 38.4111C33.6898 38.2229 33.8652 38.084 34.0725 38.0251L48.0239 34.0601C48.7393 33.8325 49.5147 33.8875 50.1908 34.2138C50.867 34.5401 51.3925 35.1129 51.6594 35.8146C51.9264 36.5163 51.9145 37.2935 51.6263 37.9867C51.3381 38.6799 50.7953 39.2365 50.1096 39.542L36.9772 45.3782C34.906 46.3013 32.6634 46.7769 30.3959 46.7741Z" fill="#143881"/>
<path d="M33.5076 39.65H24.2394C24.0239 39.65 23.8173 39.5644 23.6649 39.412C23.5125 39.2596 23.4269 39.0529 23.4269 38.8375C23.4269 38.622 23.5125 38.4153 23.6649 38.2629C23.8173 38.1106 24.0239 38.025 24.2394 38.025H33.5076C34.0119 38.025 34.4955 37.8246 34.852 37.4681C35.2086 37.1115 35.4089 36.628 35.4089 36.1237C35.4089 35.6195 35.2086 35.1359 34.852 34.7793C34.4955 34.4228 34.0119 34.2225 33.5076 34.2225H25.3989C25.0052 34.2214 24.6157 34.1411 24.2536 33.9864C23.8915 33.8318 23.5643 33.6059 23.2912 33.3222C20.0705 29.9731 14.7454 31.3722 14.6917 31.3909C14.6255 31.4089 14.5573 31.4185 14.4886 31.4193L10.4432 31.4713H10.4326C10.2171 31.4726 10.01 31.3883 9.85667 31.2368C9.70338 31.0853 9.61654 30.8792 9.61525 30.6637C9.61396 30.4482 9.69832 30.241 9.84978 30.0878C10.0012 29.9345 10.2074 29.8476 10.4229 29.8463L14.3708 29.796C15.2369 29.5847 20.8123 28.4009 24.4629 32.1961C24.584 32.3223 24.7293 32.4228 24.8901 32.4918C25.0509 32.5607 25.2239 32.5967 25.3989 32.5975H33.5076C34.4428 32.5975 35.3398 32.969 36.0011 33.6303C36.6624 34.2916 37.0339 35.1885 37.0339 36.1237C37.0339 37.0589 36.6624 37.9558 36.0011 38.6171C35.3398 39.2784 34.4428 39.65 33.5076 39.65Z" fill="#143881"/>
<path d="M10.4331 46.8594H2.29102C2.07553 46.8594 1.86886 46.7738 1.71649 46.6214C1.56412 46.469 1.47852 46.2623 1.47852 46.0469V26.6882C1.47852 26.4727 1.56412 26.2661 1.71649 26.1137C1.86886 25.9613 2.07553 25.8757 2.29102 25.8757H10.4331C10.6486 25.8757 10.8552 25.9613 11.0076 26.1137C11.16 26.2661 11.2456 26.4727 11.2456 26.6882V46.0469C11.2456 46.2623 11.16 46.469 11.0076 46.6214C10.8552 46.7738 10.6486 46.8594 10.4331 46.8594ZM3.10352 45.2344H9.62058V27.5007H3.10352V45.2344Z" fill="#143881"/>
</svg>
