<svg width="16" height="15" viewBox="0 0 16 15" fill="none" xmlns="http://www.w3.org/2000/svg">
<path d="M12.627 8.36817H1.25C1.03717 8.36817 0.859 8.29634 0.7155 8.15267C0.571833 8.00917 0.5 7.831 0.5 7.61817C0.5 7.40534 0.571833 7.22717 0.7155 7.08367C0.859 6.94 1.03717 6.86817 1.25 6.86817H12.627L7.45775 1.69892C7.30908 1.55025 7.23567 1.37625 7.2375 1.17692C7.2395 0.977587 7.318 0.800338 7.473 0.645172C7.62817 0.500338 7.80383 0.425338 8 0.420172C8.19617 0.415005 8.37183 0.490005 8.527 0.645172L14.8673 6.98542C14.9609 7.07909 15.0269 7.17784 15.0652 7.28167C15.1037 7.3855 15.123 7.49767 15.123 7.61817C15.123 7.73867 15.1037 7.85084 15.0652 7.95467C15.0269 8.0585 14.9609 8.15725 14.8673 8.25092L8.527 14.5912C8.3885 14.7297 8.217 14.8005 8.0125 14.8037C7.808 14.8068 7.62817 14.736 7.473 14.5912C7.318 14.436 7.2405 14.2578 7.2405 14.0567C7.2405 13.8553 7.318 13.6771 7.473 13.5219L12.627 8.36817Z" fill="#F7F8FA"/>
</svg>
