<svg width="22" height="22" viewBox="0 0 22 22" fill="none" xmlns="http://www.w3.org/2000/svg">
<path d="M11.9875 0.419922C13.1593 0.423047 13.7541 0.429297 14.2676 0.44388L14.4697 0.451171C14.703 0.459504 14.9332 0.469921 15.2113 0.48242C16.3196 0.534502 17.0758 0.709499 17.7393 0.966784C18.4268 1.23136 19.0059 1.58969 19.585 2.1678C20.1147 2.68851 20.5245 3.31838 20.786 4.01359C21.0433 4.67711 21.2183 5.43335 21.2704 6.5427C21.2829 6.81977 21.2933 7.04998 21.3016 7.28434L21.3079 7.48642C21.3235 7.99891 21.3297 8.59369 21.3318 9.76554L21.3329 10.5426V11.9072C21.3354 12.6669 21.3274 13.4267 21.3089 14.1863L21.3027 14.3883C21.2943 14.6227 21.2839 14.8529 21.2714 15.13C21.2193 16.2393 21.0423 16.9945 20.786 17.6591C20.5253 18.3547 20.1153 18.9847 19.585 19.5049C19.0642 20.0344 18.4344 20.4442 17.7393 20.7059C17.0758 20.9632 16.3196 21.1382 15.2113 21.1903C14.9641 21.2019 14.7169 21.2123 14.4697 21.2215L14.2676 21.2278C13.7541 21.2424 13.1593 21.2496 11.9875 21.2517L11.2105 21.2528H9.847C9.08689 21.2554 8.32679 21.2474 7.56691 21.2288L7.36483 21.2226C7.11756 21.2132 6.87035 21.2024 6.6232 21.1903C5.51493 21.1382 4.75872 20.9632 4.09417 20.7059C3.39907 20.4448 2.76946 20.0349 2.24947 19.5049C1.71934 18.9844 1.30913 18.3545 1.04745 17.6591C0.79017 16.9956 0.615178 16.2393 0.563098 15.13C0.551493 14.8828 0.541077 14.6356 0.531849 14.3883L0.526641 14.1863C0.507447 13.4267 0.498766 12.6669 0.500601 11.9072V9.76554C0.497694 9.00576 0.505333 8.24599 0.523517 7.48642L0.530808 7.28434C0.539141 7.04998 0.549557 6.81977 0.562056 6.5427C0.614137 5.43335 0.789128 4.67816 1.04641 4.01359C1.30797 3.31767 1.719 2.6876 2.25051 2.1678C2.77037 1.6381 3.39956 1.22822 4.09417 0.966784C4.75872 0.709499 5.51389 0.534502 6.6232 0.48242C6.90027 0.469921 7.13151 0.459504 7.36483 0.451171L7.56691 0.444921C8.32644 0.426414 9.0862 0.418427 9.84595 0.420963L11.9875 0.419922ZM10.9167 5.62813C9.53547 5.62813 8.21078 6.17685 7.23407 7.15358C6.25737 8.13031 5.70867 9.45504 5.70867 10.8363C5.70867 12.2176 6.25737 13.5424 7.23407 14.5191C8.21078 15.4958 9.53547 16.0446 10.9167 16.0446C12.298 16.0446 13.6227 15.4958 14.5994 14.5191C15.5761 13.5424 16.1248 12.2176 16.1248 10.8363C16.1248 9.45504 15.5761 8.13031 14.5994 7.15358C13.6227 6.17685 12.298 5.62813 10.9167 5.62813ZM10.9167 7.71142C11.3271 7.71135 11.7334 7.79211 12.1126 7.94909C12.4917 8.10607 12.8363 8.33619 13.1265 8.62632C13.4167 8.91645 13.6469 9.2609 13.804 9.64001C13.9611 10.0191 14.042 10.4255 14.0421 10.8358C14.0422 11.2462 13.9614 11.6526 13.8044 12.0317C13.6475 12.4109 13.4173 12.7554 13.1272 13.0456C12.8371 13.3359 12.4927 13.5661 12.1136 13.7232C11.7345 13.8803 11.3281 13.9612 10.9178 13.9613C10.089 13.9613 9.2942 13.632 8.70818 13.046C8.12216 12.46 7.79294 11.6651 7.79294 10.8363C7.79294 10.0076 8.12216 9.21272 8.70818 8.62669C9.2942 8.04065 10.089 7.71142 10.9178 7.71142M16.3862 4.06567C16.0409 4.06567 15.7098 4.20285 15.4656 4.44703C15.2214 4.69121 15.0842 5.0224 15.0842 5.36772C15.0842 5.71305 15.2214 6.04423 15.4656 6.28841C15.7098 6.5326 16.0409 6.66978 16.3862 6.66978C16.7316 6.66978 17.0627 6.5326 17.3069 6.28841C17.5511 6.04423 17.6883 5.71305 17.6883 5.36772C17.6883 5.0224 17.5511 4.69121 17.3069 4.44703C17.0627 4.20285 16.7316 4.06567 16.3862 4.06567Z" fill="#FFFEFF"/>
</svg>
