<svg width="28" height="28" viewBox="0 0 28 28" fill="none" xmlns="http://www.w3.org/2000/svg">
<path d="M23.0881 17.418C20.6848 19.8097 17.2431 20.5447 14.2214 19.5997L8.72643 25.083C8.32976 25.4914 7.5481 25.7364 6.9881 25.6547L4.44476 25.3047C3.60476 25.188 2.8231 24.3947 2.69476 23.5547L2.34476 21.0114C2.2631 20.4514 2.53143 19.6697 2.91643 19.273L8.39976 13.7897C7.46643 10.7564 8.18976 7.31471 10.5931 4.92305C14.0348 1.48138 19.6231 1.48138 23.0764 4.92305C26.5298 8.36471 26.5298 13.9764 23.0881 17.418Z" stroke="#143881" stroke-width="2" stroke-miterlimit="10" stroke-linecap="round" stroke-linejoin="round"/>
<path d="M8.03857 20.4053L10.7219 23.0886" stroke="#143881" stroke-width="2" stroke-miterlimit="10" stroke-linecap="round" stroke-linejoin="round"/>
<path d="M16.9165 12.833C17.883 12.833 18.6665 12.0495 18.6665 11.083C18.6665 10.1165 17.883 9.33301 16.9165 9.33301C15.95 9.33301 15.1665 10.1165 15.1665 11.083C15.1665 12.0495 15.95 12.833 16.9165 12.833Z" stroke="#143881" stroke-width="2" stroke-linecap="round" stroke-linejoin="round"/>
</svg>
