<svg width="53" height="52" viewBox="0 0 53 52" fill="none" xmlns="http://www.w3.org/2000/svg">
<path d="M43.5448 32.3484C39.0814 36.79 32.6897 38.155 27.0781 36.4L16.8731 46.5834C16.1364 47.3417 14.6847 47.7967 13.6447 47.645L8.92141 46.995C7.36141 46.7784 5.90975 45.305 5.67141 43.745L5.02141 39.0217C4.86975 37.9817 5.36808 36.53 6.08308 35.7934L16.2664 25.61C14.5331 19.9767 15.8764 13.585 20.3397 9.14336C26.7314 2.75169 37.1098 2.75169 43.5231 9.14336C49.9364 15.535 49.9364 25.9567 43.5448 32.3484Z" stroke="#143881" stroke-width="2" stroke-miterlimit="10" stroke-linecap="round" stroke-linejoin="round"/>
<path d="M15.5938 37.895L20.5771 42.8784" stroke="#143881" stroke-width="2" stroke-miterlimit="10" stroke-linecap="round" stroke-linejoin="round"/>
<path d="M32.082 23.8333C33.877 23.8333 35.332 22.3782 35.332 20.5833C35.332 18.7883 33.877 17.3333 32.082 17.3333C30.2871 17.3333 28.832 18.7883 28.832 20.5833C28.832 22.3782 30.2871 23.8333 32.082 23.8333Z" stroke="#143881" stroke-width="2" stroke-linecap="round" stroke-linejoin="round"/>
</svg>
