<svg width="21" height="21" viewBox="0 0 21 21" fill="none" xmlns="http://www.w3.org/2000/svg">
<g clip-path="url(#clip0_2025_312)">
<path d="M19.0195 0.836426H1.97656C1.16016 0.836426 0.5 1.48096 0.5 2.27783V19.3911C0.5 20.188 1.16016 20.8364 1.97656 20.8364H19.0195C19.8359 20.8364 20.5 20.188 20.5 19.395V2.27783C20.5 1.48096 19.8359 0.836426 19.0195 0.836426ZM6.43359 17.8794H3.46484V8.33252H6.43359V17.8794ZM4.94922 7.03174C3.99609 7.03174 3.22656 6.26221 3.22656 5.31299C3.22656 4.36377 3.99609 3.59424 4.94922 3.59424C5.89844 3.59424 6.66797 4.36377 6.66797 5.31299C6.66797 6.2583 5.89844 7.03174 4.94922 7.03174ZM17.543 17.8794H14.5781V13.2388C14.5781 12.1333 14.5586 10.7075 13.0352 10.7075C11.4922 10.7075 11.2578 11.9146 11.2578 13.1606V17.8794H8.29688V8.33252H11.1406V9.63721H11.1797C11.5742 8.88721 12.543 8.09424 13.9844 8.09424C16.9883 8.09424 17.543 10.0708 17.543 12.6411V17.8794Z" fill="#FFFEFF"/>
</g>
<defs>
<clipPath id="clip0_2025_312">
<rect width="20" height="20" fill="white" transform="translate(0.5 0.836426)"/>
</clipPath>
</defs>
</svg>
