<svg width="52" height="52" viewBox="0 0 52 52" fill="none" xmlns="http://www.w3.org/2000/svg">
<path d="M43.2912 28.4691L44.2686 28.4226C44.5217 28.4105 44.7571 28.3024 44.9313 28.1179L45.9574 27.0315C46.2375 26.7349 46.3032 26.2904 46.1207 25.9254L45.4028 24.5045L46.9967 23.5237C47.2024 23.3971 47.3531 23.1997 47.4213 22.9682L48.0668 20.7738C48.206 20.3001 47.9688 19.7964 47.5151 19.6019L46.547 19.1932L46.6759 18.4437L47.7827 17.9777C48.047 17.8666 48.2481 17.646 48.3345 17.3723L48.4904 16.8791L49.7642 18.3846C49.9504 18.6047 50.2203 18.7309 50.5046 18.7309C51.0449 18.7309 51.4846 18.2929 51.4846 17.7543L51.4844 16.0349L51.4449 14.174C51.4186 12.9356 50.3909 11.9281 49.154 11.9281C49.0622 11.9281 48.9692 11.9336 48.8776 11.9447L39.3633 13.0864L39.4286 12.9092C39.5362 12.617 39.4971 12.288 39.3239 12.0293C39.1508 11.7706 38.8615 11.6089 38.5506 11.597L37.3406 11.5504C37.0212 11.5393 36.7133 11.6857 36.5225 11.9399L33.5515 15.9027L30.9313 17.2162L28.7714 16.1034C28.6338 16.0326 28.4795 15.9951 28.3249 15.9951C28.0562 15.9951 27.7966 16.1075 27.613 16.3035L25.6101 18.4399C25.356 18.711 25.2778 19.096 25.4064 19.4446L25.768 20.4133L24.4858 21.6281L23.2638 22.3357C22.9148 22.5378 22.728 22.9261 22.7879 23.3249L22.89 24.0054C22.961 24.4792 23.376 24.8368 23.855 24.8366C23.9933 24.8366 24.1279 24.8076 24.2552 24.7504L25.2998 24.2802L26.6027 23.728L27.937 24.662C28.0502 24.7414 28.1764 24.7949 28.3114 24.8208L30.3514 25.2097V25.7139L26.1302 25.0808C25.9602 25.0547 25.7863 25.075 25.6268 25.138L22.8742 26.2245C22.5724 26.3437 22.3504 26.6038 22.2801 26.9205L21.742 29.3424C21.6657 29.6853 21.7805 30.0444 22.0416 30.2792L23.3102 31.4211C23.5148 31.6052 23.7886 31.6941 24.0624 31.6663L26.5119 31.4072L26.5824 35.0734C26.5842 35.1633 26.5983 35.2522 26.6242 35.3377L27.071 36.8121C27.3452 37.7174 28.1651 38.3256 29.111 38.3256C29.9085 38.3256 30.6328 37.8864 31.0014 37.1793L34.3854 30.6875C34.5869 30.301 34.5055 29.8228 34.1875 29.5246L33.7466 29.1113L34.4327 28.8827C34.7557 28.7749 34.9954 28.5126 35.0735 28.1812C35.1518 27.8498 35.0547 27.508 34.8139 27.2673L33.8069 26.27L33.8737 26.1855L35.9814 27.5445L37.6792 29.9969C37.8614 30.2602 38.161 30.4173 38.4807 30.4173C38.8479 30.4173 39.1805 30.2147 39.3486 29.8884L40.1053 28.4011L41.804 29.6081C41.9713 29.727 42.1662 29.7899 42.3673 29.7899C42.6569 29.7898 42.9307 29.6618 43.1185 29.4384C43.3026 29.2196 43.3797 28.9306 43.3302 28.6456L43.2912 28.4691ZM30.1296 36.7244C29.9309 37.1055 29.5406 37.3422 29.1108 37.3422C28.601 37.3422 28.1592 37.0144 28.0114 36.5265L27.565 35.0542L27.4945 31.3878C27.4893 31.1158 27.3695 30.8564 27.1658 30.676C26.9622 30.4957 26.6903 30.409 26.4195 30.4359L23.9676 30.6899L22.7013 29.5552L23.235 27.1383L25.9838 26.0523L30.5705 26.7403L32.4002 29.1214C32.4421 29.1773 33.5136 30.2326 33.5136 30.2326L30.1296 36.7244ZM42.5295 27.8518C42.3547 28.07 42.2818 28.3533 42.3297 28.6289L42.3586 28.7958L40.6747 27.5993C40.5086 27.4814 40.3135 27.4189 40.1104 27.4189C39.743 27.4189 39.4104 27.6215 39.2424 27.9479L38.4829 29.4302L36.7898 26.9845C36.7165 26.8788 36.6246 26.7899 36.5164 26.7201L34.4067 25.3589C34.2487 25.257 34.0659 25.203 33.8779 25.203C33.5994 25.203 33.3336 25.3225 33.1486 25.5305L33.0722 25.6164C32.7295 26.0019 32.7468 26.5896 33.1115 26.9544L34.1104 27.9534L32.9924 28.3312L31.3341 26.1227V25.2091C31.3341 24.7428 31.0018 24.34 30.5439 24.2512L28.5008 23.8563L27.1662 22.9221C26.8944 22.7318 26.5341 22.6932 26.228 22.8221L24.9071 23.3785L23.8619 23.859L23.7562 23.1858L24.9773 22.4787C25.043 22.4409 25.1045 22.395 25.1604 22.3422L26.4437 21.1264C26.7274 20.8578 26.8234 20.4473 26.6883 20.0807L26.327 19.1116L28.3213 16.9767L30.4811 18.0895C30.6186 18.1603 30.7731 18.1978 30.9278 18.1978C31.0784 18.1978 31.2292 18.1621 31.3641 18.0948L33.9916 16.7811C34.1261 16.7135 34.2448 16.6145 34.3351 16.4942L37.3027 12.5325L38.5061 12.5693L38.4367 12.7577C38.3265 13.0569 38.3693 13.3913 38.5514 13.6525C38.7564 13.9463 39.1013 14.1077 39.4683 14.0636L48.9945 12.9205C49.0475 12.9141 49.1012 12.9109 49.1539 12.9109C49.8601 12.9109 50.4469 13.4869 50.4621 14.1947L50.5015 16.0454L50.5013 17.7342L49.232 16.2341C49.0463 16.0144 48.7755 15.8883 48.4892 15.8883C48.0604 15.8883 47.6857 16.1623 47.557 16.5704L47.4013 17.0717L46.2944 17.5377C45.9876 17.667 45.77 17.9396 45.7123 18.2673L45.5789 19.0222C45.4998 19.4704 45.7368 19.9089 46.1554 20.0886L47.1236 20.4964L46.4813 22.6866L44.8874 23.6674C44.4536 23.9343 44.2984 24.4791 44.5262 24.9346L45.2427 26.3566L44.2215 27.4408L43.2441 27.4873C42.9649 27.5006 42.7045 27.6336 42.5295 27.8518Z" fill="#27AAE1"/>
<path d="M51.8877 36.406L50.7427 34.2305C50.5735 33.9091 50.2425 33.7094 49.8789 33.7094C49.5559 33.7094 49.2556 33.8683 49.0732 34.1355L48.7744 33.762C48.5882 33.5293 48.3105 33.396 48.0123 33.396C47.8358 33.396 47.6623 33.444 47.5107 33.5351L44.8021 35.1602C44.5435 35.3152 44.3688 35.5866 44.3345 35.886L44.1039 37.904C44.0725 38.18 44.1603 38.4569 44.345 38.6639C44.5571 38.9017 44.8709 39.0228 45.1943 38.9826L47.4882 38.6906L47.8516 39.5537C48.0042 39.9164 48.3571 40.1507 48.7505 40.1507H48.7506C48.8065 40.1507 48.8628 40.1458 48.918 40.1362L50.1774 39.9173C50.4863 39.8638 50.7521 39.6632 50.8888 39.381L51.9028 37.2854C52.0369 37.0078 52.0313 36.679 51.8877 36.406ZM50.009 38.9489L48.7552 39.1668L48.3941 38.309C48.2414 37.9464 47.8885 37.7121 47.4951 37.7121C47.455 37.7121 47.4145 37.7145 47.3739 37.7197L45.0806 38.0154L45.3078 36.003L48.0071 34.376L48.3121 34.7574C48.4983 34.9901 48.7758 35.1234 49.0737 35.1234C49.3964 35.1234 49.696 34.9654 49.8788 34.6991L51.018 36.8572L50.009 38.9489Z" fill="#27AAE1"/>
<path d="M18.8564 32.5612L14.2245 29.5603C13.9705 29.3958 13.6766 29.3088 13.3748 29.3088C12.8875 29.3088 12.4351 29.5354 12.1398 29.9166L11.101 29.3351L9.24568 26.694H10.192C10.4176 26.694 10.6376 26.6151 10.8116 26.4719L14.3302 23.5788L16.2884 22.4691C16.5268 22.3339 16.6983 22.1033 16.7589 21.8362C16.8196 21.5689 16.7644 21.2868 16.6076 21.062L14.8739 18.5767C14.6857 18.3073 14.3754 18.1506 14.0491 18.1596C13.7206 18.1678 13.4206 18.3392 13.2465 18.6178L12.3529 20.0654L11.3283 18.9131L13.3646 17.4158C13.7415 17.1385 13.8686 16.6309 13.6667 16.209L13.1647 15.1591C13.0476 14.9143 12.8318 14.7279 12.5727 14.6478C12.3134 14.5676 12.0302 14.5998 11.7958 14.7357L10.9082 15.2529L6.89707 13.5558L4.01608 11.9308C3.66665 11.7338 3.22445 11.7732 2.91556 12.0285L1.38967 13.289C1.25562 13.3997 1.1534 13.5446 1.09418 13.7078L0.0585272 16.5559C-0.0484901 16.85 -0.00708388 17.18 0.169108 17.4387C0.345422 17.6974 0.637355 17.8565 0.950298 17.8647L3.14839 17.9166L4.54355 21.3659L4.31575 24.782C4.30199 24.9889 4.35593 25.199 4.46786 25.3735L6.34368 28.2996C6.45659 28.4759 6.61988 28.6088 6.8161 28.6843L10.4243 30.0653C10.457 30.0965 10.4934 30.1224 10.532 30.1431L11.5869 30.7337L11.0204 31.5835C10.8181 31.8868 10.8014 32.2739 10.9768 32.5937L12.164 34.7566L12.0092 40.0215C12.0026 40.2468 12.0748 40.4691 12.2129 40.6476L13.1707 41.8845C13.3574 42.1257 13.6367 42.2641 13.9372 42.2641C14.2023 42.2641 14.46 42.1557 14.6445 41.9669C14.8269 41.78 14.9239 41.5304 14.9175 41.2642L14.8735 39.5158L18.4712 36.0712C18.6004 35.9473 18.6931 35.7907 18.739 35.6179L19.2687 33.6317C19.3778 33.222 19.2122 32.792 18.8564 32.5612ZM7.17131 27.7692L5.2966 24.8474L5.5244 21.4313C5.53411 21.2852 5.51027 21.1364 5.45547 21.0008L4.0597 17.548C3.91386 17.1876 3.5686 16.9484 3.18022 16.9384L0.985683 16.8822L2.01556 14.0469L3.53321 12.7871L6.4142 14.4123C6.44676 14.4306 6.48031 14.447 6.51336 14.4609L10.5253 16.1583C10.8056 16.2768 11.1303 16.2564 11.394 16.1042L12.2779 15.5833L12.7823 16.6241L10.7459 18.1214C10.526 18.2831 10.3831 18.5314 10.3538 18.8027C10.3246 19.074 10.4112 19.3471 10.5914 19.5519L11.6149 20.715C11.8206 20.9487 12.1165 21.0687 12.4267 21.0428C12.737 21.0175 13.0096 20.8515 13.1746 20.5876L14.0741 19.1484L15.804 21.6138L13.8464 22.7231C13.798 22.7504 13.7515 22.7824 13.7071 22.8186L10.1921 25.7109C10.1921 25.7109 9.09934 25.711 9.09357 25.7111C8.76072 25.7163 8.45908 25.9056 8.30636 26.2052C8.14946 26.513 8.17465 26.8788 8.37222 27.16L9.39853 28.621L7.17131 27.7692ZM17.7911 35.3611L14.1935 38.8056C13.996 38.9948 13.8864 39.2601 13.8929 39.5335L13.9338 41.2648L12.9915 40.0504L13.1463 34.7854C13.1514 34.6119 13.1101 34.4398 13.0266 34.2877L11.8381 32.1286L12.8902 30.5506C12.9982 30.3885 13.1794 30.2918 13.3748 30.2918C13.4866 30.2918 13.5955 30.3241 13.69 30.3854L18.3188 33.3782L17.7911 35.3611Z" fill="#27AAE1"/>
<path d="M16.7173 13.2629L17.2462 13.6635V18.5089C17.2462 19.0473 17.6844 19.4854 18.2231 19.4854C18.4117 19.4854 18.5959 19.4301 18.7557 19.3254L22.1048 17.1356C22.3146 16.9985 22.4619 16.7888 22.5199 16.5451L23.6369 11.8538C23.7202 11.5037 23.6048 11.1378 23.3358 10.8988L22.3034 9.98096C22.0295 9.73743 21.6251 9.66826 21.2858 9.80722L16.9406 11.5849C16.613 11.7188 16.3895 12.0083 16.3428 12.3591C16.2961 12.7098 16.4361 13.0477 16.7173 13.2629ZM21.6503 10.7157L22.6805 11.6263L21.5667 16.3132L18.229 18.4953V13.6637C18.229 13.3616 18.0858 13.0719 17.846 12.8886L17.3245 12.4899L21.6503 10.7157Z" fill="#27AAE1"/>
</svg>
