<svg width="53" height="52" viewBox="0 0 53 52" fill="none" xmlns="http://www.w3.org/2000/svg">
<path d="M23.611 24.2051C21.6491 24.2051 20.0529 25.8011 20.0529 27.7627C20.0529 29.7247 21.6491 31.3209 23.611 31.3209C25.5729 31.3209 27.1691 29.7247 27.1691 27.7627C27.1691 25.8011 25.5729 24.2051 23.611 24.2051ZM23.611 29.899C22.433 29.899 21.4748 28.9407 21.4748 27.7627C21.4748 26.585 22.4331 25.627 23.611 25.627C24.789 25.627 25.7472 26.5851 25.7472 27.7627C25.7472 28.9408 24.7889 29.899 23.611 29.899ZM44.0815 27.8102V21.4042C44.856 21.9469 45.7971 22.2674 46.8125 22.2674C49.4446 22.2674 51.5859 20.1261 51.5859 17.494C51.5859 17.4174 51.5735 17.3413 51.5493 17.2686L46.6756 2.68625C46.5787 2.39629 46.3071 2.20068 46.0013 2.20068H6.99848C6.69267 2.20068 6.42109 2.39629 6.3242 2.68625L1.45073 17.2686C1.42645 17.3413 1.41406 17.4174 1.41406 17.494C1.41406 20.1261 3.55541 22.2674 6.1874 22.2674C7.20282 22.2674 8.1438 21.9469 8.91841 21.4042V49.0886C8.91841 49.4813 9.23671 49.7996 9.62935 49.7996H40.259C46.5047 49.7996 51.5859 44.7184 51.5859 38.4727C51.5859 33.5679 48.4519 29.3819 44.0815 27.8102ZM40.8589 27.1617V21.7421C41.5878 21.3681 42.2076 20.8122 42.6596 20.1344V27.4027C42.0747 27.276 41.4734 27.1939 40.8589 27.1617ZM29.513 34.8905C28.2922 32.842 26.0681 31.5399 23.611 31.5399C20.8328 31.5399 18.3517 33.2036 17.283 35.7295H13.5629V22.2062C13.8073 22.245 14.0572 22.2674 14.3124 22.2674C16.0269 22.2674 17.5331 21.3589 18.375 19.998C19.2169 21.3589 20.723 22.2674 22.4375 22.2674C24.152 22.2674 25.6581 21.3589 26.5 19.998C27.3419 21.3589 28.848 22.2674 30.5625 22.2674C32.277 22.2674 33.7831 21.3589 34.625 19.998C35.4669 21.3589 36.973 22.2674 38.6875 22.2674C38.9427 22.2674 39.1926 22.245 39.437 22.2062V27.1757C34.8027 27.5098 30.9323 30.6439 29.513 34.8905ZM28.3572 35.7295H18.8643C19.8173 34.041 21.6178 32.9617 23.6109 32.9617C25.6039 32.9616 27.4043 34.041 28.3572 35.7295ZM38.6875 20.8455C37.0834 20.8455 35.7395 19.7125 35.4125 18.2049H41.9624C41.6355 19.7125 40.2916 20.8455 38.6875 20.8455ZM35.2738 16.783L34.0679 3.62256H39.2312L41.8816 16.783H35.2738ZM33.8459 16.783H27.2109V3.62256H32.6402L33.8459 16.783ZM33.8375 18.2049C33.5105 19.7126 32.1667 20.8455 30.5625 20.8455C28.9583 20.8455 27.6145 19.7125 27.2875 18.2049H33.8375ZM25.7891 16.783H19.154L20.3597 3.62256H25.7891V16.783ZM25.7125 18.2049C25.3855 19.7126 24.0417 20.8455 22.4375 20.8455C20.8333 20.8455 19.4895 19.7125 19.1625 18.2049H25.7125ZM17.7262 16.783H11.1183L13.7687 3.62256H18.932L17.7262 16.783ZM17.5875 18.2049C17.2605 19.7126 15.9166 20.8455 14.3124 20.8455C12.7083 20.8455 11.3644 19.7125 11.0374 18.2049H17.5875ZM46.8125 20.8455C45.2084 20.8455 43.8645 19.7125 43.5375 18.2049H50.0873C49.7603 19.7125 48.4166 20.8455 46.8125 20.8455ZM49.8878 16.783H43.3321L40.6816 3.62256H45.4893L49.8878 16.783ZM7.51045 3.62256H12.3182L9.66774 16.783H3.11219L7.51045 3.62256ZM6.1874 20.8455C4.58332 20.8455 3.23965 19.7125 2.91272 18.2049H9.46238C9.13535 19.7125 7.79148 20.8455 6.1874 20.8455ZM10.3403 48.3777V20.1344C10.7923 20.8122 11.4122 21.3681 12.141 21.7421V36.4404C12.141 36.8331 12.4593 37.1514 12.8519 37.1514H29.0095C28.9588 37.585 28.932 38.0257 28.932 38.4727C28.932 42.7281 31.2912 46.4423 34.7699 48.3777H10.3403ZM40.259 48.3777C34.7974 48.3777 30.354 43.9343 30.354 38.4727C30.354 33.0111 34.7974 28.5676 40.259 28.5676C45.7206 28.5676 50.1641 33.0111 50.1641 38.4727C50.1641 43.9343 45.7206 48.3777 40.259 48.3777ZM44.2168 41.4254C44.2168 43.1904 42.8212 44.6637 40.9837 44.9752L41.0082 45.9885C41.0177 46.3811 40.7072 46.707 40.3146 46.7164C40.3087 46.7165 40.303 46.7166 40.2972 46.7166C39.9124 46.7166 39.5961 46.4096 39.5867 46.0229L39.5617 44.9869C38.4425 44.8217 37.7548 44.2565 37.0544 43.5957C36.7688 43.3263 36.7557 42.8764 37.0251 42.5907C37.2947 42.3051 37.7446 42.2921 38.0302 42.5614C38.8168 43.3035 39.3003 43.6138 40.2589 43.6138C41.6573 43.6138 42.7949 42.632 42.7949 41.4253C42.7949 40.2187 41.6573 39.2369 40.2589 39.2369C38.0765 39.2369 36.301 37.6173 36.301 35.6264C36.3011 33.8608 37.6979 32.387 39.5364 32.0763L39.5095 30.9565C39.5002 30.5639 39.8108 30.2381 40.2033 30.2288C40.5976 30.2187 40.9216 30.53 40.931 30.9226L40.959 32.0974C41.9439 32.301 43.2059 32.8737 43.7333 33.6762C43.9489 34.0043 43.8578 34.4452 43.5297 34.6608C43.2014 34.8766 42.7607 34.7852 42.5451 34.4571C42.2217 33.9651 40.9264 33.4379 40.2587 33.4379C38.8604 33.4379 37.7228 34.4197 37.7227 35.6264C37.7227 36.8331 38.8603 37.8149 40.2587 37.8149C42.4414 37.8151 44.2168 39.4347 44.2168 41.4254Z" fill="#27AAE1"/>
</svg>
