<svg width="28" height="28" viewBox="0 0 28 28" fill="none" xmlns="http://www.w3.org/2000/svg">
<path d="M19.8734 20.5625C19.816 20.5625 19.7591 20.5738 19.706 20.5958C19.6529 20.6178 19.6046 20.65 19.564 20.6906C19.5234 20.7312 19.4912 20.7795 19.4692 20.8326C19.4472 20.8856 19.4359 20.9425 19.4359 21V24.5C19.4356 24.732 19.3434 24.9544 19.1793 25.1184C19.0153 25.2825 18.7929 25.3747 18.5609 25.375H7.22949C6.99751 25.3747 6.7751 25.2825 6.61107 25.1184C6.44703 24.9544 6.35476 24.732 6.35449 24.5V3.5C6.35476 3.26802 6.44703 3.04561 6.61107 2.88157C6.7751 2.71754 6.99751 2.62527 7.22949 2.625H9.51753L9.85535 3.63843C9.88433 3.72553 9.94 3.8013 10.0145 3.85499C10.0889 3.90867 10.1784 3.93754 10.2702 3.9375H15.5202C15.612 3.93754 15.7015 3.90867 15.7759 3.85499C15.8504 3.8013 15.9061 3.72553 15.9351 3.63843L16.2729 2.625H18.5609C18.7929 2.62527 19.0153 2.71754 19.1793 2.88157C19.3434 3.04561 19.4356 3.26802 19.4359 3.5V7C19.4359 7.11603 19.482 7.22731 19.5641 7.30936C19.6461 7.39141 19.7574 7.4375 19.8734 7.4375C19.9894 7.4375 20.1007 7.39141 20.1828 7.30936C20.2648 7.22731 20.3109 7.11603 20.3109 7V3.5C20.3104 3.03602 20.1259 2.59119 19.7978 2.26311C19.4697 1.93503 19.0249 1.75049 18.5609 1.75H7.22949C6.76552 1.75049 6.32068 1.93503 5.9926 2.26311C5.66452 2.59119 5.47999 3.03602 5.47949 3.5V24.5C5.47999 24.964 5.66452 25.4088 5.9926 25.7369C6.32068 26.065 6.76552 26.2495 7.22949 26.25H18.5609C19.0249 26.2495 19.4697 26.065 19.7978 25.7369C20.1259 25.4088 20.3104 24.964 20.3109 24.5V21C20.3109 20.9425 20.2996 20.8856 20.2776 20.8326C20.2557 20.7795 20.2234 20.7312 20.1828 20.6906C20.1422 20.65 20.0939 20.6178 20.0409 20.5958C19.9878 20.5738 19.9309 20.5625 19.8734 20.5625ZM15.3508 2.625L15.2049 3.0625H10.5855L10.4396 2.625H15.3508Z" fill="#143881"/>
<path d="M11.1455 23.625C11.0295 23.625 10.9182 23.6711 10.8361 23.7531C10.7541 23.8352 10.708 23.9465 10.708 24.0625C10.708 24.1785 10.7541 24.2898 10.8361 24.3719C10.9182 24.4539 11.0295 24.5 11.1455 24.5H14.6455C14.7615 24.5 14.8728 24.4539 14.9549 24.3719C15.0369 24.2898 15.083 24.1785 15.083 24.0625C15.083 23.9465 15.0369 23.8352 14.9549 23.7531C14.8728 23.6711 14.7615 23.625 14.6455 23.625H11.1455Z" fill="#143881"/>
<path d="M16.5207 9.625C16.5203 9.27702 16.3819 8.9434 16.1358 8.69734C15.8898 8.45128 15.5562 8.31288 15.2082 8.3125H12.458C12.11 8.31288 11.7764 8.45128 11.5303 8.69734C11.2843 8.9434 11.1459 9.27702 11.1455 9.625V12.375C11.1459 12.7229 11.2843 13.0566 11.5303 13.3026C11.7764 13.5487 12.11 13.6871 12.458 13.6875H15.2082C15.5562 13.6871 15.8898 13.5487 16.1358 13.3026C16.3819 13.0566 16.5203 12.7229 16.5207 12.375V9.625ZM15.6457 12.375C15.6456 12.491 15.5994 12.6022 15.5174 12.6842C15.4354 12.7662 15.3242 12.8124 15.2082 12.8125H12.458C12.342 12.8124 12.2308 12.7662 12.1488 12.6842C12.0668 12.6022 12.0206 12.491 12.0205 12.375V9.625C12.0206 9.509 12.0668 9.39779 12.1488 9.31577C12.2308 9.23375 12.342 9.18762 12.458 9.1875H15.2082C15.3242 9.18762 15.4354 9.23375 15.5174 9.31577C15.5994 9.39779 15.6456 9.509 15.6457 9.625V12.375Z" fill="#143881"/>
<path d="M21.2082 8.3125H18.458C18.11 8.31288 17.7764 8.45128 17.5303 8.69734C17.2843 8.9434 17.1459 9.27702 17.1455 9.625V12.375C17.1459 12.7229 17.2843 13.0566 17.5303 13.3026C17.7764 13.5487 18.11 13.6871 18.458 13.6875H21.2082C21.5562 13.6871 21.8898 13.5487 22.1358 13.3026C22.3819 13.0566 22.5203 12.7229 22.5207 12.375V9.625C22.5203 9.27702 22.3819 8.9434 22.1358 8.69734C21.8898 8.45128 21.5562 8.31288 21.2082 8.3125ZM21.6457 12.375C21.6456 12.491 21.5994 12.6022 21.5174 12.6842C21.4354 12.7662 21.3242 12.8124 21.2082 12.8125H18.458C18.342 12.8124 18.2308 12.7662 18.1488 12.6842C18.0668 12.6022 18.0206 12.491 18.0205 12.375V9.625C18.0206 9.509 18.0668 9.39779 18.1488 9.31577C18.2308 9.23375 18.342 9.18762 18.458 9.1875H21.2082C21.3242 9.18762 21.4354 9.23375 21.5174 9.31577C21.5994 9.39779 21.6456 9.509 21.6457 9.625V12.375Z" fill="#143881"/>
<path d="M16.5207 18.375V15.625C16.5203 15.277 16.3819 14.9434 16.1358 14.6973C15.8898 14.4513 15.5562 14.3129 15.2082 14.3125H12.458C12.11 14.3129 11.7764 14.4513 11.5303 14.6973C11.2843 14.9434 11.1459 15.277 11.1455 15.625V18.375C11.1459 18.7229 11.2843 19.0566 11.5303 19.3026C11.7764 19.5487 12.11 19.6871 12.458 19.6875H15.2082C15.5562 19.6871 15.8898 19.5487 16.1358 19.3026C16.3819 19.0566 16.5203 18.7229 16.5207 18.375ZM12.0205 18.375V15.625C12.0206 15.509 12.0668 15.3978 12.1488 15.3158C12.2308 15.2337 12.342 15.1876 12.458 15.1875H15.2082C15.3242 15.1876 15.4354 15.2337 15.5174 15.3158C15.5994 15.3978 15.6456 15.509 15.6457 15.625V18.375C15.6456 18.491 15.5994 18.6022 15.5174 18.6842C15.4354 18.7662 15.3242 18.8124 15.2082 18.8125H12.458C12.342 18.8124 12.2308 18.7662 12.1488 18.6842C12.0668 18.6022 12.0206 18.491 12.0205 18.375Z" fill="#143881"/>
<path d="M21.2082 14.3125H18.458C18.11 14.3129 17.7764 14.4513 17.5303 14.6973C17.2843 14.9434 17.1459 15.277 17.1455 15.625V18.375C17.1459 18.7229 17.2843 19.0566 17.5303 19.3026C17.7764 19.5487 18.11 19.6871 18.458 19.6875H21.2082C21.5562 19.6871 21.8898 19.5487 22.1358 19.3026C22.3819 19.0566 22.5203 18.7229 22.5207 18.375V15.625C22.5203 15.277 22.3819 14.9434 22.1358 14.6973C21.8898 14.4513 21.5562 14.3129 21.2082 14.3125ZM21.6457 18.375C21.6456 18.491 21.5994 18.6022 21.5174 18.6842C21.4354 18.7662 21.3242 18.8124 21.2082 18.8125H18.458C18.342 18.8124 18.2308 18.7662 18.1488 18.6842C18.0668 18.6022 18.0206 18.491 18.0205 18.375V15.625C18.0206 15.509 18.0668 15.3978 18.1488 15.3158C18.2308 15.2337 18.342 15.1876 18.458 15.1875H21.2082C21.3242 15.1876 21.4354 15.2337 21.5174 15.3158C21.5994 15.3978 21.6456 15.509 21.6457 15.625V18.375Z" fill="#143881"/>
</svg>
