<svg width="52" height="52" viewBox="0 0 52 52" fill="none" xmlns="http://www.w3.org/2000/svg">
<path d="M36.9073 38.1875C36.8006 38.1875 36.695 38.2085 36.5964 38.2493C36.4978 38.2901 36.4082 38.35 36.3328 38.4254C36.2573 38.5009 36.1975 38.5904 36.1566 38.689C36.1158 38.7876 36.0948 38.8933 36.0948 39V45.5C36.0944 45.9308 35.923 46.3439 35.6184 46.6485C35.3137 46.9531 34.9007 47.1245 34.4698 47.125H13.4258C12.995 47.1245 12.5819 46.9531 12.2773 46.6485C11.9726 46.3439 11.8013 45.9308 11.8008 45.5V6.5C11.8013 6.06917 11.9726 5.65614 12.2773 5.3515C12.5819 5.04686 12.995 4.87549 13.4258 4.875H17.675L18.3024 6.75708C18.3562 6.91885 18.4596 7.05956 18.5979 7.15926C18.7362 7.25896 18.9023 7.31257 19.0728 7.3125H28.8228C28.9933 7.31257 29.1595 7.25895 29.2978 7.15926C29.4361 7.05956 29.5394 6.91885 29.5933 6.75708L30.2206 4.875H34.4698C34.9007 4.87549 35.3137 5.04686 35.6184 5.3515C35.923 5.65614 36.0944 6.06917 36.0948 6.5V13C36.0948 13.2155 36.1805 13.4222 36.3328 13.5745C36.4852 13.7269 36.6919 13.8125 36.9073 13.8125C37.1228 13.8125 37.3295 13.7269 37.4819 13.5745C37.6342 13.4222 37.7198 13.2155 37.7198 13V6.5C37.7189 5.63833 37.3762 4.81221 36.7669 4.20291C36.1576 3.59362 35.3315 3.25092 34.4698 3.25H13.4258C12.5641 3.25092 11.738 3.59362 11.1287 4.20292C10.5194 4.81221 10.1767 5.63833 10.1758 6.5V45.5C10.1767 46.3617 10.5194 47.1878 11.1287 47.7971C11.738 48.4064 12.5641 48.7491 13.4258 48.75H34.4698C35.3315 48.7491 36.1576 48.4064 36.7669 47.7971C37.3762 47.1878 37.7189 46.3617 37.7198 45.5V39C37.7199 38.8933 37.6989 38.7876 37.6581 38.689C37.6172 38.5904 37.5574 38.5009 37.4819 38.4254C37.4065 38.35 37.3169 38.2901 37.2183 38.2493C37.1197 38.2085 37.0141 38.1875 36.9073 38.1875ZM28.5082 4.875L28.2372 5.6875H19.6584L19.3874 4.875H28.5082Z" fill="#143881"/>
<path d="M20.6992 43.875C20.4837 43.875 20.2771 43.9606 20.1247 44.113C19.9723 44.2653 19.8867 44.472 19.8867 44.6875C19.8867 44.903 19.9723 45.1097 20.1247 45.262C20.2771 45.4144 20.4837 45.5 20.6992 45.5H27.1992C27.4147 45.5 27.6214 45.4144 27.7737 45.262C27.9261 45.1097 28.0117 44.903 28.0117 44.6875C28.0117 44.472 27.9261 44.2653 27.7737 44.113C27.6214 43.9606 27.4147 43.875 27.1992 43.875H20.6992Z" fill="#143881"/>
<path d="M30.6817 17.875C30.681 17.2288 30.424 16.6092 29.967 16.1522C29.51 15.6952 28.8904 15.4382 28.2442 15.4375H23.1367C22.4905 15.4382 21.8709 15.6952 21.4139 16.1522C20.957 16.6092 20.6999 17.2288 20.6992 17.875V22.9821C20.6999 23.6283 20.957 24.2479 21.4139 24.7049C21.8709 25.1618 22.4905 25.4189 23.1367 25.4196H28.2442C28.8904 25.4189 29.51 25.1618 29.967 24.7049C30.424 24.2479 30.681 23.6283 30.6817 22.9821V17.875ZM29.0567 22.9821C29.0565 23.1975 28.9708 23.404 28.8185 23.5564C28.6662 23.7087 28.4596 23.7944 28.2442 23.7946H23.1367C22.9213 23.7944 22.7148 23.7087 22.5624 23.5564C22.4101 23.404 22.3244 23.1975 22.3242 22.9821V17.875C22.3244 17.6596 22.4101 17.453 22.5624 17.3007C22.7148 17.1484 22.9213 17.0627 23.1367 17.0625H28.2442C28.4596 17.0627 28.6662 17.1484 28.8185 17.3007C28.9708 17.453 29.0565 17.6596 29.0567 17.875V22.9821Z" fill="#143881"/>
<path d="M39.3868 15.4375H34.2793C33.633 15.4382 33.0135 15.6952 32.5565 16.1522C32.0995 16.6092 31.8425 17.2288 31.8418 17.875V22.9821C31.8425 23.6283 32.0995 24.2479 32.5565 24.7049C33.0135 25.1618 33.633 25.4189 34.2793 25.4196H39.3868C40.033 25.4189 40.6526 25.1618 41.1095 24.7049C41.5665 24.2479 41.8235 23.6283 41.8243 22.9821V17.875C41.8235 17.2288 41.5665 16.6092 41.1095 16.1522C40.6526 15.6952 40.033 15.4382 39.3868 15.4375ZM40.1993 22.9821C40.199 23.1975 40.1134 23.404 39.961 23.5564C39.8087 23.7087 39.6022 23.7944 39.3868 23.7946H34.2793C34.0639 23.7944 33.8573 23.7087 33.705 23.5564C33.5527 23.404 33.467 23.1975 33.4668 22.9821V17.875C33.467 17.6596 33.5527 17.453 33.705 17.3007C33.8573 17.1484 34.0639 17.0627 34.2793 17.0625H39.3868C39.6022 17.0627 39.8087 17.1484 39.961 17.3007C40.1134 17.453 40.199 17.6596 40.1993 17.875V22.9821Z" fill="#143881"/>
<path d="M30.6817 34.1249V29.0178C30.681 28.3716 30.424 27.752 29.967 27.295C29.51 26.8381 28.8904 26.581 28.2442 26.5803H23.1367C22.4905 26.581 21.8709 26.8381 21.4139 27.295C20.957 27.752 20.6999 28.3716 20.6992 29.0178V34.1249C20.6999 34.7712 20.957 35.3907 21.4139 35.8477C21.8709 36.3047 22.4905 36.5617 23.1367 36.5624H28.2442C28.8904 36.5617 29.51 36.3047 29.967 35.8477C30.424 35.3907 30.681 34.7712 30.6817 34.1249ZM22.3242 34.1249V29.0178C22.3244 28.8024 22.4101 28.5959 22.5624 28.4435C22.7148 28.2912 22.9213 28.2055 23.1367 28.2053H28.2442C28.4596 28.2055 28.6662 28.2912 28.8185 28.4435C28.9708 28.5959 29.0565 28.8024 29.0567 29.0178V34.1249C29.0565 34.3403 28.9708 34.5469 28.8185 34.6992C28.6662 34.8515 28.4596 34.9372 28.2442 34.9374H23.1367C22.9213 34.9372 22.7148 34.8515 22.5624 34.6992C22.4101 34.5469 22.3244 34.3403 22.3242 34.1249Z" fill="#143881"/>
<path d="M39.3868 26.5803H34.2793C33.633 26.581 33.0135 26.8381 32.5565 27.295C32.0995 27.752 31.8425 28.3716 31.8418 29.0178V34.1249C31.8425 34.7712 32.0995 35.3907 32.5565 35.8477C33.0135 36.3047 33.633 36.5617 34.2793 36.5624H39.3868C40.033 36.5617 40.6526 36.3047 41.1095 35.8477C41.5665 35.3907 41.8235 34.7712 41.8243 34.1249V29.0178C41.8235 28.3716 41.5665 27.752 41.1095 27.295C40.6526 26.8381 40.033 26.581 39.3868 26.5803ZM40.1993 34.1249C40.199 34.3403 40.1134 34.5469 39.961 34.6992C39.8087 34.8515 39.6022 34.9372 39.3868 34.9374H34.2793C34.0639 34.9372 33.8573 34.8515 33.705 34.6992C33.5527 34.5469 33.467 34.3403 33.4668 34.1249V29.0178C33.467 28.8024 33.5527 28.5959 33.705 28.4435C33.8573 28.2912 34.0639 28.2055 34.2793 28.2053H39.3868C39.6022 28.2055 39.8087 28.2912 39.961 28.4435C40.1134 28.5959 40.199 28.8024 40.1993 29.0178V34.1249Z" fill="#143881"/>
</svg>
