<svg width="28" height="28" viewBox="0 0 28 28" fill="none" xmlns="http://www.w3.org/2000/svg">
<path d="M13.9999 16.9163C15.6107 16.9163 16.9166 15.6105 16.9166 13.9997C16.9166 12.3888 15.6107 11.083 13.9999 11.083C12.3891 11.083 11.0833 12.3888 11.0833 13.9997C11.0833 15.6105 12.3891 16.9163 13.9999 16.9163Z" stroke="#143881" stroke-width="2" stroke-miterlimit="10" stroke-linecap="round" stroke-linejoin="round"/>
<path d="M21.5833 11.083V16.9163" stroke="#143881" stroke-width="2" stroke-miterlimit="10" stroke-linecap="round" stroke-linejoin="round"/>
<path d="M5.83341 25.6663C8.41074 25.6663 10.5001 23.577 10.5001 20.9997C10.5001 18.4223 8.41074 16.333 5.83341 16.333C3.25609 16.333 1.16675 18.4223 1.16675 20.9997C1.16675 23.577 3.25609 25.6663 5.83341 25.6663Z" stroke="#143881" stroke-width="2" stroke-miterlimit="10" stroke-linecap="round" stroke-linejoin="round"/>
<path d="M6.12508 19.541V20.626C6.12508 21.0343 5.91509 21.4193 5.55343 21.6293L4.66675 22.166" stroke="#143881" stroke-width="2" stroke-miterlimit="10" stroke-linecap="round" stroke-linejoin="round"/>
<path d="M2.33325 17.7337V10.5003C2.33325 6.41699 4.66659 4.66699 8.16659 4.66699H19.8333C23.3333 4.66699 25.6666 6.41699 25.6666 10.5003V17.5003C25.6666 21.5837 23.3333 23.3337 19.8333 23.3337H9.91659" stroke="#143881" stroke-width="2" stroke-miterlimit="10" stroke-linecap="round" stroke-linejoin="round"/>
</svg>
