<svg width="53" height="52" viewBox="0 0 53 52" fill="none" xmlns="http://www.w3.org/2000/svg">
<path d="M4.66797 23.8334V19.5001C4.66797 11.9167 9.0013 8.66675 15.5013 8.66675H37.168C43.668 8.66675 48.0013 11.9167 48.0013 19.5001V32.5001C48.0013 40.0834 43.668 43.3334 37.168 43.3334H26.3346" stroke="#143881" stroke-width="2" stroke-miterlimit="10" stroke-linecap="round" stroke-linejoin="round"/>
<path d="M26.3346 31.4166C29.3262 31.4166 31.7513 28.9915 31.7513 25.9999C31.7513 23.0084 29.3262 20.5833 26.3346 20.5833C23.3431 20.5833 20.918 23.0084 20.918 25.9999C20.918 28.9915 23.3431 31.4166 26.3346 31.4166Z" stroke="#143881" stroke-width="2" stroke-miterlimit="10" stroke-linecap="round" stroke-linejoin="round"/>
<path d="M40.418 20.5833V31.4166" stroke="#143881" stroke-width="2" stroke-miterlimit="10" stroke-linecap="round" stroke-linejoin="round"/>
<path d="M4.66797 33.5833H16.238C17.6247 33.5833 18.7513 34.7099 18.7513 36.0965V38.8699" stroke="#143881" stroke-width="2" stroke-miterlimit="10" stroke-linecap="round" stroke-linejoin="round"/>
<path d="M7.31124 30.9399L4.66797 33.5832L7.31124 36.2265" stroke="#143881" stroke-width="2" stroke-miterlimit="10" stroke-linecap="round" stroke-linejoin="round"/>
<path d="M18.7513 45.0232H7.18124C5.79458 45.0232 4.66797 43.8965 4.66797 42.5098V39.7366" stroke="#143881" stroke-width="2" stroke-miterlimit="10" stroke-linecap="round" stroke-linejoin="round"/>
<path d="M16.1113 47.6673L18.7546 45.024L16.1113 42.3806" stroke="#143881" stroke-width="2" stroke-miterlimit="10" stroke-linecap="round" stroke-linejoin="round"/>
</svg>
