<svg width="28" height="28" viewBox="0 0 28 28" fill="none" xmlns="http://www.w3.org/2000/svg">
<path d="M2.3335 12.8337V10.5003C2.3335 6.41699 4.66683 4.66699 8.16683 4.66699H19.8335C23.3335 4.66699 25.6668 6.41699 25.6668 10.5003V17.5003C25.6668 21.5837 23.3335 23.3337 19.8335 23.3337H14.0002" stroke="#143881" stroke-width="2" stroke-miterlimit="10" stroke-linecap="round" stroke-linejoin="round"/>
<path d="M14.0002 16.9163C15.611 16.9163 16.9168 15.6105 16.9168 13.9997C16.9168 12.3888 15.611 11.083 14.0002 11.083C12.3893 11.083 11.0835 12.3888 11.0835 13.9997C11.0835 15.6105 12.3893 16.9163 14.0002 16.9163Z" stroke="#143881" stroke-width="2" stroke-miterlimit="10" stroke-linecap="round" stroke-linejoin="round"/>
<path d="M21.5835 11.083V16.9163" stroke="#143881" stroke-width="2" stroke-miterlimit="10" stroke-linecap="round" stroke-linejoin="round"/>
<path d="M2.3335 18.083H8.56353C9.31019 18.083 9.91683 18.6896 9.91683 19.4363V20.9297" stroke="#143881" stroke-width="2" stroke-miterlimit="10" stroke-linecap="round" stroke-linejoin="round"/>
<path d="M3.7568 16.6602L2.3335 18.0835L3.7568 19.5068" stroke="#143881" stroke-width="2" stroke-miterlimit="10" stroke-linecap="round" stroke-linejoin="round"/>
<path d="M9.91683 24.2432H3.6868C2.94013 24.2432 2.3335 23.6364 2.3335 22.8898V21.3965" stroke="#143881" stroke-width="2" stroke-miterlimit="10" stroke-linecap="round" stroke-linejoin="round"/>
<path d="M8.49512 25.667L9.91842 24.2437L8.49512 22.8203" stroke="#143881" stroke-width="2" stroke-miterlimit="10" stroke-linecap="round" stroke-linejoin="round"/>
</svg>
