<svg width="52" height="52" viewBox="0 0 52 52" fill="none" xmlns="http://www.w3.org/2000/svg">
<path d="M41.8167 17.1602V28.3186C41.8167 34.9919 38.0034 37.8518 32.2834 37.8518H13.2384C12.2634 37.8518 11.3317 37.7653 10.4651 37.5703C9.9234 37.4836 9.40342 37.332 8.92675 37.1586C5.67675 35.9453 3.70508 33.1286 3.70508 28.3186V17.1602C3.70508 10.4869 7.5184 7.62695 13.2384 7.62695H32.2834C37.1367 7.62695 40.6251 9.68528 41.5567 14.3869C41.7084 15.2536 41.8167 16.1419 41.8167 17.1602Z" stroke="#27AAE1" stroke-width="1.5" stroke-miterlimit="10" stroke-linecap="round" stroke-linejoin="round"/>
<path d="M48.3194 23.6605V34.8189C48.3194 41.4922 44.5061 44.3521 38.7861 44.3521H19.7411C18.1378 44.3521 16.6861 44.1356 15.4295 43.6589C12.8511 42.7056 11.0961 40.7339 10.4678 37.5706C11.3344 37.7656 12.2661 37.8521 13.2411 37.8521H32.2861C38.0061 37.8521 41.8194 34.9922 41.8194 28.3189V17.1605C41.8194 16.1421 41.7328 15.2322 41.5595 14.3872C45.6761 15.2539 48.3194 18.1571 48.3194 23.6605Z" stroke="#27AAE1" stroke-width="1.5" stroke-miterlimit="10" stroke-linecap="round" stroke-linejoin="round"/>
<path d="M22.7464 28.4698C25.9055 28.4698 28.4664 25.9089 28.4664 22.7498C28.4664 19.5907 25.9055 17.0298 22.7464 17.0298C19.5873 17.0298 17.0264 19.5907 17.0264 22.7498C17.0264 25.9089 19.5873 28.4698 22.7464 28.4698Z" stroke="#27AAE1" stroke-width="1.5" stroke-miterlimit="10" stroke-linecap="round" stroke-linejoin="round"/>
<path d="M10.3564 17.9834V27.5168" stroke="#27AAE1" stroke-width="1.5" stroke-miterlimit="10" stroke-linecap="round" stroke-linejoin="round"/>
<path d="M35.1475 17.9844V27.5178" stroke="#27AAE1" stroke-width="1.5" stroke-miterlimit="10" stroke-linecap="round" stroke-linejoin="round"/>
</svg>
