<svg width="53" height="52" viewBox="0 0 53 52" fill="none" xmlns="http://www.w3.org/2000/svg">
<path d="M26.6667 31.4167C29.6582 31.4167 32.0833 28.9916 32.0833 26C32.0833 23.0085 29.6582 20.5834 26.6667 20.5834C23.6751 20.5834 21.25 23.0085 21.25 26C21.25 28.9916 23.6751 31.4167 26.6667 31.4167Z" stroke="#143881" stroke-width="2" stroke-miterlimit="10" stroke-linecap="round" stroke-linejoin="round"/>
<path d="M40.75 20.5834V31.4167" stroke="#143881" stroke-width="2" stroke-miterlimit="10" stroke-linecap="round" stroke-linejoin="round"/>
<path d="M11.5007 47.6667C16.2871 47.6667 20.1673 43.7865 20.1673 39C20.1673 34.2136 16.2871 30.3334 11.5007 30.3334C6.71418 30.3334 2.83398 34.2136 2.83398 39C2.83398 43.7865 6.71418 47.6667 11.5007 47.6667Z" stroke="#143881" stroke-width="2" stroke-miterlimit="10" stroke-linecap="round" stroke-linejoin="round"/>
<path d="M12.0423 36.2917V38.3067C12.0423 39.0651 11.6523 39.78 10.9807 40.17L9.33398 41.1667" stroke="#143881" stroke-width="2" stroke-miterlimit="10" stroke-linecap="round" stroke-linejoin="round"/>
<path d="M5 32.9333V19.5C5 11.9166 9.33333 8.66663 15.8333 8.66663H37.5C44 8.66663 48.3333 11.9166 48.3333 19.5V32.5C48.3333 40.0833 44 43.3333 37.5 43.3333H19.0833" stroke="#143881" stroke-width="2" stroke-miterlimit="10" stroke-linecap="round" stroke-linejoin="round"/>
</svg>
