<svg width="52" height="52" viewBox="0 0 52 52" fill="none" xmlns="http://www.w3.org/2000/svg">
<path d="M38.9998 15.5135C38.8698 15.4918 38.7182 15.4918 38.5882 15.5135C35.5982 15.4052 33.2148 12.9568 33.2148 9.9235C33.2148 6.82517 35.7065 4.3335 38.8048 4.3335C41.9032 4.3335 44.3948 6.84683 44.3948 9.9235C44.3732 12.9568 41.9898 15.4052 38.9998 15.5135Z" stroke="#27AAE1" stroke-width="2" stroke-linecap="round" stroke-linejoin="round"/>
<path d="M36.7681 31.2867C39.7365 31.785 43.0081 31.265 45.3048 29.7267C48.3598 27.69 48.3598 24.3534 45.3048 22.3167C42.9865 20.7784 39.6715 20.2583 36.7031 20.7783" stroke="#27AAE1" stroke-width="2" stroke-linecap="round" stroke-linejoin="round"/>
<path d="M12.935 15.5135C13.065 15.4918 13.2167 15.4918 13.3467 15.5135C16.3367 15.4052 18.72 12.9568 18.72 9.9235C18.72 6.82517 16.2284 4.3335 13.13 4.3335C10.0317 4.3335 7.54004 6.84683 7.54004 9.9235C7.56171 12.9568 9.94504 15.4052 12.935 15.5135Z" stroke="#27AAE1" stroke-width="2" stroke-linecap="round" stroke-linejoin="round"/>
<path d="M15.1668 31.2867C12.1984 31.785 8.92678 31.265 6.63012 29.7267C3.57512 27.69 3.57512 24.3534 6.63012 22.3167C8.94845 20.7784 12.2634 20.2583 15.2318 20.7783" stroke="#27AAE1" stroke-width="2" stroke-linecap="round" stroke-linejoin="round"/>
<path d="M25.9998 31.6986C25.8698 31.6769 25.7182 31.6769 25.5882 31.6986C22.5982 31.5902 20.2148 29.1419 20.2148 26.1086C20.2148 23.0102 22.7065 20.5186 25.8048 20.5186C28.9032 20.5186 31.3948 23.0319 31.3948 26.1086C31.3732 29.1419 28.9898 31.6119 25.9998 31.6986Z" stroke="#27AAE1" stroke-width="2" stroke-linecap="round" stroke-linejoin="round"/>
<path d="M19.6946 38.5238C16.6396 40.5604 16.6396 43.8971 19.6946 45.9338C23.1612 48.2521 28.8379 48.2521 32.3046 45.9338C35.3596 43.8971 35.3596 40.5604 32.3046 38.5238C28.8596 36.2271 23.1612 36.2271 19.6946 38.5238Z" stroke="#27AAE1" stroke-width="2" stroke-linecap="round" stroke-linejoin="round"/>
</svg>
