<svg width="28" height="28" viewBox="0 0 28 28" fill="none" xmlns="http://www.w3.org/2000/svg">
<path d="M20.9998 8.35301C20.9298 8.34135 20.8481 8.34135 20.7781 8.35301C19.1681 8.29468 17.8848 6.97634 17.8848 5.34301C17.8848 3.67468 19.2264 2.33301 20.8948 2.33301C22.5631 2.33301 23.9048 3.68634 23.9048 5.34301C23.8931 6.97634 22.6098 8.29468 20.9998 8.35301Z" stroke="#27AAE1" stroke-width="2" stroke-linecap="round" stroke-linejoin="round"/>
<path d="M19.7977 16.8465C21.396 17.1149 23.1577 16.8349 24.3944 16.0065C26.0394 14.9099 26.0394 13.1132 24.3944 12.0165C23.146 11.1882 21.361 10.9082 19.7627 11.1882" stroke="#27AAE1" stroke-width="2" stroke-linecap="round" stroke-linejoin="round"/>
<path d="M6.96457 8.35301C7.03457 8.34135 7.11624 8.34135 7.18624 8.35301C8.79624 8.29468 10.0796 6.97634 10.0796 5.34301C10.0796 3.67468 8.73791 2.33301 7.06957 2.33301C5.40124 2.33301 4.05957 3.68634 4.05957 5.34301C4.07124 6.97634 5.35457 8.29468 6.96457 8.35301Z" stroke="#27AAE1" stroke-width="2" stroke-linecap="round" stroke-linejoin="round"/>
<path d="M8.16635 16.8465C6.56802 17.1149 4.80635 16.8349 3.56969 16.0065C1.92469 14.9099 1.92469 13.1132 3.56969 12.0165C4.81802 11.1882 6.60302 10.9082 8.20135 11.1882" stroke="#27AAE1" stroke-width="2" stroke-linecap="round" stroke-linejoin="round"/>
<path d="M13.9998 17.0679C13.9298 17.0562 13.8481 17.0562 13.7781 17.0679C12.1681 17.0095 10.8848 15.6912 10.8848 14.0579C10.8848 12.3895 12.2264 11.0479 13.8948 11.0479C15.5631 11.0479 16.9048 12.4012 16.9048 14.0579C16.8931 15.6912 15.6098 17.0212 13.9998 17.0679Z" stroke="#27AAE1" stroke-width="2" stroke-linecap="round" stroke-linejoin="round"/>
<path d="M10.6048 20.7429C8.95984 21.8396 8.95984 23.6363 10.6048 24.7329C12.4715 25.9813 15.5282 25.9813 17.3948 24.7329C19.0398 23.6363 19.0398 21.8396 17.3948 20.7429C15.5398 19.5063 12.4715 19.5063 10.6048 20.7429Z" stroke="#27AAE1" stroke-width="2" stroke-linecap="round" stroke-linejoin="round"/>
</svg>
