<svg width="28" height="29" viewBox="0 0 28 29" fill="none" xmlns="http://www.w3.org/2000/svg">
<path d="M13.6966 21.6282H20.6033C20.4983 21.7215 20.3933 21.8032 20.2883 21.8965L15.3066 25.6298C13.6616 26.8548 10.9783 26.8548 9.32159 25.6298L4.32826 21.8965C3.23159 21.0799 2.33325 19.2715 2.33325 17.9065V9.26151C2.33325 7.83817 3.41826 6.26317 4.74826 5.7615L10.5583 3.57984C11.5149 3.21818 13.1016 3.21818 14.0583 3.57984L19.8566 5.7615C20.9649 6.18151 21.9099 7.34818 22.2016 8.53818H13.6849C13.4282 8.53818 13.1949 8.54986 12.9732 8.54986C10.8149 8.67819 10.2549 9.45984 10.2549 11.9215V18.2565C10.2666 20.9398 10.9549 21.6282 13.6966 21.6282Z" stroke="#143881" stroke-width="2" stroke-linecap="round" stroke-linejoin="round"/>
<path d="M10.2666 14.0098H25.6666" stroke="#143881" stroke-width="2" stroke-miterlimit="10" stroke-linecap="round" stroke-linejoin="round"/>
<path d="M25.6666 11.9097V18.3846C25.6433 20.9746 24.9316 21.6163 22.2366 21.6163H13.6966C10.9549 21.6163 10.2666 20.928 10.2666 18.233V11.898C10.2666 9.44797 10.8266 8.66629 12.9849 8.52629C13.2066 8.52629 13.4399 8.51465 13.6966 8.51465H22.2366C24.9783 8.52632 25.6666 9.20299 25.6666 11.9097Z" stroke="#143881" stroke-width="2" stroke-linecap="round" stroke-linejoin="round"/>
<path d="M13.2065 18.7236H14.7582" stroke="#143881" stroke-width="2" stroke-miterlimit="10" stroke-linecap="round" stroke-linejoin="round"/>
<path d="M17.2083 18.7236H21.0233" stroke="#143881" stroke-width="2" stroke-miterlimit="10" stroke-linecap="round" stroke-linejoin="round"/>
</svg>
