<svg width="52" height="52" viewBox="0 0 52 52" fill="none" xmlns="http://www.w3.org/2000/svg">
<path d="M25.4364 38.4584H38.263C38.068 38.6317 37.873 38.7834 37.678 38.9567L28.4263 45.89C25.3713 48.165 20.388 48.165 17.3114 45.89L8.03802 38.9567C6.00136 37.4401 4.33301 34.0817 4.33301 31.5467V15.4917C4.33301 12.8484 6.34802 9.92335 8.81802 8.99169L19.608 4.94003C21.3847 4.26836 24.3313 4.26836 26.108 4.94003L36.8764 8.99169C38.9347 9.77169 40.6897 11.9384 41.2313 14.1484H25.4147C24.938 14.1484 24.5047 14.1701 24.093 14.1701C20.0847 14.4084 19.0447 15.86 19.0447 20.4317V32.1967C19.0663 37.18 20.3447 38.4584 25.4364 38.4584Z" stroke="#143881" stroke-width="2" stroke-linecap="round" stroke-linejoin="round"/>
<path d="M19.0664 24.3101H47.6664" stroke="#143881" stroke-width="2" stroke-miterlimit="10" stroke-linecap="round" stroke-linejoin="round"/>
<path d="M47.6664 20.41V32.435C47.6231 37.245 46.3014 38.4366 41.2964 38.4366H25.4364C20.3447 38.4366 19.0664 37.1583 19.0664 32.1533V20.3883C19.0664 15.8383 20.1064 14.3866 24.1147 14.1266C24.5264 14.1266 24.9597 14.105 25.4364 14.105H41.2964C46.3881 14.1266 47.6664 15.3833 47.6664 20.41Z" stroke="#143881" stroke-width="2" stroke-linecap="round" stroke-linejoin="round"/>
<path d="M24.5264 33.0635H27.408" stroke="#143881" stroke-width="2" stroke-miterlimit="10" stroke-linecap="round" stroke-linejoin="round"/>
<path d="M31.958 33.0635H39.043" stroke="#143881" stroke-width="2" stroke-miterlimit="10" stroke-linecap="round" stroke-linejoin="round"/>
</svg>
