<svg width="53" height="52" viewBox="0 0 53 52" fill="none" xmlns="http://www.w3.org/2000/svg">
<g clip-path="url(#clip0_2224_3816)">
<path d="M44.7178 7.61526C39.8071 2.70451 33.2779 0 26.333 0C19.3882 0 12.8589 2.70451 7.94827 7.61526C3.03741 12.5259 0.333008 19.0552 0.333008 26C0.333008 32.9448 3.03741 39.4741 7.94827 44.3847C12.8589 49.2955 19.3882 52 26.333 52C33.2779 52 39.8071 49.2955 44.7178 44.3847C49.6286 39.4741 52.333 32.9448 52.333 26C52.333 19.0552 49.6286 12.5259 44.7178 7.61526ZM26.333 48.9048C13.7033 48.9048 3.42823 38.6297 3.42823 26C3.42823 13.3703 13.7033 3.09522 26.333 3.09522C38.9627 3.09522 49.2378 13.3703 49.2378 26C49.2378 38.6297 38.9627 48.9048 26.333 48.9048Z" fill="#143881"/>
<path d="M20.7091 19.1342C18.1748 16.5997 14.0511 16.5999 11.5168 19.1342C10.9124 19.7385 10.9124 20.7185 11.5168 21.3229C12.1213 21.9272 13.1013 21.9272 13.7055 21.3229C15.0332 19.9953 17.1932 19.9954 18.5206 21.3229C18.8229 21.6251 19.2189 21.7762 19.6149 21.7762C20.0109 21.7762 20.407 21.6251 20.7091 21.3229C21.3135 20.7185 21.3135 19.7386 20.7091 19.1342Z" fill="#143881"/>
<path d="M41.1495 19.1342C38.6152 16.5999 34.4915 16.5997 31.9572 19.1342C31.3528 19.7385 31.3528 20.7185 31.9572 21.3229C32.5617 21.9272 33.5417 21.9272 34.146 21.3229C35.4734 19.9953 37.6334 19.9952 38.9611 21.3229C39.2633 21.6251 39.6593 21.7762 40.0553 21.7762C40.4513 21.7762 40.8475 21.6251 41.1495 21.3229C41.7539 20.7185 41.7539 19.7386 41.1495 19.1342Z" fill="#143881"/>
<path d="M40.0555 27.1348H12.6111C11.7563 27.1348 11.0635 27.8277 11.0635 28.6824C11.0635 37.1021 17.9136 43.9522 26.3333 43.9522C34.753 43.9522 41.6031 37.1021 41.6031 28.6824C41.6031 27.8276 40.9103 27.1348 40.0555 27.1348ZM26.3333 40.857C20.1443 40.857 15.019 36.2153 14.2566 30.23H38.4101C37.6476 36.2153 32.5223 40.857 26.3333 40.857Z" fill="#143881"/>
</g>
<defs>
<clipPath id="clip0_2224_3816">
<rect width="52" height="52" fill="white" transform="translate(0.333008)"/>
</clipPath>
</defs>
</svg>
