<svg width="81" height="80" viewBox="0 0 81 80" fill="none" xmlns="http://www.w3.org/2000/svg">
<path d="M79.1283 49.6762C73.786 71.105 52.0821 84.1461 30.6508 78.8025C9.22843 73.4602 -3.81271 51.7549 1.53193 30.3279C6.87187 8.89676 28.5758 -4.14535 50.0004 1.19694C71.4302 6.53923 84.4706 28.2468 79.1277 49.6766L79.1281 49.6762H79.1283Z" fill="#50AF95"/>
<path fill-rule="evenodd" clip-rule="evenodd" d="M45.3957 44.5348C45.1129 44.556 43.6516 44.6432 40.3919 44.6432C37.7992 44.6432 35.9584 44.5654 35.3126 44.5348C25.2931 44.094 17.8145 42.3499 17.8145 40.2616C17.8145 38.1733 25.2931 36.4315 35.3126 35.9837V42.7977C35.9679 42.8448 37.844 42.9556 40.4367 42.9556C43.5479 42.9556 45.1058 42.826 45.3863 42.8001V35.9884C55.3846 36.4339 62.8467 38.178 62.8467 40.2616C62.8467 42.3452 55.3869 44.0893 45.3863 44.5324L45.3957 44.5348ZM45.3957 35.2837V29.1862H59.349V19.8879H21.3593V29.1862H35.3102V35.2813C23.9709 35.8022 15.4434 38.0484 15.4434 40.74C15.4434 43.4317 23.9709 45.6755 35.3102 46.1988V65.738H45.3934V46.1917C56.7068 45.6708 65.2202 43.427 65.2202 40.7377C65.2202 38.0484 56.7139 35.8045 45.3934 35.2813L45.3957 35.2837Z" fill="white"/>
</svg>
