<svg width="52" height="52" viewBox="0 0 52 52" fill="none" xmlns="http://www.w3.org/2000/svg">
<path fill-rule="evenodd" clip-rule="evenodd" d="M36.9705 13.8306H35.687V16.3857H37.8581C39.5255 16.3857 39.5255 13.8306 37.8581 13.8306H36.9705ZM15.2948 40.4244C6.05837 40.4244 -0.635056 31.6318 1.72804 22.7792C4.18709 13.6267 14.767 9.56029 22.708 14.5264C22.516 9.35637 25.155 4.51023 29.7133 1.88324C36.4067 -1.99127 44.9954 0.311843 48.8699 7.00527C52.7204 13.6747 50.4293 22.2754 43.7719 26.1499C52.5045 31.6918 52.4925 44.7907 43.2681 50.1167C34.1756 55.3587 22.684 49.0371 22.2401 38.5771C20.117 39.7887 17.7179 40.4244 15.2948 40.4244ZM24.1834 15.582C27.2422 18.089 29.1255 21.9035 29.2814 25.802C33.2639 23.5229 38.23 23.367 42.3324 25.3462C48.8459 22.1195 51.305 13.9986 47.6704 7.701C44.1797 1.66732 36.4427 -0.40788 30.409 3.08278C25.9707 5.63779 23.5476 10.5199 24.1834 15.582ZM24.1114 37.2936L23.6196 37.6775C23.3797 47.4897 34.0676 53.8233 42.5723 48.9171C48.606 45.4265 50.6812 37.6895 47.2025 31.6558C43.5559 25.3462 35.2671 23.4629 29.2574 27.4454C28.9696 31.3439 27.1103 34.8706 24.1114 37.2936ZM15.2588 13.7587C5.61454 13.7587 -0.527098 24.3026 4.33103 32.7234C8.30151 39.6087 17.526 41.0602 23.4397 36.0461C28.0219 32.1836 29.3174 25.4542 26.2226 20.0802C23.9675 16.1817 19.7691 13.7587 15.2588 13.7587ZM15.2948 37.3776C11.3723 37.3776 7.72573 35.2784 5.77048 31.8957C1.52411 24.5185 6.97002 15.438 15.2588 15.438C19.1813 15.438 22.8279 17.5372 24.7832 20.9199C29.0295 28.2851 23.5716 37.3776 15.2948 37.3776ZM15.2588 16.8175C8.02561 16.8175 3.25145 24.7584 6.97002 31.2C9.621 35.7822 15.5347 37.3296 20.069 34.7026C24.6512 32.0636 26.2226 26.1859 23.5836 21.6157C21.8683 18.6528 18.6895 16.8175 15.2588 16.8175ZM42.2125 23.403C41.5887 23.403 37.3423 21.1118 31.3806 23.0671C30.9968 23.187 30.5889 22.9591 30.493 22.5753C29.7613 19.6724 28.1659 16.9734 25.9827 14.9342C25.8388 14.8023 25.7668 14.6343 25.7548 14.4544C25.5149 8.24079 30.5529 3.04679 36.7066 3.04679C40.6291 3.04679 44.2757 5.15798 46.2309 8.54068C49.1818 13.6627 47.5864 20.1522 42.5843 23.307C42.4644 23.367 42.3444 23.403 42.2125 23.403ZM36.2508 20.9079C38.266 20.9079 40.2332 21.2558 42.1285 21.9395C46.2789 19.1206 47.5624 13.6027 45.0314 9.22442C42.3924 4.66617 36.4667 3.09477 31.9324 5.72176C28.9216 7.46109 27.0983 10.6519 27.1343 14.1185C29.2335 16.1458 30.8049 18.7368 31.6445 21.5317C33.132 21.1118 34.6794 20.9079 36.2508 20.9079ZM36.2747 48.9411C30.5529 48.9411 25.7548 44.4789 25.311 38.841C25.299 38.6131 25.3829 38.4092 25.5509 38.2652C28.3578 35.8302 30.2171 32.4595 30.7809 28.7649C30.8168 28.549 30.9488 28.3691 31.1407 28.2611C36.2987 25.5501 42.8242 27.4094 45.7511 32.4835C50.0095 39.8486 44.5516 48.9411 36.2747 48.9411ZM26.7264 39.0689C27.5061 45.9063 35.1352 49.6849 41.0489 46.2782C45.6311 43.6272 47.2025 37.7614 44.5636 33.1792C42.0565 28.8489 36.5626 27.1815 32.0884 29.3287C31.4406 33.0832 29.5453 36.5139 26.7264 39.0689ZM15.2708 34.4987C15.0429 34.4987 14.827 34.3787 14.695 34.1868L9.33311 26.0419L9.22515 25.6581L9.39309 25.2143L14.743 18.5688C14.9949 18.2449 15.5467 18.2449 15.8106 18.5688L21.1846 25.2383C21.3645 25.4782 21.3765 25.814 21.1965 26.0659L15.8586 34.1868C15.7267 34.3787 15.5107 34.4987 15.2708 34.4987ZM11.9601 27.5174L15.2708 32.5554L18.5935 27.5174C18.0298 27.8053 15.9186 28.9808 15.4987 29.1128C15.3188 29.1727 15.1269 29.1607 14.9589 29.0768L11.9601 27.5174ZM10.9885 25.4422L15.2708 27.6733L19.5652 25.4422L15.2708 20.1042L10.9885 25.4422ZM36.2628 43.6992C35.3991 43.6992 35.579 42.6316 35.579 42.0558C34.9912 42.0558 33.8757 42.2357 33.8757 41.3601C33.8757 40.9762 34.1875 40.6643 34.5714 40.6643H37.2704V38.6611H34.5714C34.1875 38.6611 33.8757 38.3492 33.8757 37.9774C33.8757 33.635 33.5038 33.8869 35.579 33.8869C35.579 33.3111 35.3991 32.2436 36.2628 32.2436C37.1264 32.2436 36.9585 33.3111 36.9585 33.8869C37.5343 33.8869 38.6498 33.707 38.6498 34.5827C38.6498 34.9665 38.3499 35.2784 37.9661 35.2784H35.2671V37.2816H37.9661C38.3499 37.2816 38.6498 37.5935 38.6498 37.9774C38.6498 42.3077 39.0337 42.0558 36.9585 42.0558C36.9585 42.6316 37.1264 43.6992 36.2628 43.6992ZM34.9912 17.7651C34.2475 17.7651 32.928 18.005 32.928 17.0814C32.928 16.3017 33.7677 16.3857 34.3075 16.3857V9.89616C33.7677 9.89616 32.928 9.96813 32.928 9.20042C32.928 8.27678 34.2475 8.50469 34.9912 8.50469H35.2911C35.2911 7.9769 35.2072 7.13722 35.9749 7.13722C36.7546 7.13722 36.6706 7.9769 36.6706 8.50469H36.9705C39.1776 8.50469 40.3652 11.0477 39.1057 12.7511C41.4688 14.0226 40.6531 17.7651 37.8581 17.7651H36.6706C36.6706 18.3289 36.8145 19.3245 35.9749 19.3245C35.1472 19.3245 35.2911 18.3289 35.2911 17.7651H34.9912ZM35.687 12.4512H36.9945C38.6378 12.4272 38.6258 9.89616 36.9705 9.89616H35.687V12.4512Z" fill="#143881"/>
</svg>
