<svg width="21" height="17" viewBox="0 0 21 17" fill="none" xmlns="http://www.w3.org/2000/svg">
<path d="M6.7918 16.9615C14.3371 16.9615 18.4652 10.7088 18.4652 5.2881C18.4652 5.11232 18.4613 4.93263 18.4535 4.75685C19.2566 4.1761 19.9496 3.45676 20.5 2.63263C19.7521 2.96538 18.958 3.1827 18.1449 3.27716C19.0011 2.76397 19.6421 1.95777 19.9492 1.00802C19.1438 1.48535 18.263 1.82206 17.3445 2.00372C16.7257 1.34618 15.9075 0.910811 15.0164 0.764924C14.1253 0.619036 13.211 0.770757 12.4148 1.19663C11.6186 1.6225 10.9848 2.2988 10.6115 3.12097C10.2382 3.94315 10.1462 4.86539 10.3496 5.74513C8.71874 5.66329 7.12328 5.23963 5.66665 4.50163C4.21002 3.76363 2.92474 2.72775 1.89414 1.46115C1.37033 2.36425 1.21005 3.43292 1.44586 4.44996C1.68167 5.467 2.29589 6.35609 3.16367 6.93654C2.51219 6.91585 1.87498 6.74045 1.30469 6.42482V6.4756C1.3041 7.42334 1.63175 8.34204 2.23192 9.07552C2.8321 9.80901 3.66777 10.312 4.59687 10.499C3.99338 10.6642 3.35999 10.6882 2.7457 10.5693C3.00788 11.3844 3.51798 12.0973 4.20481 12.6085C4.89164 13.1197 5.72093 13.4037 6.57695 13.4209C5.12369 14.5625 3.32848 15.1817 1.48047 15.1787C1.15274 15.1782 0.825333 15.1581 0.5 15.1186C2.37738 16.323 4.56128 16.9627 6.7918 16.9615Z" fill="#FFFEFF"/>
</svg>
