<svg width="28" height="28" viewBox="0 0 28 28" fill="none" xmlns="http://www.w3.org/2000/svg">
<path fill-rule="evenodd" clip-rule="evenodd" d="M7.58359 3.95051C6.62536 3.95051 5.83359 4.70608 5.83359 5.65597C5.83359 6.60584 6.62536 7.36141 7.58359 7.36141C8.54181 7.36141 9.33359 6.60584 9.33359 5.65597C9.33359 4.70608 8.54181 3.95051 7.58359 3.95051ZM4.08359 5.65597C4.08359 3.79421 5.64232 2.27051 7.58359 2.27051C9.52486 2.27051 11.0836 3.79421 11.0836 5.65597C11.0836 7.51772 9.52486 9.04141 7.58359 9.04141C5.64232 9.04141 4.08359 7.51772 4.08359 5.65597ZM10.3301 11.7308C8.65473 10.8601 6.51244 10.8601 4.83704 11.7308C4.72111 11.791 4.60098 11.8507 4.48011 11.9106C4.07186 12.1132 3.65515 12.3199 3.36287 12.5697C3.30544 12.6187 3.26787 12.6575 3.24362 12.6857C3.26225 12.7049 3.28771 12.7288 3.32216 12.7574C3.8789 13.2203 4.39946 13.4705 5.0116 13.4705H10.1556C10.7677 13.4705 11.2883 13.2203 11.845 12.7574C11.8795 12.7288 11.9049 12.7049 11.9236 12.6857C11.8993 12.6575 11.8618 12.6187 11.8043 12.5697C11.512 12.3199 11.0953 12.1132 10.6871 11.9106C10.5662 11.8507 10.4461 11.791 10.3301 11.7308ZM11.9707 12.6256C11.9707 12.6256 11.97 12.6286 11.9661 12.6348C11.9683 12.6287 11.9707 12.6256 11.9707 12.6256ZM3.19646 12.6256C3.19646 12.6256 3.19883 12.6287 3.20108 12.6348C3.19717 12.6286 3.19646 12.6256 3.19646 12.6256ZM4.00397 10.2533C6.19912 9.1126 8.96805 9.1126 11.1632 10.2533C11.2182 10.2819 11.2908 10.3175 11.3763 10.3595C11.7849 10.5599 12.488 10.9049 12.9677 11.3146C13.2615 11.5657 13.6287 11.9658 13.6975 12.515C13.7746 13.1301 13.4518 13.644 12.9908 14.0274C12.2598 14.635 11.3464 15.1505 10.1556 15.1505H5.0116C3.8208 15.1505 2.9073 14.635 2.17646 14.0274C1.71535 13.644 1.3926 13.1301 1.46963 12.515C1.53844 11.9658 1.90563 11.5657 2.19954 11.3146C2.67915 10.9049 3.38225 10.5599 3.7909 10.3595C3.87639 10.3175 3.949 10.2819 4.00397 10.2533Z" fill="#27AAE1"/>
<path fill-rule="evenodd" clip-rule="evenodd" d="M4.66699 16.8306C5.15024 16.8306 5.54199 17.2067 5.54199 17.6706C5.54199 20.4217 7.50266 22.7271 10.1578 23.3713L9.88436 22.8462C9.66825 22.4312 9.84345 21.9267 10.2757 21.7193C10.7079 21.5118 11.2335 21.6799 11.4496 22.0949L12.4496 24.0149C12.5853 24.2753 12.5707 24.5846 12.4113 24.8322C12.2519 25.0798 11.9702 25.2306 11.667 25.2306C7.31374 25.2306 3.79199 21.8497 3.79199 17.6706C3.79199 17.2067 4.18374 16.8306 4.66699 16.8306Z" fill="#27AAE1"/>
<path fill-rule="evenodd" clip-rule="evenodd" d="M15.5892 3.78901C15.7487 3.54137 16.0303 3.39062 16.3335 3.39062C20.6867 3.39062 24.2085 6.7715 24.2085 10.9506C24.2085 11.4145 23.8168 11.7906 23.3335 11.7906C22.8503 11.7906 22.4585 11.4145 22.4585 10.9506C22.4585 8.19943 20.4978 5.89402 17.8426 5.2499L18.1161 5.77496C18.3323 6.18991 18.157 6.69447 17.7248 6.90194C17.2926 7.10942 16.7669 6.94123 16.5509 6.52628L15.5509 4.60628C15.4152 4.3459 15.4297 4.03665 15.5892 3.78901Z" fill="#27AAE1"/>
<path fill-rule="evenodd" clip-rule="evenodd" d="M20.4168 15.1507C19.4585 15.1507 18.6668 15.9063 18.6668 16.8561C18.6668 17.806 19.4585 18.5617 20.4168 18.5617C21.375 18.5617 22.1668 17.806 22.1668 16.8561C22.1668 15.9063 21.375 15.1507 20.4168 15.1507ZM16.9168 16.8561C16.9168 14.9944 18.4755 13.4707 20.4168 13.4707C22.358 13.4707 23.9168 14.9944 23.9168 16.8561C23.9168 18.7179 22.358 20.2417 20.4168 20.2417C18.4755 20.2417 16.9168 18.7179 16.9168 16.8561ZM23.1634 22.931C21.4879 22.0603 19.3457 22.0603 17.6703 22.931C17.5543 22.9912 17.4342 23.0508 17.3134 23.1108C16.905 23.3134 16.4883 23.5201 16.1961 23.7699C16.1387 23.8189 16.1011 23.8577 16.0768 23.8859C16.0955 23.9051 16.1209 23.929 16.1553 23.9576C16.7121 24.4205 17.2326 24.6707 17.8448 24.6707H22.9889C23.6009 24.6707 24.1215 24.4205 24.6782 23.9576C24.7127 23.9289 24.7382 23.9051 24.7568 23.8859C24.7326 23.8577 24.695 23.8189 24.6375 23.7699C24.3452 23.5201 23.9285 23.3134 23.5203 23.1108C23.3994 23.0508 23.2792 22.9912 23.1634 22.931ZM24.804 23.8258C24.804 23.8258 24.8033 23.8288 24.7993 23.835C24.8015 23.8289 24.804 23.8258 24.804 23.8258ZM16.0297 23.8258C16.0297 23.8258 16.032 23.8289 16.0342 23.835C16.0304 23.8288 16.0297 23.8258 16.0297 23.8258ZM16.8371 21.4535C19.0323 20.3128 21.8013 20.3128 23.9964 21.4535C24.0515 21.4821 24.124 21.5177 24.2095 21.5597C24.6181 21.7602 25.3213 22.1051 25.8009 22.5148C26.0948 22.7659 26.4619 23.166 26.5307 23.7152C26.6079 24.3303 26.285 24.8442 25.824 25.2276C25.0931 25.8352 24.1796 26.3507 22.9889 26.3507H17.8448C16.654 26.3507 15.7405 25.8352 15.0097 25.2276C14.5486 24.8442 14.2258 24.3303 14.3029 23.7152C14.3716 23.166 14.7389 22.7659 15.0328 22.5148C15.5124 22.1051 16.2154 21.7602 16.6241 21.5597C16.7096 21.5177 16.7822 21.4821 16.8371 21.4535Z" fill="#27AAE1"/>
</svg>
