<svg width="28" height="28" viewBox="0 0 28 28" fill="none" xmlns="http://www.w3.org/2000/svg">
<path d="M14.77 2.9378L14.735 3.01947L11.3516 10.8711H8.02662C7.23329 10.8711 6.47495 11.0345 5.78662 11.3261L7.82829 6.44947L7.87495 6.3328L7.95662 6.14614C7.97995 6.07614 8.00329 6.00614 8.03829 5.9478C9.56662 2.4128 11.2933 1.6078 14.77 2.9378Z" stroke="#143881" stroke-width="1.5" stroke-linecap="round" stroke-linejoin="round"/>
<path d="M21.0582 11.1045C20.5332 10.9411 19.9732 10.8711 19.4132 10.8711H11.3516L14.7349 3.01947L14.7699 2.93781C14.9449 2.99614 15.1082 3.07781 15.2832 3.14781L17.8616 4.23281C19.2966 4.82781 20.2999 5.44614 20.9066 6.19281C21.0232 6.33281 21.1166 6.46114 21.1982 6.61281C21.3032 6.77614 21.3849 6.93947 21.4316 7.11447C21.4782 7.21947 21.5132 7.32447 21.5366 7.41781C21.8516 8.39781 21.6649 9.59947 21.0582 11.1045Z" stroke="#143881" stroke-width="1.5" stroke-linecap="round" stroke-linejoin="round"/>
<path d="M25.1088 16.5647V18.8397C25.1088 19.0731 25.0972 19.3064 25.0855 19.5397C24.8638 23.6114 22.5888 25.6647 18.2722 25.6647H9.17217C8.89217 25.6647 8.61217 25.6414 8.34383 25.6064C4.63383 25.3614 2.6505 23.3781 2.4055 19.6681C2.3705 19.3997 2.34717 19.1197 2.34717 18.8397V16.5647C2.34717 14.2197 3.7705 12.2014 5.8005 11.3264C6.5005 11.0347 7.24717 10.8714 8.0405 10.8714H19.4272C19.9988 10.8714 20.5588 10.9531 21.0722 11.1047C23.3938 11.8164 25.1088 13.9864 25.1088 16.5647Z" stroke="#143881" stroke-width="1.5" stroke-linecap="round" stroke-linejoin="round"/>
<path d="M7.8285 6.44946L5.78683 11.3261C3.75683 12.2011 2.3335 14.2195 2.3335 16.5645V13.1461C2.3335 9.8328 4.69016 7.0678 7.8285 6.44946Z" stroke="#143881" stroke-width="1.5" stroke-linecap="round" stroke-linejoin="round"/>
<path d="M25.105 13.1456V16.564C25.105 13.9973 23.4017 11.8156 21.0684 11.1156C21.675 9.59895 21.85 8.40895 21.5584 7.41729C21.535 7.31229 21.5 7.20729 21.4534 7.11395C23.6234 8.23395 25.105 10.5323 25.105 13.1456Z" stroke="#143881" stroke-width="1.5" stroke-linecap="round" stroke-linejoin="round"/>
</svg>
