<svg width="28" height="28" viewBox="0 0 28 28" fill="none" xmlns="http://www.w3.org/2000/svg">
<path d="M10.5001 22.1667C10.5001 23.0417 10.2551 23.87 9.82341 24.57C9.01841 25.9233 7.53675 26.8333 5.83341 26.8333C4.13008 26.8333 2.64842 25.9233 1.84342 24.57C1.41175 23.87 1.16675 23.0417 1.16675 22.1667C1.16675 19.5883 3.25508 17.5 5.83341 17.5C8.41175 17.5 10.5001 19.5883 10.5001 22.1667Z" stroke="#143881" stroke-width="2" stroke-miterlimit="10" stroke-linecap="round" stroke-linejoin="round"/>
<path d="M4.01514 22.1658L5.17014 23.3208L7.65514 21.0225" stroke="#143881" stroke-width="2" stroke-linecap="round" stroke-linejoin="round"/>
<path d="M20.7101 8.22464C20.4301 8.17797 20.1384 8.16632 19.8351 8.16632H8.16839C7.84172 8.16632 7.52672 8.18965 7.22339 8.23632C7.38672 7.90965 7.62006 7.60635 7.90006 7.32635L11.6917 3.52301C13.2901 1.93634 15.8801 1.93634 17.4784 3.52301L19.5201 5.58796C20.2667 6.32296 20.6634 7.2563 20.7101 8.22464Z" stroke="#143881" stroke-width="2" stroke-linecap="round" stroke-linejoin="round"/>
<path d="M25.6666 14.0003V19.8337C25.6666 23.3337 23.3333 25.667 19.8333 25.667H8.90159C9.26325 25.3637 9.57825 24.9903 9.82325 24.5703C10.2549 23.8703 10.4999 23.042 10.4999 22.167C10.4999 19.5887 8.41159 17.5003 5.83325 17.5003C4.43325 17.5003 3.18492 18.1186 2.33325 19.087V14.0003C2.33325 10.827 4.24658 8.61032 7.22158 8.23699C7.52492 8.19032 7.83992 8.16699 8.16659 8.16699H19.8333C20.1366 8.16699 20.4283 8.17864 20.7083 8.22531C23.7183 8.57531 25.6666 10.8037 25.6666 14.0003Z" stroke="#143881" stroke-width="2" stroke-linecap="round" stroke-linejoin="round"/>
<path d="M25.6666 14.583H22.1666C20.8833 14.583 19.8333 15.633 19.8333 16.9163C19.8333 18.1997 20.8833 19.2497 22.1666 19.2497H25.6666" stroke="#143881" stroke-width="2" stroke-linecap="round" stroke-linejoin="round"/>
</svg>
