<svg width="52" height="52" viewBox="0 0 52 52" fill="none" xmlns="http://www.w3.org/2000/svg">
<path d="M28.167 19.5H15.167" stroke="#143881" stroke-width="2" stroke-linecap="round" stroke-linejoin="round"/>
<path d="M47.6668 23.7683V28.2317C47.6668 29.4234 46.7135 30.3983 45.5001 30.4416H41.2534C38.9134 30.4416 36.7685 28.73 36.5735 26.39C36.4435 25.025 36.9634 23.7466 37.8734 22.8583C38.6751 22.035 39.7801 21.5583 40.9934 21.5583H45.5001C46.7135 21.6017 47.6668 22.5766 47.6668 23.7683Z" stroke="#143881" stroke-width="2" stroke-linecap="round" stroke-linejoin="round"/>
<path d="M37.873 22.8582C36.963 23.7466 36.443 25.0249 36.573 26.3899C36.768 28.7299 38.913 30.4416 41.253 30.4416H45.4997V33.5833C45.4997 40.0833 41.1663 44.4166 34.6663 44.4166H15.1663C8.66634 44.4166 4.33301 40.0833 4.33301 33.5833V18.4166C4.33301 12.5233 7.88635 8.40658 13.4113 7.71325C13.9747 7.62658 14.5597 7.58325 15.1663 7.58325H34.6663C35.2297 7.58325 35.7713 7.60489 36.2913 7.69156C41.8813 8.34156 45.4997 12.4799 45.4997 18.4166V21.5583H40.993C39.7796 21.5583 38.6746 22.0349 37.873 22.8582Z" stroke="#143881" stroke-width="2" stroke-linecap="round" stroke-linejoin="round"/>
</svg>
