<svg width="52" height="52" viewBox="0 0 52 52" fill="none" xmlns="http://www.w3.org/2000/svg">
<path d="M19.5003 41.1667C19.5003 42.7917 19.0453 44.33 18.2437 45.63C16.7487 48.1433 13.997 49.8333 10.8337 49.8333C7.67033 49.8333 4.91866 48.1433 3.42366 45.63C2.622 44.33 2.16699 42.7917 2.16699 41.1667C2.16699 36.3783 6.04533 32.5 10.8337 32.5C15.622 32.5 19.5003 36.3783 19.5003 41.1667Z" stroke="#143881" stroke-width="2" stroke-miterlimit="10" stroke-linecap="round" stroke-linejoin="round"/>
<path d="M7.45703 41.1657L9.60203 43.3106L14.217 39.0424" stroke="#143881" stroke-width="2" stroke-linecap="round" stroke-linejoin="round"/>
<path d="M38.4617 15.275C37.9417 15.1883 37.4 15.1667 36.8367 15.1667H15.17C14.5634 15.1667 13.9784 15.21 13.415 15.2967C13.7184 14.69 14.1517 14.1267 14.6717 13.6067L21.7134 6.54337C24.6817 3.59671 29.4917 3.59671 32.46 6.54337L36.2517 10.3783C37.6384 11.7433 38.375 13.4766 38.4617 15.275Z" stroke="#143881" stroke-width="2" stroke-linecap="round" stroke-linejoin="round"/>
<path d="M47.6663 26V36.8333C47.6663 43.3333 43.333 47.6666 36.833 47.6666H16.5313C17.203 47.1033 17.788 46.41 18.243 45.63C19.0447 44.33 19.4997 42.7916 19.4997 41.1666C19.4997 36.3783 15.6213 32.5 10.833 32.5C8.23301 32.5 5.91467 33.6483 4.33301 35.4466V26C4.33301 20.1066 7.88634 15.99 13.4113 15.2966C13.9747 15.21 14.5597 15.1666 15.1663 15.1666H36.833C37.3963 15.1666 37.938 15.1883 38.458 15.2749C44.048 15.9249 47.6663 20.0633 47.6663 26Z" stroke="#143881" stroke-width="2" stroke-linecap="round" stroke-linejoin="round"/>
<path d="M47.6663 27.0834H41.1663C38.783 27.0834 36.833 29.0334 36.833 31.4167C36.833 33.8 38.783 35.75 41.1663 35.75H47.6663" stroke="#143881" stroke-width="2" stroke-linecap="round" stroke-linejoin="round"/>
</svg>
