<svg width="28" height="29" viewBox="0 0 28 29" fill="none" xmlns="http://www.w3.org/2000/svg">
<path d="M15.1667 11.4199H8.16675" stroke="#143881" stroke-width="2" stroke-linecap="round" stroke-linejoin="round"/>
<path d="M25.6666 13.7183V16.1217C25.6666 16.7633 25.1533 17.2883 24.4999 17.3116H22.2132C20.9532 17.3116 19.7983 16.39 19.6933 15.13C19.6233 14.395 19.9032 13.7066 20.3932 13.2283C20.8249 12.785 21.4199 12.5283 22.0732 12.5283H24.4999C25.1533 12.5517 25.6666 13.0766 25.6666 13.7183Z" stroke="#143881" stroke-width="2" stroke-linecap="round" stroke-linejoin="round"/>
<path d="M20.3932 13.2279C19.9032 13.7062 19.6233 14.3946 19.6933 15.1296C19.7983 16.3896 20.9532 17.3112 22.2132 17.3112H24.4999V19.0029C24.4999 22.5029 22.1666 24.8363 18.6666 24.8363H8.16659C4.66659 24.8363 2.33325 22.5029 2.33325 19.0029V10.8363C2.33325 7.66293 4.24659 5.44626 7.22159 5.07293C7.52492 5.02626 7.83992 5.00293 8.16659 5.00293H18.6666C18.9699 5.00293 19.2616 5.01458 19.5416 5.06125C22.5516 5.41125 24.4999 7.6396 24.4999 10.8363V12.5279H22.0732C21.4199 12.5279 20.8249 12.7846 20.3932 13.2279Z" stroke="#143881" stroke-width="2" stroke-linecap="round" stroke-linejoin="round"/>
</svg>
