<svg width="52" height="52" viewBox="0 0 52 52" fill="none" xmlns="http://www.w3.org/2000/svg">
<path d="M45.3788 26.2195C44.9563 26.2195 44.5988 25.8864 44.5663 25.4558C44.3956 22.6608 43.6238 19.9795 42.2913 17.5014C38.8788 11.1477 32.2731 7.19891 25.0581 7.19891C24.985 7.19891 24.92 7.19891 24.8469 7.20703C22.9294 7.23141 21.1094 7.51578 19.3788 8.04391C18.9481 8.17391 18.4931 7.93016 18.3631 7.50766C18.2331 7.07703 18.4769 6.62203 18.8994 6.49203C20.7763 5.91516 22.7506 5.61453 24.7656 5.59016C24.8225 5.58203 24.9363 5.58203 25.0581 5.58203C32.8744 5.58203 40.0244 9.85578 43.7213 16.7458C45.1675 19.4352 45.9963 22.3439 46.1913 25.3745C46.2156 25.8214 45.8825 26.2114 45.4275 26.2358C45.4113 26.2114 45.395 26.2195 45.3788 26.2195Z" fill="#143881"/>
<path d="M25.0582 47.9129C17.8838 47.9129 11.2538 44.3216 7.33758 38.3091C5.08695 34.8723 3.89258 30.8748 3.89258 26.7473C3.89258 25.821 3.95758 24.8866 4.07945 23.9604C4.13633 23.5135 4.54258 23.2048 4.98945 23.2616C5.43633 23.3185 5.74508 23.7329 5.6882 24.1716C5.57445 25.0248 5.51758 25.886 5.51758 26.731C5.51758 30.5498 6.61445 34.2466 8.70258 37.4154C12.3263 42.9729 18.4445 46.2879 25.0663 46.2879C27.7232 46.2879 30.2907 45.7679 32.6957 44.7441C33.102 44.5654 33.5813 44.7604 33.7601 45.1748C33.9388 45.5891 33.7438 46.0604 33.3295 46.2391C30.7132 47.3523 27.9345 47.9129 25.0582 47.9129Z" fill="#143881"/>
<path d="M25.0579 47.913C21.7673 47.913 18.7935 44.2405 17.1035 38.0818C16.1691 34.7018 15.6816 30.7774 15.6816 26.7474C15.6816 26.5362 15.6816 26.3249 15.6898 26.1218C15.706 25.683 16.0635 25.3418 16.5023 25.3418H16.5348C16.9816 25.358 17.331 25.7399 17.3148 26.1868C17.3066 26.3737 17.3066 26.5524 17.3066 26.7393C17.3066 30.6393 17.7779 34.4093 18.6716 37.6512C20.1341 42.9812 22.5879 46.288 25.066 46.288C26.5854 46.288 28.1291 45.0287 29.4291 42.7537C29.6485 42.3637 30.1523 42.2255 30.5341 42.4449C30.9241 42.6643 31.0623 43.1599 30.8429 43.5499C29.2098 46.4099 27.2191 47.913 25.0579 47.913Z" fill="#143881"/>
<path d="M33.59 25.545C33.1594 25.545 32.7938 25.2037 32.7775 24.765C32.6719 22.1 32.3469 19.5894 31.8188 17.29C30.4294 11.1556 27.7725 7.19061 25.0507 7.19061C24.9775 7.19061 24.9125 7.19061 24.8394 7.19873C23.7019 7.28811 22.5888 8.04373 21.5244 9.44936C21.2563 9.80686 20.7444 9.87998 20.3869 9.60373C20.0294 9.33561 19.9563 8.82373 20.2325 8.46623C21.5894 6.67873 23.0925 5.70373 24.7094 5.58186C24.8232 5.57373 24.9369 5.57373 25.0507 5.57373C28.6744 5.57373 31.7944 9.8231 33.4032 16.9406C33.9557 19.3294 34.2888 21.9456 34.3944 24.7081C34.4107 25.155 34.0613 25.5369 33.6144 25.5531C33.6144 25.545 33.6063 25.545 33.59 25.545Z" fill="#143881"/>
<path d="M43.0059 17.9238H23.3027C22.8559 17.9238 22.4902 17.5582 22.4902 17.1113C22.4902 16.6645 22.8559 16.2988 23.3027 16.2988H43.0059C43.4527 16.2988 43.8184 16.6645 43.8184 17.1113C43.8184 17.5582 43.4527 17.9238 43.0059 17.9238Z" fill="#143881"/>
<path d="M27.3977 38.6831H8.01953C7.57266 38.6831 7.20703 38.3175 7.20703 37.8706C7.20703 37.4237 7.57266 37.0581 8.01953 37.0581H27.3977C27.8445 37.0581 28.2102 37.4237 28.2102 37.8706C28.2102 38.3175 27.8527 38.6831 27.3977 38.6831Z" fill="#143881"/>
<path d="M30.7457 27.5601H4.70508C4.2582 27.5601 3.89258 27.1944 3.89258 26.7476C3.89258 26.3007 4.2582 25.9351 4.70508 25.9351H30.7457C31.1926 25.9351 31.5582 26.3007 31.5582 26.7476C31.5582 27.1944 31.1926 27.5601 30.7457 27.5601Z" fill="#143881"/>
<path d="M14.3577 21.1086H9.22266C8.77578 21.1086 8.41016 20.7429 8.41016 20.2961V15.9248C8.41016 15.4779 8.77578 15.1123 9.22266 15.1123H14.3577C16.0152 15.1123 17.3558 16.4529 17.3558 18.1023C17.3558 18.9067 17.047 19.6542 16.4783 20.2229C15.9095 20.7998 15.162 21.1086 14.3577 21.1086ZM10.0352 19.4836H14.3577C14.7233 19.4836 15.0727 19.3373 15.3245 19.0773C15.5845 18.8173 15.7308 18.4679 15.7308 18.1023C15.7308 17.3467 15.1133 16.7373 14.3577 16.7373H10.0352V19.4836Z" fill="#143881"/>
<path d="M13.5777 16.7458H9.22266C8.77578 16.7458 8.41016 16.3801 8.41016 15.9333V11.562C8.41016 11.1151 8.77578 10.7495 9.22266 10.7495H13.5777C15.0483 10.7495 16.2427 12.0901 16.2427 13.7395C16.2427 14.5195 15.9827 15.2508 15.5033 15.8114C15.0077 16.4045 14.3089 16.7458 13.5777 16.7458ZM10.0352 15.1208H13.5777C13.8295 15.1208 14.0733 14.9989 14.2683 14.7633C14.4958 14.4951 14.6258 14.1376 14.6258 13.7476C14.6258 13.0083 14.1464 12.3826 13.5858 12.3826H10.0433V15.1208H10.0352Z" fill="#143881"/>
<path d="M10.6289 12.3744C10.182 12.3744 9.81641 12.0087 9.81641 11.5619V9.63623C9.81641 9.18936 10.182 8.82373 10.6289 8.82373C11.0758 8.82373 11.4414 9.18936 11.4414 9.63623V11.5619C11.4414 12.0169 11.0758 12.3744 10.6289 12.3744Z" fill="#143881"/>
<path d="M13.2207 12.3744C12.7738 12.3744 12.4082 12.0087 12.4082 11.5619V9.63623C12.4082 9.18936 12.7738 8.82373 13.2207 8.82373C13.6676 8.82373 14.0332 9.18936 14.0332 9.63623V11.5619C14.0332 12.0169 13.6676 12.3744 13.2207 12.3744Z" fill="#143881"/>
<path d="M10.6289 23.0345C10.182 23.0345 9.81641 22.6689 9.81641 22.222V20.2964C9.81641 19.8495 10.182 19.4839 10.6289 19.4839C11.0758 19.4839 11.4414 19.8495 11.4414 20.2964V22.222C11.4414 22.6689 11.0758 23.0345 10.6289 23.0345Z" fill="#143881"/>
<path d="M13.2207 23.0345C12.7738 23.0345 12.4082 22.6689 12.4082 22.222V20.2964C12.4082 19.8495 12.7738 19.4839 13.2207 19.4839C13.6676 19.4839 14.0332 19.8495 14.0332 20.2964V22.222C14.0332 22.6689 13.6676 23.0345 13.2207 23.0345Z" fill="#143881"/>
<path d="M12.3345 27.7794C5.80203 27.7794 0.488281 22.4657 0.488281 15.9332C0.488281 9.40066 5.80203 4.08691 12.3345 4.08691C18.867 4.08691 24.1808 9.40066 24.1808 15.9332C24.1808 22.4657 18.867 27.7794 12.3345 27.7794ZM12.3345 5.71191C6.69578 5.71191 2.11328 10.2944 2.11328 15.9332C2.11328 21.5719 6.69578 26.1544 12.3345 26.1544C17.9733 26.1544 22.5558 21.5719 22.5558 15.9332C22.5558 10.2944 17.9652 5.71191 12.3345 5.71191Z" fill="#143881"/>
<path d="M38.9013 38.1793C38.7388 38.1793 38.5844 38.1305 38.4463 38.0411L34.3432 35.2543C34.01 35.0268 33.8963 34.5961 34.0669 34.2305L38.17 25.5774C38.3082 25.293 38.5925 25.1143 38.9013 25.1143C39.2182 25.1143 39.5025 25.293 39.6325 25.5774L43.7357 34.2305C43.9063 34.5961 43.7925 35.0268 43.4594 35.2543L39.3563 38.0411C39.2182 38.1305 39.0638 38.1793 38.9013 38.1793ZM35.83 34.3036L38.9013 36.3918L41.9725 34.3036L38.9013 27.828L35.83 34.3036Z" fill="#143881"/>
<path d="M38.9021 44.7035C38.6258 44.7035 38.3577 44.5572 38.2114 44.3216L34.1083 37.7322C33.9052 37.4072 33.9539 36.9847 34.2383 36.7166C34.5146 36.4485 34.9371 36.416 35.2539 36.6272L38.9021 39.1053L42.5502 36.6272C42.8671 36.4078 43.2896 36.4485 43.5658 36.7166C43.8421 36.9847 43.8989 37.4072 43.6958 37.7322L39.5927 44.3216C39.4464 44.5572 39.1864 44.7035 38.9021 44.7035ZM37.5127 40.121L38.9021 42.3553L40.2914 40.1291L39.3571 40.7628C39.0808 40.9497 38.7233 40.9497 38.4471 40.7628L37.5127 40.121Z" fill="#143881"/>
<path d="M38.9023 38.1793C38.4555 38.1793 38.0898 37.8136 38.0898 37.3668V25.9268C38.0898 25.4799 38.4555 25.1143 38.9023 25.1143C39.3492 25.1143 39.7148 25.4799 39.7148 25.9268V37.3668C39.7148 37.8136 39.3492 38.1793 38.9023 38.1793Z" fill="#143881"/>
<path d="M38.903 47.8806C31.948 47.8806 26.293 42.2256 26.293 35.2706C26.293 28.3156 31.948 22.6606 38.903 22.6606C45.858 22.6606 51.513 28.3156 51.513 35.2706C51.513 42.2256 45.858 47.8806 38.903 47.8806ZM38.903 24.2775C32.8417 24.2775 27.918 29.2094 27.918 35.2625C27.918 41.3156 32.8498 46.2475 38.903 46.2475C44.9561 46.2475 49.888 41.3319 49.888 35.2706C49.888 29.2094 44.9642 24.2775 38.903 24.2775Z" fill="#143881"/>
</svg>
